<?xml version="1.0" standalone="no"?>
<!DOCTYPE svg PUBLIC "-//W3C//DTD SVG 1.1//EN" "http://www.w3.org/Graphics/SVG/1.1/DTD/svg11.dtd" >
<svg>
<metadata>
Created by FontForge 20090622 at Tue Feb 27 06:09:16 2018
 By deploy user
Core Rhino 45 Regular
</metadata>
<defs>
<font id="CoreRhino45Regular" horiz-adv-x="397" >
  <font-face 
    font-family="Core Rhino 45"
    font-weight="400"
    font-stretch="normal"
    units-per-em="1000"
    panose-1="2 1 5 3 3 3 2 2 2 4"
    ascent="749"
    descent="-251"
    x-height="534"
    cap-height="700"
    bbox="-410 -248.581 1205 983"
    underline-thickness="24"
    underline-position="-183"
    unicode-range="U+0008-U+FB04"
  />
<missing-glyph horiz-adv-x="500" 
d="M430 750v-750h-360v750h360zM145 685v-620h210v620h-210z" />
    <glyph glyph-name="f_f" unicode="ff" horiz-adv-x="768" 
d="M746 460h-182v-460h-58q-28 0 -28 22v438h-253v-460h-59q-28 0 -28 22v438h-86q-21 0 -21 26t6 48h101v30q0 87 43.5 132.5t124.5 45.5q54 0 91 -19q38 -18 38 -34q0 -23 -13 -39q-45 17 -101 17q-49 0 -72.5 -24t-23.5 -75v-34h253v30q0 86 42.5 132t119.5 46
q45 0 84 -17q38 -17 38 -33q0 -25 -12 -40q-38 15 -90 15q-51 0 -73.5 -23t-22.5 -76v-34h160q22 0 22 -29v-45z" />
    <glyph glyph-name="f_i" unicode="fi" horiz-adv-x="653" 
d="M511 628q-22 0 -38 16t-16 40t14.5 38.5t36.5 14.5t38 -16.5t16 -40.5t-14 -38t-37 -14zM554 505v-389q0 -53 35 -53h22q5 -12 5 -31q0 -16 -18 -27.5t-45 -11.5q-86 0 -86 116v351h-242v-460h-59q-28 0 -28 22v438h-86q-21 0 -21 26t6 48h101v30q0 84 41 131t112 47
q45 0 81 -17q34 -16 34 -31q0 -24 -13 -40q-30 13 -79 13q-89 0 -89 -99v-34h307q22 0 22 -29z" />
    <glyph glyph-name="f_l" unicode="fl" horiz-adv-x="704" 
d="M693 40q0 -17 -27 -32t-65 -15q-61 0 -93 38.5t-32 110.5v503q-56 22 -130 22q-68 0 -94.5 -24t-26.5 -82v-27h159q23 0 23 -29v-45h-182v-460h-59q-28 0 -28 22v438h-86q-21 0 -21 26t6 48h101v24q0 184 186 184q88 0 152 -35v21q34 8 60 8q27 0 27 -21v-576
q0 -75 61 -75q31 0 58 11q11 -17 11 -35z" />
    <glyph glyph-name="f_f_i" unicode="ffi" horiz-adv-x="993" 
d="M894 505v-389q0 -53 35 -53h22q5 -12 5 -31q0 -16 -18 -27.5t-45 -11.5q-86 0 -86 116v351h-242v-460h-59q-28 0 -28 22v438h-253v-460h-59q-28 0 -28 22v438h-86q-21 0 -21 26t6 48h101v30q0 86 42.5 132t120.5 46q48 0 87 -18q39 -16 39 -33q0 -24 -13 -40
q-36 16 -94 16q-50 0 -72.5 -24t-22.5 -75v-34h253v30q0 84 41 131t112 47q45 0 81 -17q34 -16 34 -31q0 -24 -13 -40q-30 13 -79 13q-89 0 -89 -99v-34h307q22 0 22 -29zM851 628q-22 0 -38 16t-16 40t14.5 38.5t36.5 14.5t38 -16.5t16 -40.5t-14 -38t-37 -14z" />
    <glyph glyph-name="f_f_l" unicode="ffl" horiz-adv-x="1044" 
d="M1032 40q0 -17 -27 -32t-65 -15q-61 0 -93 38.5t-32 110.5v503q-56 22 -130 22q-68 0 -94.5 -24t-26.5 -82v-27h159q23 0 23 -29v-45h-182v-460h-59q-28 0 -28 22v438h-252v-460h-59q-28 0 -28 22v438h-86q-21 0 -21 26t6 48h101v30q0 87 43 132.5t124 45.5q53 0 90 -19
q39 -18 39 -34q0 -23 -13 -39q-45 17 -101 17q-49 0 -72 -23.5t-23 -75.5v-34h252v24q0 184 186 184q88 0 152 -35v21q34 8 60 8q27 0 27 -21v-576q0 -75 61 -75q31 0 58 11q11 -17 11 -35z" />
    <glyph glyph-name=".notdef" horiz-adv-x="500" 
d="M430 750v-750h-360v750h360zM145 685v-620h210v620h-210z" />
    <glyph glyph-name=".null" horiz-adv-x="0" 
 />
    <glyph glyph-name="nonmarkingreturn" horiz-adv-x="333" 
 />
    <glyph glyph-name="NULL" horiz-adv-x="0" 
 />
    <glyph glyph-name="NULL" horiz-adv-x="0" 
 />
    <glyph glyph-name="NULL" horiz-adv-x="0" 
 />
    <glyph glyph-name="CR.001" unicode="&#x9;" horiz-adv-x="237" 
 />
    <glyph glyph-name="CR.001" unicode="&#xd;" horiz-adv-x="237" 
 />
    <glyph glyph-name="space" unicode=" " horiz-adv-x="300" 
 />
    <glyph glyph-name="exclam" unicode="!" horiz-adv-x="294" 
d="M110 201q-13 186 -13 366v131q34 8 69 8q31 0 31 -22v-117q0 -184 -14 -388h-46q-14 0 -19.5 5t-7.5 17zM91 49q0 25 15 40.5t39 15.5q25 0 42 -17.5t17 -43.5q4 -39 -33 -51q-36 -13 -62 11q-19 17 -18 45z" />
    <glyph glyph-name="quotedbl" unicode="&#x22;" horiz-adv-x="465" 
d="M206 683l-13 -266h-49q-26 0 -27 21l-11 258q31 10 70 10q16 0 23.5 -6t6.5 -17zM358 683l-13 -266h-49q-26 0 -27 21l-11 258q31 10 70 10q16 0 23.5 -6t6.5 -17z" />
    <glyph glyph-name="numbersign" unicode="#" horiz-adv-x="697" 
d="M443 443h-158l-32 -187h158zM574 683l-28 -162h81q22 0 22 -28v-50h-116l-32 -187h89q22 0 22 -28v-50h-125l-30 -178h-58q-17 0 -23 6.5t-4 19.5l25 152h-157l-30 -178h-59q-17 0 -23 6.5t-4 19.5l26 152h-82q-21 0 -21 26q0 25 7 52h109l32 187h-90q-21 0 -21 26
q0 25 7 52h117l31 176q29 9 62 9q15 0 21.5 -5.5t4.5 -17.5l-29 -162h158l30 176q29 9 62 9q15 0 21.5 -5.5t4.5 -17.5z" />
    <glyph glyph-name="dollar" unicode="$" horiz-adv-x="594" 
d="M344 -9v-103h-52q-28 0 -28 23v78q-72 4 -123 29q-50 24 -50 47q0 25 12 41q81 -40 180 -40q77 0 118.5 28.5t41.5 77.5q0 47 -36 78t-117 53q-227 62 -227 217q0 75 51 126.5t135 62.5v95q27 8 53 8q27 0 27 -21v-81q64 -7 114.5 -38t77.5 -79q17 -30 -12 -47
q-30 -16 -61 -17q-44 104 -157 104q-60 0 -97.5 -30.5t-37.5 -80.5q0 -47 38.5 -78.5t131.5 -61.5q110 -36 159.5 -85t49.5 -121q0 -74 -51.5 -124t-139.5 -61z" />
    <glyph glyph-name="percent" unicode="%" horiz-adv-x="875" 
d="M384 532q0 -80 -48 -128q-47 -48 -118 -48q-72 0 -118 48q-47 49 -47 128q0 78 47 127q46 49 118 49t118 -49q48 -48 48 -127zM131 536q0 -53 25 -83t67 -30q37 0 59.5 29t22.5 77q0 52 -24.5 82t-66.5 30q-38 0 -60.5 -28.5t-22.5 -76.5zM266 26l282 674h38q26 0 26 -15
q0 -5 -3 -11l-282 -674h-38q-26 0 -26 15q0 5 3 11zM822 168q0 -80 -48 -128q-46 -48 -118 -48t-118 48q-47 49 -47 128q0 78 47 127q46 49 118 49t118 -49q48 -48 48 -127zM569 172q0 -53 25 -83t67 -30q37 0 59.5 29t22.5 77q0 52 -24.5 82t-66.5 30q-38 0 -60.5 -28.5
t-22.5 -76.5z" />
    <glyph glyph-name="ampersand" unicode="&#x26;" horiz-adv-x="730" 
d="M619 406q26 -1 42 -14q11 -8 11 -33q0 -45 -32 -112q-31 -66 -83 -122q42 -32 76 -50q22 -13 50 -13h20q5 -18 5 -32q0 -16 -18 -29t-44 -13q-34 0 -62 16q-40 22 -92 62q-105 -78 -223 -78q-93 0 -155 50q-61 49 -61 130q0 125 136 198q-70 91 -70 175q0 71 53 121
q55 50 133 50q77 0 127 -45q50 -44 50 -113q0 -62 -46.5 -113.5t-129.5 -86.5q102 -116 189 -180q86 97 124 232zM429 118q-109 93 -200 198q-89 -56 -89 -144q0 -48 37 -77t97 -29q82 0 155 52zM208 542q0 -64 57 -139q125 58 125 146q0 41 -24.5 65.5t-63.5 24.5
q-40 0 -67 -27.5t-27 -69.5z" />
    <glyph glyph-name="quotesingle" unicode="'" horiz-adv-x="292" 
d="M195 683l-13 -266h-49q-25 0 -27 21l-11 258q31 10 70 10q16 0 23.5 -6t6.5 -17z" />
    <glyph glyph-name="parenleft" unicode="(" horiz-adv-x="382" 
d="M242 719q40 45 62 34q18 -11 25 -33q-134 -164 -134 -410t134 -410q-7 -22 -25 -33q-22 -11 -62 34q-64 73 -99.5 179.5t-35.5 229.5t35.5 229.5t99.5 179.5z" />
    <glyph glyph-name="parenright" unicode=")" horiz-adv-x="382" 
d="M140 -99q-40 -45 -62 -34q-18 11 -25 33q135 165 135 410t-135 410q7 22 25 33q22 11 62 -34q64 -73 100 -180t36 -229t-36 -229t-100 -180z" />
    <glyph glyph-name="asterisk" unicode="*" horiz-adv-x="605" 
d="M103 435l163 -65l-12 185q39 10 65 10q28 0 28 -21l-12 -175l173 68q20 -27 30 -58q7 -28 -11 -32l-170 -44l118 -143q-17 -26 -45 -46q-24 -15 -36 1l-94 149l-100 -156q-36 12 -58 29q-21 16 -10 33l111 134l-179 46q0 37 10 64q9 27 29 21z" />
    <glyph glyph-name="plus" unicode="+" horiz-adv-x="649" 
d="M367 295v-205h-59q-28 0 -28 22v183h-175q-20 0 -20 25q0 28 6 48h189v196q27 10 60 10q27 0 27 -21v-185h173q23 0 23 -28v-45h-196z" />
    <glyph glyph-name="comma" unicode="," horiz-adv-x="329" 
d="M221 40q0 -72 -51 -134q-15 -20 -33 -31.5t-25 -8.5q-14 8 -17 24q48 45 56 100q-43 13 -43 59q-4 38 33 51q36 14 62 -11q19 -18 18 -49z" />
    <glyph glyph-name="hyphen" unicode="-" horiz-adv-x="467" 
d="M97 371h257q23 0 23 -28v-50h-266q-20 0 -20 27t6 51z" />
    <glyph glyph-name="period" unicode="." horiz-adv-x="329" 
d="M221 44q0 -25 -15.5 -40.5t-39.5 -15.5t-41 17t-17 44q0 25 15.5 40.5t39.5 15.5t41 -17t17 -44z" />
    <glyph glyph-name="slash" unicode="/" horiz-adv-x="494" 
d="M-2 -83l415 836h60q25 0 25 -17q0 -4 -3 -10l-415 -836h-60q-25 0 -25 17q0 4 3 10z" />
    <glyph glyph-name="zero" unicode="0" horiz-adv-x="659" 
d="M329 712q126 0 196.5 -95.5t70.5 -266.5t-70.5 -266.5t-195.5 -95.5t-196 95q-71 97 -71 267q0 171 70.5 266.5t195.5 95.5zM155 358q0 -136 47 -213.5t134 -77.5q80 0 124 71.5t44 203.5q0 137 -46.5 214t-133.5 77q-81 0 -125 -71.5t-44 -203.5z" />
    <glyph glyph-name="one" unicode="1" horiz-adv-x="659" 
d="M141 569l205 131h55q28 0 28 -23v-677h-63q-28 0 -28 22v575l-167 -107q-23 11 -41 35q-7 10 -7 19q0 14 18 25z" />
    <glyph glyph-name="two" unicode="2" horiz-adv-x="659" 
d="M562 477q0 -214 -293 -399h275q23 0 23 -29v-49h-420q-23 0 -33 16q-13 20 -17 47q373 207 373 418q0 71 -41 111.5t-110 40.5q-57 0 -97.5 -34t-59.5 -97q-40 5 -62 18q-16 9 -16 24q0 11 6 23q30 68 90 106.5t141 38.5q106 0 174 -65q67 -64 67 -170z" />
    <glyph glyph-name="three" unicode="3" horiz-adv-x="659" 
d="M276 343q-23 2 -33 16q-13 18 -16 49l195 214h-303q-21 0 -21 26q0 25 7 52h382q23 0 33 -16q13 -19 16 -47l-207 -230q111 -18 171.5 -71t60.5 -140q0 -95 -73 -152q-74 -56 -192 -56q-83 0 -148 27q-64 27 -64 52q0 23 12 42q86 -42 189 -42q85 0 134.5 34.5t49.5 94.5
q0 131 -193 147z" />
    <glyph glyph-name="four" unicode="4" horiz-adv-x="659" 
d="M157 221h273v390q-88 -60 -165 -172q-78 -111 -108 -218zM430 22v121h-323q-23 0 -33 16q-13 20 -17 47q38 137 131 271q94 133 207 212q41 18 90 18q21 0 28.5 -6.5t7.5 -23.5v-456h71q22 0 22 -28v-50h-93v-143h-63q-28 0 -28 22z" />
    <glyph glyph-name="five" unicode="5" horiz-adv-x="659" 
d="M473 216q0 71 -49.5 110.5t-135.5 39.5q-66 0 -119 -12q-13 -3 -21 -3q-9 0 -19 8l-11 10l44 331h355q22 0 22 -28v-50h-303l-26 -192q42 14 99 14q114 0 185 -62q70 -61 70 -166q0 -101 -70 -165q-70 -63 -193 -63q-87 0 -152 27q-64 27 -64 52q0 23 12 42
q84 -42 190 -42q87 0 136.5 39t49.5 110z" />
    <glyph glyph-name="six" unicode="6" horiz-adv-x="659" 
d="M367 633q-87 0 -142.5 -67t-61.5 -190q79 67 190 67q104 0 174 -64q71 -63 71 -167q0 -96 -67 -160q-65 -64 -174 -64q-129 0 -207 91q-78 92 -78 248v16q0 170 81 269q81 100 211 100q72 0 126.5 -30.5t81.5 -86.5q17 -36 -11 -53q-21 -14 -61 -18q-12 53 -47 81t-86 28
zM338 364q-104 0 -175 -64q4 -108 58 -170.5t140 -62.5q62 0 104 39t42 103q0 71 -47.5 113t-121.5 42z" />
    <glyph glyph-name="seven" unicode="7" horiz-adv-x="659" 
d="M571 637q-188 -307 -266 -637h-63q-32 0 -25 28q85 320 250 594h-366q-21 0 -21 26q0 25 7 52h434q23 0 33 -16q13 -20 17 -47z" />
    <glyph glyph-name="eight" unicode="8" horiz-adv-x="659" 
d="M65 186q0 127 152 178q-125 56 -125 164q0 78 63 131q65 53 170 53q107 0 169 -53q63 -53 63 -131q0 -99 -109 -166q144 -62 144 -175q0 -89 -72 -144q-70 -55 -191 -55q-119 0 -192 54q-72 56 -72 144zM157 184q0 -52 49 -85q50 -33 123 -33q74 0 122 33q49 34 49 85
q0 52 -45.5 86.5t-154.5 61.5q-143 -50 -143 -148zM465 529q0 45 -40 74.5t-100 29.5t-100.5 -29t-40.5 -74q0 -46 40 -77q39 -29 146 -61q95 57 95 137z" />
    <glyph glyph-name="nine" unicode="9" horiz-adv-x="659" 
d="M277 67q91 0 155 62q63 62 71 194q-79 -66 -189 -66q-104 0 -175 63q-70 64 -70 168q0 96 66 160q67 64 175 64q129 0 207 -91t78 -248v-16q0 -181 -84 -275q-82 -94 -218 -94q-65 0 -125 26q-57 27 -57 52q0 22 12 42q68 -41 154 -41zM329 336q103 0 175 63
q-5 109 -58.5 171.5t-139.5 62.5q-62 0 -104 -39t-42 -103q0 -71 47.5 -113t121.5 -42z" />
    <glyph glyph-name="colon" unicode=":" horiz-adv-x="329" 
d="M221 44q0 -25 -15.5 -40.5t-39.5 -15.5t-41 17t-17 44q0 25 15.5 40.5t39.5 15.5t41 -17t17 -44zM221 485q0 -25 -15.5 -40.5t-39.5 -15.5t-41 17t-17 44q0 25 15.5 40.5t39.5 15.5t41 -17t17 -44z" />
    <glyph glyph-name="semicolon" unicode=";" horiz-adv-x="329" 
d="M221 485q0 -25 -15.5 -40.5t-39.5 -15.5t-41 17t-17 44q0 25 15.5 40.5t39.5 15.5t41 -17t17 -44zM221 40q0 -72 -51 -134q-15 -20 -33 -31.5t-25 -8.5q-14 8 -17 24q48 45 56 100q-43 13 -43 59q-4 38 33 51q36 14 62 -11q19 -18 18 -49z" />
    <glyph glyph-name="less" unicode="&#x3c;" horiz-adv-x="649" 
d="M563 149v-65l-458 197q-20 8 -20 32v61l444 191q7 3 14 3q20 0 20 -31q0 -18 -5 -48l-375 -157l359 -151q21 -11 21 -32z" />
    <glyph glyph-name="equal" unicode="=" horiz-adv-x="649" 
d="M563 451v-46h-458q-20 0 -20 26q0 27 6 48h449q23 0 23 -28zM563 230v-46h-458q-20 0 -20 26q0 27 6 48h449q23 0 23 -28z" />
    <glyph glyph-name="greater" unicode="&#x3e;" horiz-adv-x="649" 
d="M542 281l-457 -197v65q0 23 21 32l359 151l-376 157q-4 19 -4 48q0 31 19 31q6 0 14 -3l445 -191v-61q0 -25 -21 -32z" />
    <glyph glyph-name="question" unicode="?" horiz-adv-x="557" 
d="M208 49q0 25 15 40.5t39 15.5q25 0 41.5 -17t16.5 -44q4 -39 -33 -52q-35 -11 -61 12q-19 17 -18 45zM278 712q95 0 155 -54t60 -140q0 -57 -26.5 -102t-88.5 -98q-42 -36 -55.5 -57.5t-13.5 -53.5v-28h-62q-28 0 -28 22v15q0 45 21 81t74 78q48 38 67 70t19 73
q0 51 -34 83t-88 32q-53 0 -92.5 -35t-53.5 -96q-41 5 -62 18q-17 11 -17 24q0 10 5 23q27 68 84 106.5t136 38.5z" />
    <glyph glyph-name="at" unicode="@" horiz-adv-x="1021" 
d="M462 124q86 0 142 69l38 196q-31 40 -103 40q-71 0 -124 -54q-52 -53 -52 -136q0 -53 27 -84t72 -31zM521 -99q138 0 235 73q17 -11 20 -29q1 -7 -9 -20t-32.5 -28t-52 -28t-73.5 -22t-92 -9q-189 0 -316 125q-126 125 -126 312t126 312q128 125 309 125q189 0 312 -117
q124 -117 124 -295q0 -108 -56 -181q-56 -72 -144 -72q-45 0 -80 24t-50 67q-65 -86 -171 -86q-71 0 -119 52q-48 53 -48 133q0 121 79 191q80 71 185 71q120 0 185 -93l-39 -206q-8 -41 9 -65.5t54 -24.5q52 0 88 52q37 52 37 136q0 150 -102 251q-101 100 -264 100
q-151 0 -258 -107t-107 -266q0 -162 106 -268q107 -107 270 -107z" />
    <glyph glyph-name="A" unicode="A" horiz-adv-x="671" 
d="M180 182l-65 -182h-62q-27 0 -27 19q0 2 2 10l248 660q39 17 80 17q19 0 27.5 -6.5t15.5 -23.5l254 -676h-69q-28 0 -36 20l-58 162h-310zM207 259h256l-128 355z" />
    <glyph glyph-name="B" unicode="B" horiz-adv-x="655" 
d="M256 77h99q150 0 150 122q0 118 -164 118h-157v-135q0 -60 15.5 -82.5t56.5 -22.5zM334 622h-150v-228h150q148 0 148 114q0 54 -38.5 84t-109.5 30zM93 174v526h248q110 0 172 -53t62 -133q0 -54 -27.5 -94t-75.5 -59q59 -17 92.5 -61t33.5 -105q0 -91 -64 -143
t-181 -52h-108q-77 0 -114.5 41.5t-37.5 132.5z" />
    <glyph glyph-name="C" unicode="C" horiz-adv-x="687" 
d="M638 565q5 -12 5 -17q0 -24 -27 -34q-20 -10 -51 -13q-25 63 -75.5 97.5t-119.5 34.5q-91 0 -155 -70q-65 -70 -65 -189q0 -143 83 -226q83 -82 213 -82q92 0 162 38q12 -20 12 -42q0 -24 -57 -49q-56 -25 -131 -25q-161 0 -268 104q-106 105 -106 279q0 157 92 249
t225 92q91 0 160.5 -39.5t102.5 -107.5z" />
    <glyph glyph-name="D" unicode="D" horiz-adv-x="722" 
d="M256 78h64q108 0 179 71t71 201t-71 201t-179 71h-135v-440q0 -59 15.5 -81.5t55.5 -22.5zM331 0h-86q-78 0 -114.5 41t-36.5 134v525h237q144 0 239 -95q94 -94 94 -255t-94 -255q-95 -95 -239 -95z" />
    <glyph glyph-name="E" unicode="E" horiz-adv-x="574" 
d="M517 49v-49h-272q-78 0 -115 41t-37 133v526h396q20 0 20 -26q0 -28 -6 -52h-319v-236h249q22 0 22 -28v-50h-271v-126q0 -57 16.5 -81t55.5 -24h239q22 0 22 -28z" />
    <glyph glyph-name="F" unicode="F" horiz-adv-x="549" 
d="M186 305v-305h-63q-28 0 -28 22v678h396q20 0 20 -26q0 -28 -6 -52h-319v-240h249q22 0 22 -28v-49h-271z" />
    <glyph glyph-name="G" unicode="G" horiz-adv-x="749" 
d="M579 508q-24 60 -75 92.5t-120 32.5q-99 0 -166 -70q-68 -71 -68 -189q0 -141 82 -224q82 -84 200 -84q71 0 108.5 24t37.5 67v118h-142q-21 0 -21 25q0 28 7 52h224q23 0 23 -28v-166q0 -78 -64.5 -124t-174.5 -46q-160 0 -266 106t-106 277q0 157 93 248q95 93 232 93
q90 0 161 -37.5t108 -102.5q5 -12 5 -17q0 -23 -27 -34q-20 -10 -51 -13z" />
    <glyph glyph-name="H" unicode="H" horiz-adv-x="722" 
d="M186 312v-312h-63q-28 0 -28 22v674q30 10 64 10q27 0 27 -21v-296h349v311h63q28 0 28 -23v-677h-63q-28 0 -28 22v290h-349z" />
    <glyph glyph-name="I" unicode="I" horiz-adv-x="293" 
d="M192 685v-685h-63q-28 0 -28 22v674q30 10 63 10q28 0 28 -21z" />
    <glyph glyph-name="J" unicode="J" horiz-adv-x="422" 
d="M145 -12q-49 0 -89 18t-40 37t12 42q46 -18 97 -18q114 0 114 122v508q29 9 63 9q28 0 28 -21v-498q0 -96 -47.5 -147.5t-137.5 -51.5z" />
    <glyph glyph-name="K" unicode="K" horiz-adv-x="660" 
d="M588 630q-80 -128 -224 -249q112 -205 203 -290q25 -25 53 -25h19q5 -18 5 -36q0 -16 -18.5 -29t-45.5 -13q-47 0 -90 46q-89 92 -194 295q-61 -47 -110 -76v-253h-63q-28 0 -28 22v674q30 10 64 10q27 0 27 -21v-331q93 64 183 154q89 89 161 198q37 -12 51.5 -23
t14.5 -27q0 -13 -8 -26z" />
    <glyph glyph-name="L" unicode="L" horiz-adv-x="546" 
d="M519 49v-49h-274q-78 0 -115 41t-37 133v522q30 10 64 10q27 0 27 -21v-503q0 -57 16.5 -81t55.5 -24h241q22 0 22 -28z" />
    <glyph glyph-name="M" unicode="M" horiz-adv-x="896" 
d="M732 23l-54 539l-180 -324q-9 -16 -35 -16h-52l-188 340l-58 -562h-64q-31 0 -28 24l72 658q39 24 70 24q19 0 29 -18l206 -373l213 385h64q15 0 21 -5t8 -18l74 -677h-67q-28 0 -31 23z" />
    <glyph glyph-name="N" unicode="N" horiz-adv-x="718" 
d="M528 9l-341 539v-548h-63q-28 0 -28 22v656q37 28 67 28q17 0 27 -15l341 -539v548h63q28 0 28 -22v-656q-37 -28 -67 -28q-17 0 -27 15z" />
    <glyph glyph-name="O" unicode="O" horiz-adv-x="773" 
d="M386 712q141 0 234 -95q94 -94 94 -267t-94 -267q-93 -95 -234 -95q-139 0 -234 95q-93 95 -93 267t93 267q95 95 234 95zM152 359q0 -137 69 -215q69 -77 172 -77q95 0 161 70q67 70 67 204q0 137 -69 214q-69 78 -172 78q-95 0 -162 -70q-66 -71 -66 -204z" />
    <glyph glyph-name="P" unicode="P" horiz-adv-x="638" 
d="M187 215v-215h-63q-28 0 -28 22v678h220q126 0 200 -68t74 -187q0 -115 -75 -183q-75 -66 -191 -66q-79 0 -137 19zM311 622h-124v-334q49 -13 123 -13q87 0 137 45.5t50 127.5q0 84 -49.5 129t-136.5 45z" />
    <glyph glyph-name="Q" unicode="Q" horiz-adv-x="773" 
d="M386 712q141 0 234 -95q94 -94 94 -267q0 -113 -42.5 -194.5t-118.5 -125.5q57 -97 127 -97h19q12 -27 -2 -48.5t-59 -22.5q-94 0 -152 141q-48 -15 -100 -15q-139 0 -234 95q-93 95 -93 267t93 267q95 95 234 95zM152 359q0 -137 69 -215q69 -77 172 -77q95 0 161 70
q67 70 67 204q0 137 -69 214q-69 78 -172 78q-95 0 -162 -70q-66 -71 -66 -204z" />
    <glyph glyph-name="R" unicode="R" horiz-adv-x="653" 
d="M541 -12q-39 0 -76 31q-74 62 -147 197q-76 0 -132 17v-233h-63q-28 0 -28 22v678h205q126 0 200 -65t74 -177q0 -86 -44.5 -145t-121.5 -83q63 -100 122 -147q27 -21 52 -21h18q5 -18 5 -32q0 -16 -18.5 -29t-45.5 -13zM294 622h-108v-316q50 -12 108 -12q86 0 136 43
t50 121t-49.5 121t-136.5 43z" />
    <glyph glyph-name="S" unicode="S" horiz-adv-x="594" 
d="M291 712q77 0 138 -32t92 -87q17 -30 -12 -47q-30 -16 -61 -17q-44 104 -157 104q-60 0 -97.5 -30.5t-37.5 -80.5q0 -47 38.5 -78.5t131.5 -61.5q110 -36 159.5 -85t49.5 -121q0 -84 -66 -137q-65 -51 -175 -51q-84 0 -143 25q-60 25 -60 52q0 25 12 41q81 -40 180 -40
q77 0 118.5 28.5t41.5 77.5q0 47 -36 78t-117 53q-227 62 -227 217q0 86 63 138q64 54 165 54z" />
    <glyph glyph-name="T" unicode="T" horiz-adv-x="611" 
d="M350 622v-622h-63q-28 0 -28 22v600h-196q-21 0 -21 26q0 25 7 52h496q23 0 23 -29v-49h-218z" />
    <glyph glyph-name="U" unicode="U" horiz-adv-x="719" 
d="M90 294v402q30 10 64 10q27 0 27 -21v-398q0 -100 48.5 -160.5t129.5 -60.5t129.5 60.5t48.5 160.5v413h63q28 0 28 -23v-383q0 -142 -72 -224t-197 -82t-197 82t-72 224z" />
    <glyph glyph-name="V" unicode="V" horiz-adv-x="715" 
d="M667 675q-84 -357 -251 -652q-14 -23 -40 -23h-79l-254 679q38 26 70 26q20 0 26 -18l215 -579q144 248 221 592h65q16 0 23 -6t4 -19z" />
    <glyph glyph-name="W" unicode="W" horiz-adv-x="1113" 
d="M1058 675q-64 -331 -213 -652q-11 -23 -41 -23h-79l-167 586q-65 -304 -186 -563q-11 -23 -41 -23h-75l-208 679q41 26 70 26q21 0 27 -18l170 -580q112 249 180 593h83q32 0 40 -24l164 -569q122 260 183 593h66q16 0 22.5 -6t4.5 -19z" />
    <glyph glyph-name="X" unicode="X" horiz-adv-x="685" 
d="M405 354l236 -311q-38 -50 -66 -50q-13 0 -24 14l-214 284q-125 -125 -192 -291h-69q-25 0 -25 17q0 9 4 17q77 182 230 326l-222 295q38 50 66 50q13 0 24 -14l201 -267q122 128 180 276h69q24 0 24 -18q0 -9 -4 -17q-72 -170 -218 -311z" />
    <glyph glyph-name="Y" unicode="Y" horiz-adv-x="661" 
d="M282 22v213l-244 430q39 40 68 40q15 0 24 -16l200 -366q134 183 203 377h65q15 0 22 -8t2 -19q-86 -230 -249 -434v-239h-63q-28 0 -28 22z" />
    <glyph glyph-name="Z" unicode="Z" horiz-adv-x="610" 
d="M82 700h417q23 0 33 -16q13 -20 17 -47l-376 -560h361q23 0 23 -28v-49h-449q-23 0 -33 16q-13 20 -17 47l376 559h-338q-21 0 -21 26q0 25 7 52z" />
    <glyph glyph-name="bracketleft" unicode="[" horiz-adv-x="419" 
d="M386 676h-172v-620q0 -62 17 -87t57 -25h77q23 0 23 -28v-46h-107q-79 0 -116.5 43.5t-37.5 139.5v697h244q21 0 21 -26q0 -18 -6 -48z" />
    <glyph glyph-name="backslash" unicode="\" horiz-adv-x="494" 
d="M20 753h60l415 -836q3 -6 3 -10q0 -17 -25 -17h-60l-415 836q-3 6 -3 10q0 17 25 17z" />
    <glyph glyph-name="bracketright" unicode="]" horiz-adv-x="419" 
d="M204 56v620h-172q-6 30 -6 48q0 26 21 26h216q28 0 28 -23v-674q0 -98 -36.5 -140.5t-117.5 -42.5h-107v46q0 28 23 28h77q42 0 58 24t16 88z" />
    <glyph glyph-name="asciicircum" unicode="^" horiz-adv-x="622" 
d="M453 381l-146 239l-157 -257q-30 0 -55 15q-15 8 -15 20q0 8 8 22l172 280h65q30 0 45 -25l172 -280l-45 -27q-10 -7 -20 -7q-13 0 -24 20z" />
    <glyph glyph-name="underscore" unicode="_" horiz-adv-x="500" 
d="M4 -107h474q22 0 22 -28v-30h-479q-21 0 -21 25q0 17 4 33z" />
    <glyph glyph-name="grave" unicode="`" horiz-adv-x="417" 
d="M241 573l-128 105q13 26 31 41q11 9 22 9q10 0 21 -11l117 -116l-27 -29q-15 -15 -36 1z" />
    <glyph glyph-name="a" unicode="a" horiz-adv-x="593" 
d="M252 62q49 0 92 25.5t67 71.5v73q-51 22 -135 22q-65 0 -100.5 -25.5t-35.5 -70.5t31 -70.5t81 -25.5zM536 63h20q5 -17 5 -31q0 -16 -18.5 -27.5t-46.5 -11.5q-32 0 -54.5 23.5t-27.5 63.5q-27 -43 -74 -67.5t-106 -24.5q-82 0 -131 46q-50 47 -50 121q0 81 56.5 127.5
t155.5 46.5q85 0 146 -31v44q0 129 -158 129q-81 0 -143 -32q-12 13 -12 38q0 24 52 46q54 23 124 23q106 0 165 -53.5t59 -154.5v-220q0 -55 38 -55z" />
    <glyph glyph-name="b" unicode="b" horiz-adv-x="638" 
d="M360 546q95 0 160 -71t65 -187q0 -128 -77 -214t-194 -86q-107 0 -169 65.5t-62 178.5v496q34 8 60 8q27 0 27 -21v-257q73 88 190 88zM338 472q-45 0 -90 -24.5t-78 -65.5v-150q0 -81 40.5 -125t105.5 -44q76 0 128 63q53 65 53 159q0 90 -43.5 138.5t-115.5 48.5z" />
    <glyph glyph-name="c" unicode="c" horiz-adv-x="552" 
d="M509 439q5 -12 5 -18q0 -16 -16 -25q-21 -12 -59 -17q-30 92 -135 92q-70 0 -117 -51q-46 -50 -46 -135q0 -104 63 -164q65 -59 151 -59q71 0 132 31q12 -17 12 -38q0 -22 -47 -45q-45 -22 -111 -22q-116 0 -202 80t-86 215q0 121 72 191q72 72 183 72q70 0 123.5 -29
t77.5 -78z" />
    <glyph glyph-name="d" unicode="d" horiz-adv-x="652" 
d="M468 493v237h59q28 0 28 -23v-589q0 -55 38 -55h20q5 -17 5 -31q0 -16 -18.5 -27.5t-46.5 -11.5q-35 0 -57.5 26t-26.5 73q-27 -48 -76.5 -76t-111.5 -28q-100 0 -164 70t-64 188q0 129 77 215q76 85 188 85q91 0 150 -53zM300 62q52 0 97 36t71 103v216q-57 54 -137 54
q-82 0 -136 -64q-54 -63 -54 -159q0 -87 43 -136.5t116 -49.5z" />
    <glyph glyph-name="e" unicode="e" horiz-adv-x="575" 
d="M332 63q75 0 133 31q12 -15 12 -39q0 -23 -46 -45q-45 -22 -113 -22q-115 0 -190 78q-75 80 -75 201q0 126 76 202q77 77 186 77q94 0 153 -56t59 -140q0 -45 -15 -78q-10 -23 -25 -32t-44 -9h-300q8 -79 60 -123.5t129 -44.5zM311 471q-69 0 -115 -45.5t-53 -120.5h291
q8 19 8 41q0 57 -35 91t-96 34z" />
    <glyph glyph-name="f" unicode="f" horiz-adv-x="428" 
d="M407 460h-182v-460h-59q-28 0 -28 22v438h-86q-21 0 -21 26t6 48h101v30q0 86 42.5 132t119.5 46q46 0 85 -17q38 -17 38 -33q0 -24 -13 -40q-38 15 -90 15q-50 0 -72.5 -24t-22.5 -75v-34h159q23 0 23 -29v-45z" />
    <glyph glyph-name="g" unicode="g" horiz-adv-x="640" 
d="M468 493v41h59q28 0 28 -23v-501q0 -106 -78 -182q-77 -76 -214 -76q-86 0 -138.5 38t-52.5 98q0 80 93 130l4 -2q-55 30 -85.5 90t-30.5 140q0 129 77 215q76 85 188 85q91 0 150 -53zM300 62q52 0 97 36t71 103v216q-57 54 -137 54q-82 0 -136 -64q-54 -63 -54 -159
q0 -87 43 -136.5t116 -49.5zM265 -174q85 0 144 50t59 131v83q-27 -47 -77 -74.5t-110 -27.5q-29 0 -63 8q-59 -41 -59 -98q0 -33 28 -52.5t78 -19.5z" />
    <glyph glyph-name="h" unicode="h" horiz-adv-x="641" 
d="M172 407v-407h-59q-28 0 -28 22v705q30 9 60 9q27 0 27 -21v-239q76 70 182 70q92 0 141 -60t49 -171v-199q0 -53 35 -53h22q5 -12 5 -31q0 -16 -18 -27.5t-45 -11.5q-86 0 -86 116v212q0 150 -126 150q-92 0 -159 -64z" />
    <glyph glyph-name="i" unicode="i" horiz-adv-x="270" 
d="M128 628q-22 0 -38 16t-16 40t14.5 38.5t36.5 14.5q24 0 39 -15.5t15 -41.5q0 -24 -14 -38t-37 -14zM85 109v422q30 9 60 9q27 0 27 -21v-403q0 -53 35 -53h22q5 -12 5 -31q0 -16 -18 -27.5t-45 -11.5q-86 0 -86 116z" />
    <glyph glyph-name="j" unicode="j" horiz-adv-x="263" 
d="M123 -146q-49 -58 -85 -58q-10 0 -20 11t-14 24q86 84 86 184v516q30 9 60 9q27 0 27 -21v-510q0 -91 -54 -155zM133 628q-22 0 -38 16t-16 40q-3 33 24 46.5t54.5 -1t26.5 -49.5q0 -24 -14 -38t-37 -14z" />
    <glyph glyph-name="k" unicode="k" horiz-adv-x="579" 
d="M172 193v-193h-59q-28 0 -28 22v705q30 9 60 9q27 0 27 -21v-436q83 50 154 116q76 69 129 145q33 -12 46 -23t13 -26q0 -31 -59 -90q-57 -57 -134 -114q77 -119 156 -195q31 -29 50 -29h20q5 -17 5 -31q0 -15 -18.5 -27t-43.5 -12q-35 0 -73 35q-85 77 -163 214
q-39 -25 -82 -49z" />
    <glyph glyph-name="l" unicode="l" horiz-adv-x="313" 
d="M302 40q0 -17 -27 -32t-65 -15q-61 0 -93 38.5t-32 110.5v586q34 8 60 8q27 0 27 -21v-576q0 -75 61 -75q31 0 58 11q11 -17 11 -35z" />
    <glyph glyph-name="m" unicode="m" horiz-adv-x="916" 
d="M731 109v249q0 113 -100 113q-79 0 -140 -67q4 -28 4 -50v-354h-59q-28 0 -28 22v335q0 56 -26 85t-73 29q-79 0 -137 -69v-402h-59q-28 0 -28 22v509q30 9 60 9q27 0 27 -21v-45q64 72 157 72q98 0 142 -80q78 80 179 80q79 0 123.5 -48.5t44.5 -142.5v-239
q0 -53 35 -53h22q5 -12 5 -31q0 -16 -18 -27.5t-45 -11.5q-86 0 -86 116z" />
    <glyph glyph-name="n" unicode="n" horiz-adv-x="641" 
d="M172 407v-407h-59q-28 0 -28 22v509q30 9 60 9q27 0 27 -21v-43q76 70 182 70q92 0 141 -60t49 -171v-199q0 -53 35 -53h22q5 -12 5 -31q0 -16 -18 -27.5t-45 -11.5q-86 0 -86 116v212q0 150 -126 150q-92 0 -159 -64z" />
    <glyph glyph-name="o" unicode="o" horiz-adv-x="628" 
d="M128 470q76 76 186 76t185 -76q76 -75 76 -203t-76 -204q-75 -75 -185 -75t-186 75q-75 77 -75 204q0 128 75 203zM319 63q71 0 119 50q48 51 48 148q0 99 -52 154q-51 56 -125 56q-71 0 -119 -51q-48 -50 -48 -147q0 -99 51 -155q52 -55 126 -55z" />
    <glyph glyph-name="p" unicode="p" horiz-adv-x="640" 
d="M172 41v-254h-59q-28 0 -28 22v723q34 8 60 8q27 0 27 -21v-76q27 48 77 75.5t110 27.5q99 0 163 -70q65 -71 65 -188q0 -129 -77 -215q-76 -85 -188 -85q-91 0 -150 53zM340 472q-52 0 -97 -36t-71 -103v-216q57 -54 137 -54q82 0 136 63q54 64 54 160q0 87 -43 136.5
t-116 49.5z" />
    <glyph glyph-name="q" unicode="q" horiz-adv-x="640" 
d="M468 493v41h59q28 0 28 -23v-724h-59q-28 0 -28 23v280q-27 -47 -77 -74.5t-110 -27.5q-100 0 -164 70t-64 188q0 129 77 215q76 85 188 85q91 0 150 -53zM300 62q52 0 97 36t71 103v216q-57 54 -137 54q-82 0 -136 -64q-54 -63 -54 -159q0 -87 43 -136.5t116 -49.5z" />
    <glyph glyph-name="r" unicode="r" horiz-adv-x="454" 
d="M419 525q24 -15 24 -31q0 -12 -9 -22q-14 -18 -35 -30q-38 29 -95 29q-99 0 -132 -119v-352h-59q-28 0 -28 22v509q30 9 60 9q27 0 27 -21v-64q52 91 156 91q56 0 91 -21z" />
    <glyph glyph-name="s" unicode="s" horiz-adv-x="499" 
d="M366 393q-13 37 -44 57.5t-73 20.5q-44 0 -71.5 -22t-27.5 -56q0 -36 29.5 -58t99.5 -40q87 -22 126.5 -59.5t39.5 -97.5q0 -70 -51 -110t-143 -40q-67 0 -121 23q-52 24 -52 46q0 25 13 39q69 -34 149 -34q118 0 118 72q0 33 -24.5 52.5t-84.5 33.5q-96 22 -141 64
t-45 109q0 68 52 110q52 43 136 43q62 0 111 -24t72 -66q6 -12 6 -18q0 -13 -14 -24q-21 -16 -60 -21z" />
    <glyph glyph-name="t" unicode="t" horiz-adv-x="453" 
d="M313 63q51 0 84 16q13 -14 13 -38q0 -20 -34 -36.5t-83 -16.5q-77 0 -121 47.5t-44 135.5v289h-75q-21 0 -21 26q0 27 6 48h90v151q34 8 60 8q27 0 27 -21v-138h170q22 0 22 -28v-46h-192v-295q0 -51 26 -76.5t72 -25.5z" />
    <glyph glyph-name="u" unicode="u" horiz-adv-x="614" 
d="M537 511v-286q0 -110 -64 -174q-63 -63 -166 -63t-168 63q-63 65 -63 174v306q30 9 60 9q27 0 27 -21v-300q0 -70 41 -114q42 -43 103 -43q63 0 103 43t40 114v315h59q28 0 28 -23z" />
    <glyph glyph-name="v" unicode="v" horiz-adv-x="589" 
d="M347 18q-10 -18 -35 -18h-77l-194 514q37 27 67 27q18 0 22 -16l161 -438q49 84 97 209q46 120 72 238h58q16 0 23 -6t4 -19q-60 -260 -198 -491z" />
    <glyph glyph-name="w" unicode="w" horiz-adv-x="874" 
d="M739 534h60q29 0 25 -25q-44 -260 -149 -489q-9 -20 -33 -20h-82l-120 429q-38 -211 -124 -411q-8 -18 -32 -18h-80l-159 513q40 28 69 28q16 0 21 -17l125 -436q82 184 124 446h75q28 0 35 -25l123 -421q85 193 122 446z" />
    <glyph glyph-name="x" unicode="x" horiz-adv-x="566" 
d="M515 63h15q11 -21 -2.5 -46t-54.5 -24q-22 0 -41.5 14t-45.5 49l-114 151q-96 -96 -143 -207h-64q-23 0 -23 16q0 5 3 11q54 128 179 243l-170 223q31 46 59 46q13 0 20 -10l153 -202q99 105 139 207h65q22 0 22 -17q0 -5 -3 -11q-54 -128 -176 -242l126 -166
q27 -35 56 -35z" />
    <glyph glyph-name="y" unicode="y" horiz-adv-x="627" 
d="M83 219v313q34 8 60 8q27 0 27 -21v-306q0 -150 126 -150q92 0 159 64v408h59q28 0 28 -22v-510q0 -108 -70 -179q-70 -72 -198 -72q-83 0 -134 37.5t-51 97.5q0 77 84 126q-90 53 -90 206zM455 -6v64q-76 -70 -182 -70q-19 0 -44 4q-53 -38 -53 -95q0 -32 27 -52t73 -20
q81 0 130 46t49 123z" />
    <glyph glyph-name="z" unicode="z" horiz-adv-x="505" 
d="M454 473l-290 -400h276q22 0 22 -28v-45h-361q-22 0 -31 14q-13 19 -17 47l289 399h-260q-21 0 -21 26t6 48h339q22 0 31 -14q13 -19 17 -47z" />
    <glyph glyph-name="braceleft" unicode="{" horiz-adv-x="410" 
d="M87 270q-24 3 -24 29v48q53 0 79.5 28.5t26.5 80.5v128q0 166 178 166h20q20 0 20 -26t-6 -48h-50q-36 0 -55.5 -24t-19.5 -69v-121q0 -114 -87 -152q46 -20 66.5 -56.5t20.5 -95.5v-122q0 -44 20.5 -68t54.5 -24h35q22 0 22 -28v-46h-33q-186 0 -186 166v128
q0 96 -82 106z" />
    <glyph glyph-name="bar" unicode="|" horiz-adv-x="309" 
d="M192 748v-948h-47q-28 0 -28 23v940q19 6 47 6t28 -21z" />
    <glyph glyph-name="braceright" unicode="}" horiz-adv-x="410" 
d="M322 270q-82 -10 -82 -106v-128q0 -166 -186 -166h-33v46q0 28 22 28h27q36 0 55.5 23.5t19.5 68.5v122q0 59 20.5 95.5t66.5 56.5q-87 38 -87 152v121q0 44 -20.5 68.5t-54.5 24.5h-42q-6 22 -6 48t21 26h20q84 0 130.5 -41t46.5 -125v-128q0 -52 26.5 -80.5t79.5 -28.5
v-48q0 -26 -24 -29z" />
    <glyph glyph-name="asciitilde" unicode="~" horiz-adv-x="649" 
d="M98 263q-19 7 -19 24q0 12 4 23q29 105 135 105q57 0 109 -37q34 -25 62 -41q18 -9 35 -9q53 0 66 88l62 -13q20 -5 17 -23q-10 -59 -46 -92.5t-94 -33.5q-57 0 -109 37q-40 29 -62 40q-17 10 -35 10q-51 0 -66 -87q-34 -1 -59 9z" />
    <glyph glyph-name="uni00A0" unicode="&#xa0;" horiz-adv-x="300" 
 />
    <glyph glyph-name="exclamdown" unicode="&#xa1;" horiz-adv-x="294" 
d="M185 333q13 -186 13 -366v-131q-34 -8 -69 -8q-31 0 -31 22v117q0 184 14 388h46q14 0 19.5 -5t7.5 -17zM204 485q0 -25 -15 -40.5t-39 -15.5t-41.5 17.5t-17.5 43.5q-4 39 33 51q36 13 62 -11q19 -17 18 -45z" />
    <glyph glyph-name="cent" unicode="&#xa2;" horiz-adv-x="552" 
d="M343 -12v-100h-53q-28 0 -28 23v88q-92 25 -150 99q-59 76 -59 185q0 106 57 175t150 84v100q26 8 53 8t27 -21v-85q123 -14 169 -105q5 -12 5 -18q0 -16 -16 -25q-21 -12 -59 -17q-30 92 -135 92q-70 0 -117 -51q-46 -50 -46 -135q0 -104 63 -164q65 -59 151 -59
q71 0 132 31q12 -17 12 -38q0 -23 -46 -45q-44 -20 -110 -22z" />
    <glyph glyph-name="sterling" unicode="&#xa3;" horiz-adv-x="596" 
d="M64 28v42q36 29 46 62q11 36 11 98v70h-47q-21 0 -21 19q0 25 4 38h64v126q0 105 57.5 167t151.5 62q72 0 126.5 -38t79.5 -102q6 -14 6 -24q0 -14 -21 -24q-26 -13 -59 -16q-15 62 -50 93.5t-82 31.5q-55 0 -86.5 -38.5t-31.5 -107.5v-130h206q23 0 23 -28v-29h-229v-63
q0 -117 -48 -160h367q22 0 22 -28v-49h-466q-23 0 -23 28z" />
    <glyph glyph-name="currency" unicode="&#xa4;" horiz-adv-x="692" 
d="M349 553q69 0 127 -38l92 92q21 -10 42 -31q19 -19 4 -34l-81 -82q41 -58 41 -128t-39 -127l91 -91q-15 -25 -32 -42q-19 -19 -34 -4l-82 82q-56 -39 -129 -39q-69 0 -127 38l-92 -92q-21 10 -42 31q-19 19 -4 34l81 82q-41 58 -41 128q0 71 39 127l-91 91q15 25 32 42
q19 19 34 4l82 -82q56 39 129 39zM343 479q-55 0 -95 -40q-39 -39 -39 -101q0 -70 42 -112q43 -41 104 -41q55 0 94 39q40 40 40 102q0 70 -42 111q-42 42 -104 42z" />
    <glyph glyph-name="yen" unicode="&#xa5;" horiz-adv-x="655" 
d="M142 311h136v10l-244 342q36 42 65 42q18 0 28 -16l202 -289q129 137 202 300h61q28 0 28 -17q0 -7 -7 -22q-91 -186 -244 -339v-11h122q18 0 18 -24v-25h-140v-44h122q18 0 18 -24v-26h-140v-168h-63q-28 0 -28 22v146h-126q-14 0 -14 17q0 16 4 33h136v44h-126
q-14 0 -14 17q0 15 4 32z" />
    <glyph glyph-name="brokenbar" unicode="&#xa6;" horiz-adv-x="309" 
d="M192 688v-323h-47q-28 0 -28 22v316q19 6 47 6t28 -21zM192 183v-323h-47q-28 0 -28 23v315q19 6 47 6t28 -21z" />
    <glyph glyph-name="section" unicode="&#xa7;" horiz-adv-x="504" 
d="M363 559q-26 78 -114 78q-44 0 -71.5 -22t-27.5 -56q0 -36 28.5 -57.5t100.5 -42.5q85 -26 125.5 -64t40.5 -94q0 -84 -86 -122q86 -42 86 -129q0 -70 -51 -110t-143 -40q-68 0 -122 23q-51 23 -51 47t13 38q71 -33 149 -33q118 0 118 71q0 32 -25 52t-84 34
q-98 24 -142 64t-44 103q0 83 90 122q-90 49 -90 138q0 68 52 110q52 43 136 43q62 0 111 -24t72 -66q5 -12 5 -18q0 -14 -13 -24q-21 -16 -63 -21zM150 304q0 -39 30 -60t99 -37q38 11 58.5 35t20.5 52q0 38 -31 60t-98 37q-38 -12 -58.5 -35.5t-20.5 -51.5z" />
    <glyph glyph-name="dieresis" unicode="&#xa8;" horiz-adv-x="417" 
d="M170 643q0 -23 -14 -37t-35 -14q-22 0 -37.5 15.5t-15.5 39.5q0 23 14 37t36 14t37 -15.5t15 -39.5zM348 643q0 -23 -14 -37t-35 -14q-22 0 -37.5 15.5t-15.5 39.5q0 23 14 37t36 14t37 -15.5t15 -39.5z" />
    <glyph glyph-name="copyright" unicode="&#xa9;" horiz-adv-x="824" 
d="M668 606q106 -106 106 -256t-106 -256t-256 -106t-256 106t-106 256t106 256t256 106t256 -106zM633 126q91 92 91 224t-91 223q-92 93 -221 93t-221 -93q-91 -91 -91 -223t91 -224q92 -92 221 -92t221 92zM540 231q8 -14 8 -28q0 -16 -34 -31t-76 -15q-82 0 -140 57
q-59 57 -59 148q0 81 50 131t126 50q45 0 83 -19.5t55 -51.5q4 -7 4 -15q0 -9 -10 -16q-19 -12 -44 -16q-27 61 -90 61q-46 0 -74 -33.5t-28 -89.5q0 -68 40.5 -108.5t103.5 -40.5q48 0 85 17z" />
    <glyph glyph-name="ordfeminine" unicode="&#xaa;" horiz-adv-x="448" 
d="M192 649q-55 0 -103 -23q-9 14 -9 33q0 15 38 32q40 17 90 17q77 0 121.5 -39t44.5 -110v-156q0 -18 6.5 -25t21.5 -7h9q5 -13 5 -24q3 -21 -28 -28q-40 -10 -68 16q-13 13 -17 32q-39 -55 -122 -55q-60 0 -99.5 33t-39.5 86q0 54 39 89q40 34 107 34q68 0 109 -22v30
q0 87 -105 87zM297 429v51q-32 16 -86 16q-91 0 -91 -64q0 -29 22.5 -45.5t56.5 -16.5q66 0 98 59z" />
    <glyph glyph-name="guillemotleft" unicode="&#xab;" horiz-adv-x="590" 
d="M303 177v-64l-225 158q-15 13 -15 30v40l208 147q11 8 18 8q15 0 15 -24q0 -25 -6 -49l-163 -111l154 -106q14 -11 14 -29zM525 177v-64l-225 158q-15 13 -15 30v40l208 147q11 8 18 8q15 0 15 -24q0 -25 -6 -49l-163 -111l154 -106q14 -11 14 -29z" />
    <glyph glyph-name="logicalnot" unicode="&#xac;" horiz-adv-x="649" 
d="M553 426v-251h-59q-28 0 -28 22v184h-361q-20 0 -20 25q0 28 6 48h439q23 0 23 -28z" />
    <glyph glyph-name="uni00AD" unicode="&#xad;" horiz-adv-x="434" 
d="M91 371h257q23 0 23 -28v-50h-266q-20 0 -20 27t6 51z" />
    <glyph glyph-name="registered" unicode="&#xae;" horiz-adv-x="824" 
d="M156 94q-106 106 -106 256t106 256t256 106t256 -106t106 -256t-106 -256t-256 -106t-256 106zM100 350q0 -133 91 -224q92 -92 221 -92q128 0 220 92q91 91 91 224q0 131 -91 222q-92 93 -220 93q-129 0 -221 -93q-91 -91 -91 -222zM532 157q-23 0 -45 20
q-41 38 -73 104q-39 0 -66 8v-126h-55q-17 0 -17 13v367h135q69 0 109.5 -36t40.5 -95q0 -42 -21.5 -73.5t-58.5 -45.5q21 -38 53 -70q13 -13 30 -13h10q4 -9 4 -24q0 -11 -13.5 -20t-32.5 -9zM395 486h-47v-142q24 -6 54 -6q40 0 63 19.5t23 54.5q0 74 -93 74z" />
    <glyph glyph-name="overscore" unicode="&#xaf;" horiz-adv-x="417" 
d="M80 678h243q19 0 19 -25v-39h-250q-18 0 -18 23q0 19 6 41z" />
    <glyph glyph-name="degree" unicode="&#xb0;" horiz-adv-x="396" 
d="M200 478q35 0 57.5 24t22.5 63t-24 65t-60 26q-35 0 -57.5 -24t-22.5 -63t24 -65t60 -26zM305 463q-43 -41 -107 -41t-108 41q-42 42 -42 104q0 63 42 103q44 42 108 42q65 0 107 -42q43 -40 43 -103q0 -62 -43 -104z" />
    <glyph glyph-name="plusminus" unicode="&#xb1;" horiz-adv-x="649" 
d="M367 369v-205h-59q-28 0 -28 22v183h-175q-20 0 -20 25q0 28 6 48h189v196q27 10 60 10q27 0 27 -21v-185h173q23 0 23 -28v-45h-196zM563 45v-45h-458q-20 0 -20 25q0 27 6 48h449q23 0 23 -28z" />
    <glyph glyph-name="twosuperior" unicode="&#xb2;" 
d="M343 568q0 -122 -160 -225h143q19 0 19 -23v-36h-252q-31 0 -37 52q94 50 154 109q61 61 61 124q0 37 -21.5 58.5t-55.5 21.5q-61 0 -84 -77q-28 1 -49 13q-13 7 -13 19q0 9 4 17q18 40 55.5 63.5t87.5 23.5q66 0 107 -38.5t41 -101.5z" />
    <glyph glyph-name="threesuperior" unicode="&#xb3;" 
d="M167 482q-22 3 -29 19q-5 11 -7 25l104 115h-163q-19 0 -19 21q0 16 5 38h230q21 0 30 -15q7 -11 10 -30l-114 -127q127 -25 127 -126q0 -57 -45 -91.5t-119 -34.5q-51 0 -92 18q-40 19 -40 37t9 33q61 -29 117 -29q47 0 73 18t26 48q0 69 -103 81z" />
    <glyph glyph-name="acute" unicode="&#xb4;" horiz-adv-x="417" 
d="M304 678l-128 -105q-21 -16 -36 -1l-27 29l117 116q11 11 21 11q11 0 22 -9q18 -15 31 -41z" />
    <glyph glyph-name="mu" unicode="&#xb5;" horiz-adv-x="621" 
d="M172 63v-291h-59q-28 0 -28 23v736q30 9 60 9q27 0 27 -21v-387q67 -64 159 -64q126 0 126 150v316h59q28 0 28 -23v-287q0 -111 -49 -171t-141 -60q-106 0 -182 70z" />
    <glyph glyph-name="paragraph" unicode="&#xb6;" horiz-adv-x="590" 
d="M264 700h265q19 0 19 -25v-24h-83v-782h-30q-25 0 -25 19v763h-84v-782h-32q-15 0 -20 4t-5 15v451q-93 0 -155 47q-61 48 -61 134t60 132q60 48 151 48z" />
    <glyph glyph-name="middot" unicode="&#xb7;" horiz-adv-x="329" 
d="M221 329q0 -25 -15.5 -40.5t-39.5 -15.5t-41 17t-17 44q0 25 15.5 40.5t39.5 15.5t41 -17t17 -44z" />
    <glyph glyph-name="cedilla" unicode="&#xb8;" horiz-adv-x="417" 
d="M138 -90q-12 6 -12 12l2 6l38 72h77l-33 -59q42 -7 65.5 -29.5t23.5 -56.5q0 -43 -32 -68t-86 -25q-43 0 -70 10v35q0 18 15 18q3 0 21 -3t25 -3q53 0 53 38q0 47 -87 53z" />
    <glyph glyph-name="onesuperior" unicode="&#xb9;" 
d="M263 680v-396h-49q-23 0 -23 19v316l-89 -56q-16 9 -28 24q-7 10 -7 17q0 10 11 18l124 78h38q23 0 23 -20z" />
    <glyph glyph-name="ordmasculine" unicode="&#xba;" horiz-adv-x="448" 
d="M36 510q0 93 55 145q56 53 133 53t133 -53q55 -52 55 -145q0 -94 -55 -146t-133 -52t-133 52t-55 146zM228 373q47 0 77.5 36t30.5 97q0 63 -32 102t-84 39q-47 0 -77 -36t-30 -97q0 -63 31.5 -102t83.5 -39z" />
    <glyph glyph-name="guillemotright" unicode="&#xbb;" horiz-adv-x="590" 
d="M511 271l-225 -158v64q0 18 14 29l154 106l-163 111q-6 24 -6 49q0 24 15 24q7 0 18 -8l208 -147v-40q0 -17 -15 -30zM289 271l-225 -158v64q0 18 14 29l154 106l-163 111q-6 24 -6 49q0 24 15 24q7 0 18 -8l208 -147v-40q0 -17 -15 -30z" />
    <glyph glyph-name="onequarter" unicode="&#xbc;" horiz-adv-x="947" 
d="M263 680v-396h-49q-23 0 -23 19v316l-89 -56q-16 9 -28 24q-7 10 -7 17q0 10 11 18l124 78h38q23 0 23 -20zM638 672l-281 -672h-39q-24 0 -24 16q0 6 3 12l281 672h39q24 0 24 -16q0 -6 -3 -12zM657 142h135v202q-42 -36 -79 -92q-35 -52 -56 -110zM917 119v-36h-54v-83
h-48q-23 0 -23 19v64h-175q-19 0 -26 13q-8 14 -10 36q22 77 80 159q58 80 126 124q23 6 47 6q17 0 23 -5.5t6 -18.5v-255h36q18 0 18 -23z" />
    <glyph glyph-name="onehalf" unicode="&#xbd;" horiz-adv-x="947" 
d="M263 680v-396h-49q-23 0 -23 19v316l-89 -56q-16 9 -28 24q-7 10 -7 17q0 10 11 18l124 78h38q23 0 23 -20zM638 672l-281 -672h-39q-24 0 -24 16q0 6 3 12l281 672h39q24 0 24 -16q0 -6 -3 -12zM892 284q0 -122 -160 -225h143q19 0 19 -23v-36h-252q-30 0 -37 52
q95 50 154 109q61 61 61 124q0 37 -21 58.5t-56 21.5q-61 0 -84 -77q-28 1 -49 13q-13 7 -13 19q0 9 4 17q18 40 55.5 63.5t87.5 23.5q66 0 107 -38.5t41 -101.5z" />
    <glyph glyph-name="threequarters" unicode="&#xbe;" horiz-adv-x="947" 
d="M167 482q-22 3 -29 19q-5 11 -7 25l104 115h-163q-19 0 -19 21q0 16 5 38h230q21 0 30 -15q7 -11 10 -30l-114 -127q127 -25 127 -126q0 -57 -45 -91.5t-119 -34.5q-51 0 -92 18q-40 19 -40 37t9 33q61 -29 117 -29q47 0 73 18t26 48q0 69 -103 81zM638 672l-281 -672
h-39q-24 0 -24 16q0 6 3 12l281 672h39q24 0 24 -16q0 -6 -3 -12zM657 142h135v202q-42 -36 -79 -92q-35 -52 -56 -110zM917 119v-36h-54v-83h-48q-23 0 -23 19v64h-175q-19 0 -26 13q-8 14 -10 36q22 77 80 159q58 80 126 124q23 6 47 6q17 0 23 -5.5t6 -18.5v-255h36
q18 0 18 -23z" />
    <glyph glyph-name="questiondown" unicode="&#xbf;" horiz-adv-x="557" 
d="M349 485q0 -25 -15 -40.5t-39 -15.5q-25 0 -41.5 17t-16.5 44q-4 39 33 52q35 11 61 -12q19 -17 18 -45zM279 -178q-95 0 -155 54t-60 140q0 57 26.5 102t88.5 98q42 36 55.5 57.5t13.5 53.5v28h62q28 0 28 -22v-15q0 -45 -21 -81t-74 -78q-48 -38 -67 -70t-19 -73
q0 -51 34 -83t88 -32q53 0 92.5 35t53.5 96q41 -5 62 -18q17 -11 17 -24q0 -10 -5 -23q-27 -68 -84 -106.5t-136 -38.5z" />
    <glyph glyph-name="Agrave" unicode="&#xc0;" horiz-adv-x="671" 
d="M180 182l-65 -182h-62q-27 0 -27 19q0 2 2 10l248 660q39 17 80 17q19 0 27.5 -6.5t15.5 -23.5l254 -676h-69q-28 0 -36 20l-58 162h-310zM207 259h256l-128 355zM349 767l-128 105q13 26 31 41q10 9 22 9q10 0 21 -11l117 -116l-27 -29q-15 -15 -36 1z" />
    <glyph glyph-name="Aacute" unicode="&#xc1;" horiz-adv-x="671" 
d="M180 182l-65 -182h-62q-27 0 -27 19q0 2 2 10l248 660q39 17 80 17q19 0 27.5 -6.5t15.5 -23.5l254 -676h-69q-28 0 -36 20l-58 162h-310zM207 259h256l-128 355zM447 873l-128 -105q-21 -16 -36 -1l-27 29l117 116q11 11 21 11q12 0 22 -9q18 -17 31 -41z" />
    <glyph glyph-name="Acircumflex" unicode="&#xc2;" horiz-adv-x="671" 
d="M180 182l-65 -182h-62q-27 0 -27 19q0 2 2 10l248 660q39 17 80 17q19 0 27.5 -6.5t15.5 -23.5l254 -676h-69q-28 0 -36 20l-58 162h-310zM207 259h256l-128 355zM372 906l116 -111l-28 -30q-10 -10 -19 -10q-11 0 -25 14l-82 82l-96 -96q-48 18 -48 42q0 7 6 13l114 110
h27q21 0 35 -14z" />
    <glyph glyph-name="Atilde" unicode="&#xc3;" horiz-adv-x="671" 
d="M180 182l-65 -182h-62q-27 0 -27 19q0 2 2 10l248 660q39 17 80 17q19 0 27.5 -6.5t15.5 -23.5l254 -676h-69q-28 0 -36 20l-58 162h-310zM207 259h256l-128 355zM196 838q20 59 77 59q37 0 68 -27q26 -22 42 -22q26 0 33 51l45 -12q23 -6 17 -29q-17 -77 -83 -77
q-35 0 -67 27q-26 22 -42 22q-13 0 -20.5 -10.5t-12.5 -37.5q-27 0 -46 8q-26 11 -11 48z" />
    <glyph glyph-name="Adieresis" unicode="&#xc4;" horiz-adv-x="671" 
d="M180 182l-65 -182h-62q-27 0 -27 19q0 2 2 10l248 660q39 17 80 17q19 0 27.5 -6.5t15.5 -23.5l254 -676h-69q-28 0 -36 20l-58 162h-310zM207 259h256l-128 355zM297 837q0 -23 -14 -37t-35 -14q-22 0 -37.5 15.5t-15.5 39.5q0 23 14 37t36 14t37 -15.5t15 -39.5z
M475 837q0 -23 -14 -37t-35 -14q-22 0 -37.5 15.5t-15.5 39.5q0 23 14 37t36 14t37 -15.5t15 -39.5z" />
    <glyph glyph-name="Aring" unicode="&#xc5;" horiz-adv-x="671" 
d="M180 182l-65 -182h-62q-27 0 -27 19q0 2 2 10l248 660q39 17 80 17q19 0 27.5 -6.5t15.5 -23.5l254 -676h-69q-28 0 -36 20l-58 162h-310zM207 259h256l-128 355zM268 902q28 26 67 26q40 0 66 -26q27 -26 27 -63q0 -39 -27 -64q-25 -25 -66 -25t-67 25q-26 26 -26 64
q0 37 26 63zM338 795q17 0 28.5 11.5t11.5 30.5q0 21 -12.5 33.5t-32.5 12.5q-18 0 -29.5 -11.5t-11.5 -30.5q0 -21 13 -33.5t33 -12.5z" />
    <glyph glyph-name="AE" unicode="&#xc6;" horiz-adv-x="891" 
d="M436 700h370q21 0 21 -26q0 -25 -7 -52h-320v-236h251q22 0 22 -28v-50h-273v-126q0 -60 15.5 -82.5t56.5 -22.5h241q22 0 22 -28v-49h-274q-79 0 -115 42t-36 140h-215l-88 -182h-64q-28 0 -28 19q0 4 3 10l324 651q42 20 94 20zM232 259h178v364z" />
    <glyph glyph-name="Ccedilla" unicode="&#xc7;" horiz-adv-x="687" 
d="M343 -90q-12 6 -12 12l2 6l34 65q-138 21 -224 122q-85 100 -85 256q0 157 92 249t225 92q91 0 160.5 -39.5t102.5 -107.5q5 -12 5 -17q0 -24 -27 -34q-20 -10 -51 -13q-25 63 -75.5 97.5t-119.5 34.5q-91 0 -155 -70q-65 -70 -65 -189q0 -143 83 -226q83 -82 213 -82
q92 0 162 38q12 -20 12 -42t-54 -48q-54 -25 -125 -26l-26 -47q42 -7 65.5 -29.5t23.5 -56.5q0 -43 -32 -68t-86 -25q-43 0 -70 10v35q0 18 15 18q3 0 21 -3t25 -3q53 0 53 38q0 47 -87 53z" />
    <glyph glyph-name="Egrave" unicode="&#xc8;" horiz-adv-x="574" 
d="M517 49v-49h-272q-78 0 -115 41t-37 133v526h396q20 0 20 -26q0 -28 -6 -52h-319v-236h249q22 0 22 -28v-50h-271v-126q0 -57 16.5 -81t55.5 -24h239q22 0 22 -28zM320 767l-128 105q13 26 31 41q10 9 22 9q10 0 21 -11l117 -116l-27 -29q-15 -15 -36 1z" />
    <glyph glyph-name="Eacute" unicode="&#xc9;" horiz-adv-x="574" 
d="M517 49v-49h-272q-78 0 -115 41t-37 133v526h396q20 0 20 -26q0 -28 -6 -52h-319v-236h249q22 0 22 -28v-50h-271v-126q0 -57 16.5 -81t55.5 -24h239q22 0 22 -28zM397 872l-128 -105q-21 -16 -36 -1l-27 29l117 116q11 11 21 11q12 0 22 -9q18 -15 31 -41z" />
    <glyph glyph-name="Ecircumflex" unicode="&#xca;" horiz-adv-x="574" 
d="M517 49v-49h-272q-78 0 -115 41t-37 133v526h396q20 0 20 -26q0 -28 -6 -52h-319v-236h249q22 0 22 -28v-50h-271v-126q0 -57 16.5 -81t55.5 -24h239q22 0 22 -28zM335 906l116 -111l-28 -30q-10 -10 -19 -10q-11 0 -25 14l-82 82l-96 -96q-48 18 -48 42q0 7 6 13
l114 110h27q21 0 35 -14z" />
    <glyph glyph-name="Edieresis" unicode="&#xcb;" horiz-adv-x="574" 
d="M517 49v-49h-272q-78 0 -115 41t-37 133v526h396q20 0 20 -26q0 -28 -6 -52h-319v-236h249q22 0 22 -28v-50h-271v-126q0 -57 16.5 -81t55.5 -24h239q22 0 22 -28zM259 837q0 -23 -14 -37t-35 -14q-22 0 -37.5 15.5t-15.5 39.5q0 23 14 37t36 14t37 -15.5t15 -39.5z
M437 837q0 -23 -14 -37t-35 -14q-22 0 -37.5 15.5t-15.5 39.5q0 23 14 37t36 14t37 -15.5t15 -39.5z" />
    <glyph glyph-name="Igrave" unicode="&#xcc;" horiz-adv-x="293" 
d="M192 685v-685h-63q-28 0 -28 22v674q30 10 63 10q28 0 28 -21zM141 767l-128 105q13 26 31 41q11 9 22 9q10 0 21 -11l117 -116l-27 -29q-15 -15 -36 1z" />
    <glyph glyph-name="Iacute" unicode="&#xcd;" horiz-adv-x="293" 
d="M192 685v-685h-63q-28 0 -28 22v674q30 10 63 10q28 0 28 -21zM280 872l-128 -105q-21 -16 -36 -1l-27 29l117 116q11 11 21 11q11 0 22 -9q18 -15 31 -41z" />
    <glyph glyph-name="Icircumflex" unicode="&#xce;" horiz-adv-x="293" 
d="M192 685v-685h-63q-28 0 -28 22v674q30 10 63 10q28 0 28 -21zM184 906l116 -111l-28 -30q-10 -10 -19 -10q-11 0 -25 14l-82 82l-96 -96q-48 18 -48 42q0 7 6 13l114 110h27q21 0 35 -14z" />
    <glyph glyph-name="Idieresis" unicode="&#xcf;" horiz-adv-x="293" 
d="M192 685v-685h-63q-28 0 -28 22v674q30 10 63 10q28 0 28 -21zM109 837q0 -23 -14 -37t-35 -14q-22 0 -37.5 15.5t-15.5 39.5q0 23 14 37t36 14t37 -15.5t15 -39.5zM287 837q0 -23 -14 -37t-35 -14q-22 0 -37.5 15.5t-15.5 39.5q0 23 14 37t36 14t37 -15.5t15 -39.5z" />
    <glyph glyph-name="Eth" unicode="&#xd0;" horiz-adv-x="722" 
d="M331 0h-86q-82 0 -117 44t-35 151v126h-46q-21 0 -21 19q0 25 4 38h63v322h238q145 0 238 -95q94 -94 94 -255t-94 -255q-93 -95 -238 -95zM184 622v-244h180q22 0 22 -28v-29h-202v-139q0 -60 15.5 -82.5t56.5 -22.5h64q108 0 178 72q72 72 72 201q0 130 -72 200
q-71 72 -178 72h-136z" />
    <glyph glyph-name="Ntilde" unicode="&#xd1;" horiz-adv-x="718" 
d="M528 9l-341 539v-548h-63q-28 0 -28 22v656q37 28 67 28q17 0 27 -15l341 -539v548h63q28 0 28 -22v-656q-37 -28 -67 -28q-17 0 -27 15zM220 838q20 59 77 59q37 0 68 -27q26 -22 42 -22q26 0 33 51l45 -12q23 -6 17 -29q-17 -77 -83 -77q-35 0 -67 27q-26 22 -42 22
q-13 0 -20.5 -10.5t-12.5 -37.5q-27 0 -46 8q-26 11 -11 48z" />
    <glyph glyph-name="Ograve" unicode="&#xd2;" horiz-adv-x="773" 
d="M386 712q141 0 234 -95q94 -94 94 -267t-94 -267q-93 -95 -234 -95q-139 0 -234 95q-93 95 -93 267t93 267q95 95 234 95zM152 359q0 -137 69 -215q69 -77 172 -77q95 0 161 70q67 70 67 204q0 137 -69 214q-69 78 -172 78q-95 0 -162 -70q-66 -71 -66 -204zM400 767
l-128 105q13 26 31 41q11 9 22 9q10 0 21 -11l117 -116l-27 -29q-15 -15 -36 1z" />
    <glyph glyph-name="Oacute" unicode="&#xd3;" horiz-adv-x="773" 
d="M386 712q141 0 234 -95q94 -94 94 -267t-94 -267q-93 -95 -234 -95q-139 0 -234 95q-93 95 -93 267t93 267q95 95 234 95zM152 359q0 -137 69 -215q69 -77 172 -77q95 0 161 70q67 70 67 204q0 137 -69 214q-69 78 -172 78q-95 0 -162 -70q-66 -71 -66 -204zM492 872
l-128 -105q-21 -16 -36 -1l-27 29l117 116q11 11 21 11q11 0 22 -9q18 -15 31 -41z" />
    <glyph glyph-name="Ocircumflex" unicode="&#xd4;" horiz-adv-x="773" 
d="M386 712q141 0 234 -95q94 -94 94 -267t-94 -267q-93 -95 -234 -95q-139 0 -234 95q-93 95 -93 267t93 267q95 95 234 95zM152 359q0 -137 69 -215q69 -77 172 -77q95 0 161 70q67 70 67 204q0 137 -69 214q-69 78 -172 78q-95 0 -162 -70q-66 -71 -66 -204zM423 906
l116 -111l-28 -30q-10 -10 -19 -10q-11 0 -25 14l-82 82l-96 -96q-48 18 -48 42q0 7 6 13l114 110h27q21 0 35 -14z" />
    <glyph glyph-name="Otilde" unicode="&#xd5;" horiz-adv-x="773" 
d="M386 712q141 0 234 -95q94 -94 94 -267t-94 -267q-93 -95 -234 -95q-139 0 -234 95q-93 95 -93 267t93 267q95 95 234 95zM152 359q0 -137 69 -215q69 -77 172 -77q95 0 161 70q67 70 67 204q0 137 -69 214q-69 78 -172 78q-95 0 -162 -70q-66 -71 -66 -204zM247 838
q20 59 77 59q36 0 68 -27q26 -22 42 -22q26 0 33 51l45 -12q22 -6 17 -29q-17 -77 -83 -77q-36 0 -67 27q-26 22 -42 22q-13 0 -20.5 -10.5t-12.5 -37.5q-27 0 -46 8q-26 11 -11 48z" />
    <glyph glyph-name="Odieresis" unicode="&#xd6;" horiz-adv-x="773" 
d="M386 712q141 0 234 -95q94 -94 94 -267t-94 -267q-93 -95 -234 -95q-139 0 -234 95q-93 95 -93 267t93 267q95 95 234 95zM152 359q0 -137 69 -215q69 -77 172 -77q95 0 161 70q67 70 67 204q0 137 -69 214q-69 78 -172 78q-95 0 -162 -70q-66 -71 -66 -204zM347 837
q0 -23 -14 -37t-35 -14q-22 0 -37.5 15.5t-15.5 39.5q0 23 14 37t36 14t37 -15.5t15 -39.5zM525 837q0 -23 -14 -37t-35 -14q-22 0 -37.5 15.5t-15.5 39.5q0 23 14 37t36 14t37 -15.5t15 -39.5z" />
    <glyph glyph-name="multiply" unicode="&#xd7;" horiz-adv-x="649" 
d="M459 135l-136 138l-136 -138q-8 -8 -15 -8q-9 0 -20 11l-39 39l154 153l-154 154q29 55 53 55q8 0 18 -10l139 -142l139 142q10 10 18 10q24 0 53 -55l-154 -154l154 -153l-39 -39q-11 -11 -20 -11q-7 0 -15 8z" />
    <glyph glyph-name="Oslash" unicode="&#xd8;" horiz-adv-x="773" 
d="M62 350q0 172 93 267q95 95 234 95q131 0 220 -81l63 69h38q15 0 18.5 -7.5t-5.5 -16.5l-78 -85q72 -94 72 -241q0 -173 -94 -267q-93 -95 -234 -95q-132 0 -219 81l-63 -69h-38q-15 0 -18.5 7.5t5.5 16.5l77 85q-71 95 -71 241zM155 359q0 -106 43 -179l349 383
q-64 70 -164 70q-95 0 -162 -70q-66 -71 -66 -204zM624 341q0 102 -44 178l-349 -383q66 -69 165 -69q95 0 161 70q67 70 67 204z" />
    <glyph glyph-name="Ugrave" unicode="&#xd9;" horiz-adv-x="719" 
d="M90 294v402q30 10 64 10q27 0 27 -21v-398q0 -100 48.5 -160.5t129.5 -60.5t129.5 60.5t48.5 160.5v413h63q28 0 28 -23v-383q0 -142 -72 -224t-197 -82t-197 82t-72 224zM373 767l-128 105q13 26 31 41q10 9 22 9q10 0 21 -11l117 -116l-27 -29q-15 -15 -36 1z" />
    <glyph glyph-name="Uacute" unicode="&#xda;" horiz-adv-x="719" 
d="M90 294v402q30 10 64 10q27 0 27 -21v-398q0 -100 48.5 -160.5t129.5 -60.5t129.5 60.5t48.5 160.5v413h63q28 0 28 -23v-383q0 -142 -72 -224t-197 -82t-197 82t-72 224zM466 872l-128 -105q-21 -16 -36 -1l-27 29l117 116q11 11 21 11q11 0 22 -9q18 -15 31 -41z" />
    <glyph glyph-name="Ucircumflex" unicode="&#xdb;" horiz-adv-x="719" 
d="M90 294v402q30 10 64 10q27 0 27 -21v-398q0 -100 48.5 -160.5t129.5 -60.5t129.5 60.5t48.5 160.5v413h63q28 0 28 -23v-383q0 -142 -72 -224t-197 -82t-197 82t-72 224zM395 906l116 -111l-28 -30q-10 -10 -19 -10q-11 0 -25 14l-82 82l-96 -96q-48 18 -48 42q0 7 6 13
l114 110h27q21 0 35 -14z" />
    <glyph glyph-name="Udieresis" unicode="&#xdc;" horiz-adv-x="719" 
d="M90 294v402q30 10 64 10q27 0 27 -21v-398q0 -100 48.5 -160.5t129.5 -60.5t129.5 60.5t48.5 160.5v413h63q28 0 28 -23v-383q0 -142 -72 -224t-197 -82t-197 82t-72 224zM320 837q0 -23 -14 -37t-35 -14q-22 0 -37.5 15.5t-15.5 39.5q0 23 14 37t36 14t37 -15.5
t15 -39.5zM498 837q0 -23 -14 -37t-35 -14q-22 0 -37.5 15.5t-15.5 39.5q0 23 14 37t36 14t37 -15.5t15 -39.5z" />
    <glyph glyph-name="Yacute" unicode="&#xdd;" horiz-adv-x="661" 
d="M282 22v213l-244 430q39 40 68 40q15 0 24 -16l200 -366q134 183 203 377h65q15 0 22 -8t2 -19q-86 -230 -249 -434v-239h-63q-28 0 -28 22zM446 872l-128 -105q-21 -16 -36 -1l-27 29l117 116q11 11 21 11q11 0 22 -9q18 -15 31 -41z" />
    <glyph glyph-name="Thorn" unicode="&#xde;" horiz-adv-x="638" 
d="M186 115v-115h-63q-28 0 -28 22v674q30 10 64 10q27 0 27 -21v-85h130q126 0 199.5 -68t73.5 -188q0 -116 -75 -182q-74 -66 -190 -66q-82 0 -138 19zM311 522h-125v-334q51 -14 124 -14q86 0 136.5 45.5t50.5 128.5t-49.5 128.5t-136.5 45.5z" />
    <glyph glyph-name="germandbls" unicode="&#xdf;" horiz-adv-x="637" 
d="M384 -12q-62 0 -106 21q-42 21 -42 45q0 22 12 42q50 -29 118 -29q62 0 101 32t39 84q0 57 -54.5 98.5t-141.5 49.5q-12 24 -12 44q0 24 22 30q52 13 80.5 44t28.5 73q0 49 -34.5 80t-87.5 31q-60 0 -95.5 -41t-35.5 -112v-480h-63q-28 0 -28 22v443q0 116 59 181.5
t162 65.5q94 0 153 -54q60 -54 60 -131q0 -54 -30 -94.5t-84 -59.5q87 -20 138 -74q53 -56 53 -130q0 -79 -58 -130t-154 -51z" />
    <glyph glyph-name="agrave" unicode="&#xe0;" horiz-adv-x="593" 
d="M252 62q49 0 92 25.5t67 71.5v73q-51 22 -135 22q-65 0 -100.5 -25.5t-35.5 -70.5t31 -70.5t81 -25.5zM536 63h20q5 -17 5 -31q0 -16 -18.5 -27.5t-46.5 -11.5q-32 0 -54.5 23.5t-27.5 63.5q-27 -43 -74 -67.5t-106 -24.5q-82 0 -131 46q-50 47 -50 121q0 81 56.5 127.5
t155.5 46.5q85 0 146 -31v44q0 129 -158 129q-81 0 -143 -32q-12 13 -12 38q0 24 52 46q54 23 124 23q106 0 165 -53.5t59 -154.5v-220q0 -55 38 -55zM316 593l-128 105q13 26 31 41q11 9 22 9q10 0 21 -11l117 -116l-27 -29q-15 -15 -36 1z" />
    <glyph glyph-name="aacute" unicode="&#xe1;" horiz-adv-x="593" 
d="M252 62q49 0 92 25.5t67 71.5v73q-51 22 -135 22q-65 0 -100.5 -25.5t-35.5 -70.5t31 -70.5t81 -25.5zM536 63h20q5 -17 5 -31q0 -16 -18.5 -27.5t-46.5 -11.5q-32 0 -54.5 23.5t-27.5 63.5q-27 -43 -74 -67.5t-106 -24.5q-82 0 -131 46q-50 47 -50 121q0 81 56.5 127.5
t155.5 46.5q85 0 146 -31v44q0 129 -158 129q-81 0 -143 -32q-12 13 -12 38q0 24 52 46q54 23 124 23q106 0 165 -53.5t59 -154.5v-220q0 -55 38 -55zM389 698l-128 -105q-21 -16 -36 -1l-27 29l117 116q11 11 21 11q12 0 22 -9q18 -15 31 -41z" />
    <glyph glyph-name="acircumflex" unicode="&#xe2;" horiz-adv-x="593" 
d="M252 62q49 0 92 25.5t67 71.5v73q-51 22 -135 22q-65 0 -100.5 -25.5t-35.5 -70.5t31 -70.5t81 -25.5zM536 63h20q5 -17 5 -31q0 -16 -18.5 -27.5t-46.5 -11.5q-32 0 -54.5 23.5t-27.5 63.5q-27 -43 -74 -67.5t-106 -24.5q-82 0 -131 46q-50 47 -50 121q0 81 56.5 127.5
t155.5 46.5q85 0 146 -31v44q0 129 -158 129q-81 0 -143 -32q-12 13 -12 38q0 24 52 46q54 23 124 23q106 0 165 -53.5t59 -154.5v-220q0 -55 38 -55zM330 732l116 -111l-28 -30q-10 -10 -19 -10q-11 0 -25 14l-82 82l-96 -96q-48 18 -48 42q0 7 6 13l114 110h27
q21 0 35 -14z" />
    <glyph glyph-name="atilde" unicode="&#xe3;" horiz-adv-x="593" 
d="M252 62q49 0 92 25.5t67 71.5v73q-51 22 -135 22q-65 0 -100.5 -25.5t-35.5 -70.5t31 -70.5t81 -25.5zM536 63h20q5 -17 5 -31q0 -16 -18.5 -27.5t-46.5 -11.5q-32 0 -54.5 23.5t-27.5 63.5q-27 -43 -74 -67.5t-106 -24.5q-82 0 -131 46q-50 47 -50 121q0 81 56.5 127.5
t155.5 46.5q85 0 146 -31v44q0 129 -158 129q-81 0 -143 -32q-12 13 -12 38q0 24 52 46q54 23 124 23q106 0 165 -53.5t59 -154.5v-220q0 -55 38 -55zM153 663q20 59 77 59q36 0 68 -27q26 -22 42 -22q26 0 33 51l45 -12q22 -6 17 -29q-17 -77 -83 -77q-36 0 -67 27
q-26 22 -42 22q-13 0 -20.5 -10.5t-12.5 -37.5q-27 0 -46 8q-26 11 -11 48z" />
    <glyph glyph-name="adieresis" unicode="&#xe4;" horiz-adv-x="593" 
d="M252 62q49 0 92 25.5t67 71.5v73q-51 22 -135 22q-65 0 -100.5 -25.5t-35.5 -70.5t31 -70.5t81 -25.5zM536 63h20q5 -17 5 -31q0 -16 -18.5 -27.5t-46.5 -11.5q-32 0 -54.5 23.5t-27.5 63.5q-27 -43 -74 -67.5t-106 -24.5q-82 0 -131 46q-50 47 -50 121q0 81 56.5 127.5
t155.5 46.5q85 0 146 -31v44q0 129 -158 129q-81 0 -143 -32q-12 13 -12 38q0 24 52 46q54 23 124 23q106 0 165 -53.5t59 -154.5v-220q0 -55 38 -55zM254 663q0 -23 -14 -37t-35 -14q-22 0 -37.5 15.5t-15.5 39.5q0 23 14 37t36 14t37 -15.5t15 -39.5zM432 663
q0 -23 -14 -37t-35 -14q-22 0 -37.5 15.5t-15.5 39.5q0 23 14 37t36 14t37 -15.5t15 -39.5z" />
    <glyph glyph-name="aring" unicode="&#xe5;" horiz-adv-x="593" 
d="M252 62q49 0 92 25.5t67 71.5v73q-51 22 -135 22q-65 0 -100.5 -25.5t-35.5 -70.5t31 -70.5t81 -25.5zM536 63h20q5 -17 5 -31q0 -16 -18.5 -27.5t-46.5 -11.5q-32 0 -54.5 23.5t-27.5 63.5q-27 -43 -74 -67.5t-106 -24.5q-82 0 -131 46q-50 47 -50 121q0 81 56.5 127.5
t155.5 46.5q85 0 146 -31v44q0 129 -158 129q-81 0 -143 -32q-12 13 -12 38q0 24 52 46q54 23 124 23q106 0 165 -53.5t59 -154.5v-220q0 -55 38 -55zM219 728q28 26 67 26q40 0 66 -26q27 -26 27 -63q0 -39 -27 -64q-25 -25 -66 -25t-67 25q-26 26 -26 64q0 37 26 63z
M289 621q17 0 28.5 11.5t11.5 30.5q0 21 -12.5 33.5t-32.5 12.5q-18 0 -29.5 -11.5t-11.5 -30.5q0 -21 13 -33.5t33 -12.5z" />
    <glyph glyph-name="ae" unicode="&#xe6;" horiz-adv-x="932" 
d="M821 93q12 -13 12 -38q0 -23 -46 -45q-45 -22 -112 -22q-68 0 -125.5 30.5t-93.5 84.5q-69 -115 -207 -115q-92 0 -144 46t-52 121q0 81 57.5 127.5t154.5 46.5q84 0 146 -32v45q0 129 -158 129q-81 0 -143 -32q-12 13 -12 38q0 24 52 46q54 23 124 23q72 0 123.5 -27.5
t72.5 -77.5q30 48 84.5 76.5t117.5 28.5q94 0 153 -56t59 -140q0 -119 -84 -119h-301q8 -79 60 -124t130 -45q71 0 132 31zM252 62q52 0 95.5 29t64.5 83q0 43 -1 57q-52 23 -135 23q-65 0 -100.5 -26t-35.5 -71q0 -44 31 -69.5t81 -25.5zM667 471q-67 0 -113.5 -46
t-54.5 -121h291q8 18 8 42q0 57 -35 91t-96 34z" />
    <glyph glyph-name="ccedilla" unicode="&#xe7;" horiz-adv-x="552" 
d="M263 -90q-12 6 -12 12l2 6l34 65q-99 18 -167 95q-67 76 -67 195q0 121 72 191q72 72 183 72q70 0 123.5 -29t77.5 -78q5 -12 5 -18q0 -16 -16 -25q-21 -12 -59 -17q-30 92 -135 92q-70 0 -117 -51q-46 -50 -46 -135q0 -104 63 -164q65 -59 151 -59q71 0 132 31
q12 -17 12 -38t-40 -42q-41 -20 -98 -24l-26 -48q42 -7 65.5 -29.5t23.5 -56.5q0 -43 -32 -68t-86 -25q-43 0 -70 10v35q0 18 15 18q3 0 21 -3t25 -3q53 0 53 38q0 47 -87 53z" />
    <glyph glyph-name="egrave" unicode="&#xe8;" horiz-adv-x="575" 
d="M332 63q75 0 133 31q12 -15 12 -39q0 -23 -46 -45q-45 -22 -113 -22q-115 0 -190 78q-75 80 -75 201q0 126 76 202q77 77 186 77q94 0 153 -56t59 -140q0 -45 -15 -78q-10 -23 -25 -32t-44 -9h-300q8 -79 60 -123.5t129 -44.5zM311 471q-69 0 -115 -45.5t-53 -120.5h291
q8 19 8 41q0 57 -35 91t-96 34zM325 593l-128 105q13 26 31 41q11 9 22 9q10 0 21 -11l117 -116l-27 -29q-15 -15 -36 1z" />
    <glyph glyph-name="eacute" unicode="&#xe9;" horiz-adv-x="575" 
d="M332 63q75 0 133 31q12 -15 12 -39q0 -23 -46 -45q-45 -22 -113 -22q-115 0 -190 78q-75 80 -75 201q0 126 76 202q77 77 186 77q94 0 153 -56t59 -140q0 -45 -15 -78q-10 -23 -25 -32t-44 -9h-300q8 -79 60 -123.5t129 -44.5zM311 471q-69 0 -115 -45.5t-53 -120.5h291
q8 19 8 41q0 57 -35 91t-96 34zM395 698l-128 -105q-21 -16 -36 -1l-27 29l117 116q11 11 21 11q12 0 22 -9q18 -15 31 -41z" />
    <glyph glyph-name="ecircumflex" unicode="&#xea;" horiz-adv-x="575" 
d="M332 63q75 0 133 31q12 -15 12 -39q0 -23 -46 -45q-45 -22 -113 -22q-115 0 -190 78q-75 80 -75 201q0 126 76 202q77 77 186 77q94 0 153 -56t59 -140q0 -45 -15 -78q-10 -23 -25 -32t-44 -9h-300q8 -79 60 -123.5t129 -44.5zM311 471q-69 0 -115 -45.5t-53 -120.5h291
q8 19 8 41q0 57 -35 91t-96 34zM338 732l116 -111l-28 -30q-10 -10 -19 -10q-11 0 -25 14l-82 82l-96 -96q-48 18 -48 42q0 7 6 13l114 110h27q21 0 35 -14z" />
    <glyph glyph-name="edieresis" unicode="&#xeb;" horiz-adv-x="575" 
d="M332 63q75 0 133 31q12 -15 12 -39q0 -23 -46 -45q-45 -22 -113 -22q-115 0 -190 78q-75 80 -75 201q0 126 76 202q77 77 186 77q94 0 153 -56t59 -140q0 -45 -15 -78q-10 -23 -25 -32t-44 -9h-300q8 -79 60 -123.5t129 -44.5zM311 471q-69 0 -115 -45.5t-53 -120.5h291
q8 19 8 41q0 57 -35 91t-96 34zM264 663q0 -23 -14 -37t-35 -14q-22 0 -37.5 15.5t-15.5 39.5q0 23 14 37t36 14t37 -15.5t15 -39.5zM442 663q0 -23 -14 -37t-35 -14q-22 0 -37.5 15.5t-15.5 39.5q0 23 14 37t36 14t37 -15.5t15 -39.5z" />
    <glyph glyph-name="igrave" unicode="&#xec;" horiz-adv-x="270" 
d="M85 109v422q30 9 60 9q27 0 27 -21v-403q0 -53 35 -53h22q5 -12 5 -31q0 -16 -18 -27.5t-45 -11.5q-86 0 -86 116zM130 593l-128 105q13 26 31 41q10 9 22 9q10 0 21 -11l117 -116l-27 -29q-15 -15 -36 1z" />
    <glyph glyph-name="iacute" unicode="&#xed;" horiz-adv-x="270" 
d="M85 109v422q30 9 60 9q27 0 27 -21v-403q0 -53 35 -53h22q5 -12 5 -31q0 -16 -18 -27.5t-45 -11.5q-86 0 -86 116zM249 698l-128 -105q-21 -16 -36 -1l-27 29l117 116q11 11 21 11q12 0 22 -9q18 -15 31 -41z" />
    <glyph glyph-name="icircumflex" unicode="&#xee;" horiz-adv-x="270" 
d="M85 109v422q30 9 60 9q27 0 27 -21v-403q0 -53 35 -53h22q5 -12 5 -31q0 -16 -18 -27.5t-45 -11.5q-86 0 -86 116zM166 732l116 -111l-28 -30q-10 -10 -19 -10q-11 0 -25 14l-82 82l-96 -96q-48 18 -48 42q0 7 6 13l114 110h27q21 0 35 -14z" />
    <glyph glyph-name="idieresis" unicode="&#xef;" horiz-adv-x="270" 
d="M85 109v422q30 9 60 9q27 0 27 -21v-403q0 -53 35 -53h22q5 -12 5 -31q0 -16 -18 -27.5t-45 -11.5q-86 0 -86 116zM91 663q0 -23 -14 -37t-35 -14q-22 0 -37.5 15.5t-15.5 39.5q0 23 14 37t36 14t37 -15.5t15 -39.5zM269 663q0 -23 -14 -37t-35 -14q-22 0 -37.5 15.5
t-15.5 39.5q0 23 14 37t36 14t37 -15.5t15 -39.5z" />
    <glyph glyph-name="eth" unicode="&#xf0;" horiz-adv-x="601" 
d="M298 568l88 54q-47 45 -118 45q-68 0 -128 -30q-12 16 -12 38q0 21 48 44q49 23 106 23q114 0 179 -75l51 31q19 13 33 -11l14 -27l-66 -40q53 -98 53 -272q0 -176 -69.5 -268t-199.5 -92q-99 0 -164 63q-65 65 -65 161q0 119 74 193q76 74 174 74q100 0 161 -61
q-6 100 -37 158l-80 -49q-18 -11 -27 6q-10 15 -15 35zM279 62q84 0 131.5 69.5t47.5 200.5v9q-56 63 -149 63q-77 0 -125 -50.5t-48 -138.5q0 -68 40 -110.5t103 -42.5z" />
    <glyph glyph-name="ntilde" unicode="&#xf1;" horiz-adv-x="641" 
d="M172 407v-407h-59q-28 0 -28 22v509q30 9 60 9q27 0 27 -21v-43q76 70 182 70q92 0 141 -60t49 -171v-199q0 -53 35 -53h22q5 -12 5 -31q0 -16 -18 -27.5t-45 -11.5q-86 0 -86 116v212q0 150 -126 150q-92 0 -159 -64zM175 663q20 59 77 59q36 0 68 -27q26 -22 42 -22
q26 0 33 51l45 -12q22 -6 17 -29q-17 -77 -83 -77q-36 0 -67 27q-26 22 -42 22q-13 0 -20.5 -10.5t-12.5 -37.5q-27 0 -46 8q-26 11 -11 48z" />
    <glyph glyph-name="ograve" unicode="&#xf2;" horiz-adv-x="628" 
d="M128 470q76 76 186 76t185 -76q76 -75 76 -203t-76 -204q-75 -75 -185 -75t-186 75q-75 77 -75 204q0 128 75 203zM319 63q71 0 119 50q48 51 48 148q0 99 -52 154q-51 56 -125 56q-71 0 -119 -51q-48 -50 -48 -147q0 -99 51 -155q52 -55 126 -55zM326 593l-128 105
q13 26 31 41q10 9 22 9q10 0 21 -11l117 -116l-27 -29q-15 -15 -36 1z" />
    <glyph glyph-name="oacute" unicode="&#xf3;" horiz-adv-x="628" 
d="M128 470q76 76 186 76t185 -76q76 -75 76 -203t-76 -204q-75 -75 -185 -75t-186 75q-75 77 -75 204q0 128 75 203zM319 63q71 0 119 50q48 51 48 148q0 99 -52 154q-51 56 -125 56q-71 0 -119 -51q-48 -50 -48 -147q0 -99 51 -155q52 -55 126 -55zM419 698l-128 -105
q-21 -16 -36 -1l-27 29l117 116q11 11 21 11q12 0 22 -9q18 -15 31 -41z" />
    <glyph glyph-name="ocircumflex" unicode="&#xf4;" horiz-adv-x="628" 
d="M128 470q76 76 186 76t185 -76q76 -75 76 -203t-76 -204q-75 -75 -185 -75t-186 75q-75 77 -75 204q0 128 75 203zM319 63q71 0 119 50q48 51 48 148q0 99 -52 154q-51 56 -125 56q-71 0 -119 -51q-48 -50 -48 -147q0 -99 51 -155q52 -55 126 -55zM351 732l116 -111
l-28 -30q-10 -10 -19 -10q-11 0 -25 14l-82 82l-96 -96q-48 18 -48 42q0 7 6 13l114 110h27q21 0 35 -14z" />
    <glyph glyph-name="otilde" unicode="&#xf5;" horiz-adv-x="628" 
d="M128 470q76 76 186 76t185 -76q76 -75 76 -203t-76 -204q-75 -75 -185 -75t-186 75q-75 77 -75 204q0 128 75 203zM319 63q71 0 119 50q48 51 48 148q0 99 -52 154q-51 56 -125 56q-71 0 -119 -51q-48 -50 -48 -147q0 -99 51 -155q52 -55 126 -55zM174 663q20 59 77 59
q37 0 68 -27q26 -22 42 -22q26 0 33 51l45 -12q22 -6 17 -29q-17 -77 -83 -77q-35 0 -67 27q-26 22 -42 22q-13 0 -20.5 -10.5t-12.5 -37.5q-27 0 -46 8q-26 11 -11 48z" />
    <glyph glyph-name="odieresis" unicode="&#xf6;" horiz-adv-x="628" 
d="M128 470q76 76 186 76t185 -76q76 -75 76 -203t-76 -204q-75 -75 -185 -75t-186 75q-75 77 -75 204q0 128 75 203zM319 63q71 0 119 50q48 51 48 148q0 99 -52 154q-51 56 -125 56q-71 0 -119 -51q-48 -50 -48 -147q0 -99 51 -155q52 -55 126 -55zM275 663q0 -23 -14 -37
t-35 -14q-22 0 -37.5 15.5t-15.5 39.5q0 23 14 37t36 14t37 -15.5t15 -39.5zM453 663q0 -23 -14 -37t-35 -14q-22 0 -37.5 15.5t-15.5 39.5q0 23 14 37t36 14t37 -15.5t15 -39.5z" />
    <glyph glyph-name="divide" unicode="&#xf7;" horiz-adv-x="649" 
d="M563 340v-45h-458q-20 0 -20 25q0 28 6 48h449q23 0 23 -28zM268 524q0 25 15.5 40.5t39.5 15.5t41 -17t17 -44q4 -39 -33 -52q-36 -12 -62 12q-19 17 -18 45zM381 139q0 -25 -15.5 -40.5t-39.5 -15.5t-41 17t-17 44q-4 39 33 52q36 12 62 -12q19 -17 18 -45z" />
    <glyph glyph-name="oslash" unicode="&#xf8;" horiz-adv-x="628" 
d="M318 546q97 0 167 -58l42 46h32q16 0 20.5 -7t-5.5 -17l-54 -59q59 -74 59 -184q0 -128 -76 -204q-75 -75 -185 -75q-99 0 -167 58l-42 -46h-32q-16 0 -20.5 7t5.5 17l53 58q-58 73 -58 185q0 128 75 203q76 76 186 76zM146 273q0 -73 30 -124l252 276q-49 46 -115 46
q-71 0 -119 -51q-48 -50 -48 -147zM323 63q71 0 119 50q48 51 48 148q0 69 -30 124l-253 -277q48 -45 116 -45z" />
    <glyph glyph-name="ugrave" unicode="&#xf9;" horiz-adv-x="614" 
d="M537 511v-286q0 -110 -64 -174q-63 -63 -166 -63t-168 63q-63 65 -63 174v306q30 9 60 9q27 0 27 -21v-300q0 -70 41 -114q42 -43 103 -43q63 0 103 43t40 114v315h59q28 0 28 -23zM319 593l-128 105q13 26 31 41q10 9 22 9q10 0 21 -11l117 -116l-27 -29q-15 -15 -36 1z
" />
    <glyph glyph-name="uacute" unicode="&#xfa;" horiz-adv-x="614" 
d="M537 511v-286q0 -110 -64 -174q-63 -63 -166 -63t-168 63q-63 65 -63 174v306q30 9 60 9q27 0 27 -21v-300q0 -70 41 -114q42 -43 103 -43q63 0 103 43t40 114v315h59q28 0 28 -23zM412 698l-128 -105q-21 -16 -36 -1l-27 29l117 116q11 11 21 11q11 0 22 -9
q18 -15 31 -41z" />
    <glyph glyph-name="ucircumflex" unicode="&#xfb;" horiz-adv-x="614" 
d="M537 511v-286q0 -110 -64 -174q-63 -63 -166 -63t-168 63q-63 65 -63 174v306q30 9 60 9q27 0 27 -21v-300q0 -70 41 -114q42 -43 103 -43q63 0 103 43t40 114v315h59q28 0 28 -23zM343 732l116 -111l-28 -30q-10 -10 -19 -10q-11 0 -25 14l-82 82l-96 -96q-48 18 -48 42
q0 7 6 13l114 110h27q21 0 35 -14z" />
    <glyph glyph-name="udieresis" unicode="&#xfc;" horiz-adv-x="614" 
d="M537 511v-286q0 -110 -64 -174q-63 -63 -166 -63t-168 63q-63 65 -63 174v306q30 9 60 9q27 0 27 -21v-300q0 -70 41 -114q42 -43 103 -43q63 0 103 43t40 114v315h59q28 0 28 -23zM268 663q0 -23 -14 -37t-35 -14q-22 0 -37.5 15.5t-15.5 39.5q0 23 14 37t36 14
t37 -15.5t15 -39.5zM446 663q0 -23 -14 -37t-35 -14q-22 0 -37.5 15.5t-15.5 39.5q0 23 14 37t36 14t37 -15.5t15 -39.5z" />
    <glyph glyph-name="yacute" unicode="&#xfd;" horiz-adv-x="627" 
d="M83 219v313q34 8 60 8q27 0 27 -21v-306q0 -150 126 -150q92 0 159 64v408h59q28 0 28 -22v-510q0 -108 -70 -179q-70 -72 -198 -72q-83 0 -134 37.5t-51 97.5q0 77 84 126q-90 53 -90 206zM455 -6v64q-76 -70 -182 -70q-19 0 -44 4q-53 -38 -53 -95q0 -32 27 -52t73 -20
q81 0 130 46t49 123zM419 698l-128 -105q-21 -16 -36 -1l-27 29l117 116q11 11 21 11q12 0 22 -9q18 -15 31 -41z" />
    <glyph glyph-name="thorn" unicode="&#xfe;" horiz-adv-x="644" 
d="M172 41v-234h-59q-28 0 -28 22v899q34 8 60 8q27 0 27 -21v-272q27 48 77 75.5t110 27.5q99 0 163 -70q65 -71 65 -188q0 -129 -77 -215q-76 -85 -188 -85q-91 0 -150 53zM340 472q-52 0 -97 -36t-71 -103v-216q57 -54 137 -54q82 0 136 63q54 64 54 160q0 87 -43 136.5
t-116 49.5z" />
    <glyph glyph-name="ydieresis" unicode="&#xff;" horiz-adv-x="627" 
d="M83 219v313q34 8 60 8q27 0 27 -21v-306q0 -150 126 -150q92 0 159 64v408h59q28 0 28 -22v-510q0 -108 -70 -179q-70 -72 -198 -72q-83 0 -134 37.5t-51 97.5q0 77 84 126q-90 53 -90 206zM455 -6v64q-76 -70 -182 -70q-19 0 -44 4q-53 -38 -53 -95q0 -32 27 -52t73 -20
q81 0 130 46t49 123zM273 663q0 -23 -14 -37t-35 -14q-22 0 -37.5 15.5t-15.5 39.5q0 23 14 37t36 14t37 -15.5t15 -39.5zM451 663q0 -23 -14 -37t-35 -14q-22 0 -37.5 15.5t-15.5 39.5q0 23 14 37t36 14t37 -15.5t15 -39.5z" />
    <glyph glyph-name="Amacron" unicode="&#x100;" horiz-adv-x="671" 
d="M180 182l-65 -182h-62q-27 0 -27 19q0 2 2 10l248 660q39 17 80 17q19 0 27.5 -6.5t15.5 -23.5l254 -676h-69q-28 0 -36 20l-58 162h-310zM207 259h256l-128 355zM207 872h243q19 0 19 -25v-39h-250q-18 0 -18 23q0 19 6 41z" />
    <glyph glyph-name="amacron" unicode="&#x101;" horiz-adv-x="593" 
d="M252 62q49 0 92 25.5t67 71.5v73q-51 22 -135 22q-65 0 -100.5 -25.5t-35.5 -70.5t31 -70.5t81 -25.5zM536 63h20q5 -17 5 -31q0 -16 -18.5 -27.5t-46.5 -11.5q-32 0 -54.5 23.5t-27.5 63.5q-27 -43 -74 -67.5t-106 -24.5q-82 0 -131 46q-50 47 -50 121q0 81 56.5 127.5
t155.5 46.5q85 0 146 -31v44q0 129 -158 129q-81 0 -143 -32q-12 13 -12 38q0 24 52 46q54 23 124 23q106 0 165 -53.5t59 -154.5v-220q0 -55 38 -55zM164 697h243q19 0 19 -25v-39h-250q-18 0 -18 23q0 18 6 41z" />
    <glyph glyph-name="Abreve" unicode="&#x102;" horiz-adv-x="671" 
d="M180 182l-65 -182h-62q-27 0 -27 19q0 2 2 10l248 660q39 17 80 17q19 0 27.5 -6.5t15.5 -23.5l254 -676h-69q-28 0 -36 20l-58 162h-310zM207 259h256l-128 355zM193 895q25 15 50 15q20 0 25 -20q12 -65 67 -65q63 0 72 85h44q30 0 27 -20q-9 -56 -45.5 -90t-97.5 -34
q-57 0 -95 34t-47 95z" />
    <glyph glyph-name="abreve" unicode="&#x103;" horiz-adv-x="593" 
d="M252 62q49 0 92 25.5t67 71.5v73q-51 22 -135 22q-65 0 -100.5 -25.5t-35.5 -70.5t31 -70.5t81 -25.5zM536 63h20q5 -17 5 -31q0 -16 -18.5 -27.5t-46.5 -11.5q-32 0 -54.5 23.5t-27.5 63.5q-27 -43 -74 -67.5t-106 -24.5q-82 0 -131 46q-50 47 -50 121q0 81 56.5 127.5
t155.5 46.5q85 0 146 -31v44q0 129 -158 129q-81 0 -143 -32q-12 13 -12 38q0 24 52 46q54 23 124 23q106 0 165 -53.5t59 -154.5v-220q0 -55 38 -55zM150 720q25 15 50 15q20 0 25 -20q12 -65 67 -65q63 0 72 85h44q30 0 27 -20q-9 -56 -45.5 -90t-97.5 -34q-57 0 -95 34
t-47 95z" />
    <glyph glyph-name="Aogonek" unicode="&#x104;" horiz-adv-x="671" 
d="M667 -153q24 11 24 -17v-35q-29 -15 -70 -15q-55 0 -85 27t-30 71q0 33 19.5 67t52.5 55q-24 2 -30 20l-58 162h-310l-65 -182h-62q-27 0 -27 19q0 2 2 10l248 660q39 17 80 17q19 0 27.5 -6.5t15.5 -23.5l254 -676q-73 -51 -73 -113q0 -21 14 -33.5t40 -12.5q20 0 33 6z
M207 259h256l-128 355z" />
    <glyph glyph-name="aogonek" unicode="&#x105;" horiz-adv-x="593" 
d="M537 -153q24 11 24 -17v-35q-29 -15 -70 -15q-55 0 -85 27t-30 71q0 71 77 127q-33 23 -39 75q-27 -43 -74 -67.5t-106 -24.5q-82 0 -131 46q-50 47 -50 121q0 81 56.5 127.5t155.5 46.5q85 0 146 -31v44q0 129 -158 129q-81 0 -143 -32q-12 13 -12 38q0 24 52 46
q54 23 124 23q106 0 165 -53.5t59 -154.5v-220q0 -55 38 -55h20q5 -17 5 -31q0 -12 -12.5 -22.5t-32.5 -14.5q-66 -49 -66 -108q0 -21 14 -33.5t40 -12.5q20 0 33 6zM252 62q49 0 92 25.5t67 71.5v73q-51 22 -135 22q-65 0 -100.5 -25.5t-35.5 -70.5t31 -70.5t81 -25.5z" />
    <glyph glyph-name="Cacute" unicode="&#x106;" horiz-adv-x="687" 
d="M638 565q5 -12 5 -17q0 -24 -27 -34q-20 -10 -51 -13q-25 63 -75.5 97.5t-119.5 34.5q-91 0 -155 -70q-65 -70 -65 -189q0 -143 83 -226q83 -82 213 -82q92 0 162 38q12 -20 12 -42q0 -24 -57 -49q-56 -25 -131 -25q-161 0 -268 104q-106 105 -106 279q0 157 92 249
t225 92q91 0 160.5 -39.5t102.5 -107.5zM469 872l-128 -105q-21 -16 -36 -1l-27 29l117 116q11 11 21 11q12 0 22 -9q18 -15 31 -41z" />
    <glyph glyph-name="cacute" unicode="&#x107;" horiz-adv-x="552" 
d="M509 439q5 -12 5 -18q0 -16 -16 -25q-21 -12 -59 -17q-30 92 -135 92q-70 0 -117 -51q-46 -50 -46 -135q0 -104 63 -164q65 -59 151 -59q71 0 132 31q12 -17 12 -38q0 -22 -47 -45q-45 -22 -111 -22q-116 0 -202 80t-86 215q0 121 72 191q72 72 183 72q70 0 123.5 -29
t77.5 -78zM394 698l-128 -105q-21 -16 -36 -1l-27 29l117 116q11 11 21 11q11 0 22 -9q18 -15 31 -41z" />
    <glyph glyph-name="Ccircumflex" unicode="&#x108;" horiz-adv-x="687" 
d="M638 565q5 -12 5 -17q0 -24 -27 -34q-20 -10 -51 -13q-25 63 -75.5 97.5t-119.5 34.5q-91 0 -155 -70q-65 -70 -65 -189q0 -143 83 -226q83 -82 213 -82q92 0 162 38q12 -20 12 -42q0 -24 -57 -49q-56 -25 -131 -25q-161 0 -268 104q-106 105 -106 279q0 157 92 249
t225 92q91 0 160.5 -39.5t102.5 -107.5zM405 906l116 -111l-28 -30q-10 -10 -19 -10q-11 0 -25 14l-82 82l-96 -96q-48 18 -48 42q0 7 6 13l114 110h27q21 0 35 -14z" />
    <glyph glyph-name="ccircumflex" unicode="&#x109;" horiz-adv-x="552" 
d="M509 439q5 -12 5 -18q0 -16 -16 -25q-21 -12 -59 -17q-30 92 -135 92q-70 0 -117 -51q-46 -50 -46 -135q0 -104 63 -164q65 -59 151 -59q71 0 132 31q12 -17 12 -38q0 -22 -47 -45q-45 -22 -111 -22q-116 0 -202 80t-86 215q0 121 72 191q72 72 183 72q70 0 123.5 -29
t77.5 -78zM329 732l116 -111l-28 -30q-10 -10 -19 -10q-11 0 -25 14l-82 82l-96 -96q-48 18 -48 42q0 7 6 13l114 110h27q21 0 35 -14z" />
    <glyph glyph-name="Cdotaccent" unicode="&#x10a;" horiz-adv-x="687" 
d="M638 565q5 -12 5 -17q0 -24 -27 -34q-20 -10 -51 -13q-25 63 -75.5 97.5t-119.5 34.5q-91 0 -155 -70q-65 -70 -65 -189q0 -143 83 -226q83 -82 213 -82q92 0 162 38q12 -20 12 -42q0 -24 -57 -49q-56 -25 -131 -25q-161 0 -268 104q-106 105 -106 279q0 157 92 249
t225 92q91 0 160.5 -39.5t102.5 -107.5zM418 837q0 -23 -14 -37t-35 -14q-22 0 -37.5 15.5t-15.5 39.5q0 23 14 37t36 14t37 -15.5t15 -39.5z" />
    <glyph glyph-name="cdotaccent" unicode="&#x10b;" horiz-adv-x="552" 
d="M509 439q5 -12 5 -18q0 -16 -16 -25q-21 -12 -59 -17q-30 92 -135 92q-70 0 -117 -51q-46 -50 -46 -135q0 -104 63 -164q65 -59 151 -59q71 0 132 31q12 -17 12 -38q0 -22 -47 -45q-45 -22 -111 -22q-116 0 -202 80t-86 215q0 121 72 191q72 72 183 72q70 0 123.5 -29
t77.5 -78zM347 663q0 -23 -14 -37t-35 -14q-22 0 -37.5 15.5t-15.5 39.5q0 23 14 37t36 14t37 -15.5t15 -39.5z" />
    <glyph glyph-name="Ccaron" unicode="&#x10c;" horiz-adv-x="687" 
d="M638 565q5 -12 5 -17q0 -24 -27 -34q-20 -10 -51 -13q-25 63 -75.5 97.5t-119.5 34.5q-91 0 -155 -70q-65 -70 -65 -189q0 -143 83 -226q83 -82 213 -82q92 0 162 38q12 -20 12 -42q0 -24 -57 -49q-56 -25 -131 -25q-161 0 -268 104q-106 105 -106 279q0 157 92 249
t225 92q91 0 160.5 -39.5t102.5 -107.5zM343 767l-117 112q27 41 46 41q12 0 25 -13l83 -83l100 100l36 -33q7 -6 7 -13q0 -8 -9 -17l-109 -105q-44 -4 -62 11z" />
    <glyph glyph-name="ccaron" unicode="&#x10d;" horiz-adv-x="552" 
d="M509 439q5 -12 5 -18q0 -16 -16 -25q-21 -12 -59 -17q-30 92 -135 92q-70 0 -117 -51q-46 -50 -46 -135q0 -104 63 -164q65 -59 151 -59q71 0 132 31q12 -17 12 -38q0 -22 -47 -45q-45 -22 -111 -22q-116 0 -202 80t-86 215q0 121 72 191q72 72 183 72q70 0 123.5 -29
t77.5 -78zM260 593l-117 112q27 41 46 41q12 0 25 -13l83 -83l100 100l36 -33q7 -6 7 -13q0 -8 -9 -17l-109 -105q-44 -4 -62 11z" />
    <glyph glyph-name="Dcaron" unicode="&#x10e;" horiz-adv-x="722" 
d="M256 78h64q108 0 179 71t71 201t-71 201t-179 71h-135v-440q0 -59 15.5 -81.5t55.5 -22.5zM331 0h-86q-78 0 -114.5 41t-36.5 134v525h237q144 0 239 -95q94 -94 94 -255t-94 -255q-95 -95 -239 -95zM282 767l-117 112q27 41 46 41q12 0 25 -13l83 -83l100 100l36 -33
q7 -6 7 -13q0 -8 -9 -17l-109 -105q-44 -4 -62 11z" />
    <glyph glyph-name="dcaron" unicode="&#x10f;" horiz-adv-x="756" 
d="M468 493v237h59q28 0 28 -23v-589q0 -55 38 -55h20q5 -17 5 -31q0 -16 -18.5 -27.5t-46.5 -11.5q-35 0 -57.5 26t-26.5 73q-27 -48 -76.5 -76t-111.5 -28q-100 0 -164 70t-64 188q0 129 77 215q76 85 188 85q91 0 150 -53zM300 62q52 0 97 36t71 103v216q-57 54 -137 54
q-82 0 -136 -64q-54 -63 -54 -159q0 -87 43 -136.5t116 -49.5zM746 674q0 -72 -51 -134q-15 -20 -33 -31.5t-25 -8.5q-14 8 -17 24q48 45 56 100q-43 13 -43 59q-4 38 33 51q36 14 62 -11q19 -18 18 -49z" />
    <glyph glyph-name="Dcroat" unicode="&#x110;" horiz-adv-x="722" 
d="M331 0h-86q-82 0 -117 44t-35 151v126h-46q-21 0 -21 19q0 25 4 38h63v322h238q145 0 238 -95q94 -94 94 -255t-94 -255q-93 -95 -238 -95zM184 622v-244h180q22 0 22 -28v-29h-202v-139q0 -60 15.5 -82.5t56.5 -22.5h64q108 0 178 72q72 72 72 201q0 130 -72 200
q-71 72 -178 72h-136z" />
    <glyph glyph-name="dslash" unicode="&#x111;" horiz-adv-x="652" 
d="M468 493v112h-157q-21 0 -21 19q0 26 4 39h174v67h59q28 0 28 -23v-44h38q22 0 22 -28v-30h-60v-487q0 -55 38 -55h20q5 -17 5 -31q0 -16 -18.5 -27.5t-46.5 -11.5q-35 0 -57.5 26t-26.5 73q-27 -48 -76.5 -76t-111.5 -28q-100 0 -164 70t-64 188q0 129 77 215
q76 85 188 85q91 0 150 -53zM300 62q52 0 97 36t71 103v216q-57 54 -137 54q-82 0 -136 -64q-54 -63 -54 -159q0 -87 43 -136.5t116 -49.5z" />
    <glyph glyph-name="Emacron" unicode="&#x112;" horiz-adv-x="574" 
d="M517 49v-49h-272q-78 0 -115 41t-37 133v526h396q20 0 20 -26q0 -28 -6 -52h-319v-236h249q22 0 22 -28v-50h-271v-126q0 -57 16.5 -81t55.5 -24h239q22 0 22 -28zM169 872h243q19 0 19 -25v-39h-250q-18 0 -18 23q0 19 6 41z" />
    <glyph glyph-name="emacron" unicode="&#x113;" horiz-adv-x="575" 
d="M332 63q75 0 133 31q12 -15 12 -39q0 -23 -46 -45q-45 -22 -113 -22q-115 0 -190 78q-75 80 -75 201q0 126 76 202q77 77 186 77q94 0 153 -56t59 -140q0 -45 -15 -78q-10 -23 -25 -32t-44 -9h-300q8 -79 60 -123.5t129 -44.5zM311 471q-69 0 -115 -45.5t-53 -120.5h291
q8 19 8 41q0 57 -35 91t-96 34zM178 697h243q19 0 19 -25v-39h-250q-18 0 -18 23q0 18 6 41z" />
    <glyph glyph-name="Ebreve" unicode="&#x114;" horiz-adv-x="574" 
d="M517 49v-49h-272q-78 0 -115 41t-37 133v526h396q20 0 20 -26q0 -28 -6 -52h-319v-236h249q22 0 22 -28v-50h-271v-126q0 -57 16.5 -81t55.5 -24h239q22 0 22 -28zM155 895q25 15 50 15q20 0 25 -20q12 -65 67 -65q63 0 72 85h44q30 0 27 -20q-9 -56 -45.5 -90t-97.5 -34
q-57 0 -95 34t-47 95z" />
    <glyph glyph-name="ebreve" unicode="&#x115;" horiz-adv-x="575" 
d="M332 63q75 0 133 31q12 -15 12 -39q0 -23 -46 -45q-45 -22 -113 -22q-115 0 -190 78q-75 80 -75 201q0 126 76 202q77 77 186 77q94 0 153 -56t59 -140q0 -45 -15 -78q-10 -23 -25 -32t-44 -9h-300q8 -79 60 -123.5t129 -44.5zM311 471q-69 0 -115 -45.5t-53 -120.5h291
q8 19 8 41q0 57 -35 91t-96 34zM164 720q25 15 50 15q20 0 25 -20q12 -65 67 -65q63 0 72 85h44q30 0 27 -20q-9 -56 -45.5 -90t-97.5 -34q-57 0 -95 34t-47 95z" />
    <glyph glyph-name="Edotaccent" unicode="&#x116;" horiz-adv-x="574" 
d="M517 49v-49h-272q-78 0 -115 41t-37 133v526h396q20 0 20 -26q0 -28 -6 -52h-319v-236h249q22 0 22 -28v-50h-271v-126q0 -57 16.5 -81t55.5 -24h239q22 0 22 -28zM347 837q0 -23 -14 -37t-35 -14q-22 0 -37.5 15.5t-15.5 39.5q0 23 14 37t36 14t37 -15.5t15 -39.5z" />
    <glyph glyph-name="edotaccent" unicode="&#x117;" horiz-adv-x="575" 
d="M332 63q75 0 133 31q12 -15 12 -39q0 -23 -46 -45q-45 -22 -113 -22q-115 0 -190 78q-75 80 -75 201q0 126 76 202q77 77 186 77q94 0 153 -56t59 -140q0 -45 -15 -78q-10 -23 -25 -32t-44 -9h-300q8 -79 60 -123.5t129 -44.5zM311 471q-69 0 -115 -45.5t-53 -120.5h291
q8 19 8 41q0 57 -35 91t-96 34zM357 663q0 -23 -14 -37t-35 -14q-22 0 -37.5 15.5t-15.5 39.5q0 23 14 37t36 14t37 -15.5t15 -39.5z" />
    <glyph glyph-name="Eogonek" unicode="&#x118;" horiz-adv-x="574" 
d="M491 -153q24 11 24 -17v-35q-29 -15 -70 -15q-55 0 -85 27t-30 71q0 33 19.5 67t52.5 55h-157q-78 0 -115 41t-37 133v526h396q20 0 20 -26q0 -28 -6 -52h-319v-236h249q22 0 22 -28v-50h-271v-126q0 -57 16.5 -81t55.5 -24h239q22 0 22 -28v-49h-40q-73 -51 -73 -113
q0 -21 14 -33.5t40 -12.5q20 0 33 6z" />
    <glyph glyph-name="eogonek" unicode="&#x119;" horiz-adv-x="575" 
d="M407 -153q24 11 24 -17v-35q-29 -15 -70 -15q-55 0 -85 27t-30 71q0 61 56 111q-108 4 -179 82q-70 77 -70 196q0 126 76 202q77 77 186 77q94 0 153 -56t59 -140q0 -45 -15 -78q-10 -23 -25 -32t-44 -9h-300q8 -79 60 -123.5t129 -44.5q75 0 133 31q12 -15 12 -39
q0 -16 -25.5 -33t-65.5 -26q-66 -50 -66 -109q0 -21 14 -33.5t40 -12.5q20 0 33 6zM311 471q-69 0 -115 -45.5t-53 -120.5h291q8 19 8 41q0 57 -35 91t-96 34z" />
    <glyph glyph-name="Ecaron" unicode="&#x11a;" horiz-adv-x="574" 
d="M517 49v-49h-272q-78 0 -115 41t-37 133v526h396q20 0 20 -26q0 -28 -6 -52h-319v-236h249q22 0 22 -28v-50h-271v-126q0 -57 16.5 -81t55.5 -24h239q22 0 22 -28zM265 767l-117 112q27 41 46 41q12 0 25 -13l83 -83l100 100l36 -33q7 -6 7 -13q0 -8 -9 -17l-109 -105
q-44 -4 -62 11z" />
    <glyph glyph-name="ecaron" unicode="&#x11b;" horiz-adv-x="575" 
d="M332 63q75 0 133 31q12 -15 12 -39q0 -23 -46 -45q-45 -22 -113 -22q-115 0 -190 78q-75 80 -75 201q0 126 76 202q77 77 186 77q94 0 153 -56t59 -140q0 -45 -15 -78q-10 -23 -25 -32t-44 -9h-300q8 -79 60 -123.5t129 -44.5zM311 471q-69 0 -115 -45.5t-53 -120.5h291
q8 19 8 41q0 57 -35 91t-96 34zM270 593l-117 112q27 41 46 41q12 0 25 -13l83 -83l100 100l36 -33q7 -6 7 -13q0 -8 -9 -17l-109 -105q-44 -4 -62 11z" />
    <glyph glyph-name="Gcircumflex" unicode="&#x11c;" horiz-adv-x="749" 
d="M579 508q-24 60 -75 92.5t-120 32.5q-99 0 -166 -70q-68 -71 -68 -189q0 -141 82 -224q82 -84 200 -84q71 0 108.5 24t37.5 67v118h-142q-21 0 -21 25q0 28 7 52h224q23 0 23 -28v-166q0 -78 -64.5 -124t-174.5 -46q-160 0 -266 106t-106 277q0 157 93 248q95 93 232 93
q90 0 161 -37.5t108 -102.5q5 -12 5 -17q0 -23 -27 -34q-20 -10 -51 -13zM410 906l116 -111l-28 -30q-10 -10 -19 -10q-11 0 -25 14l-82 82l-96 -96q-48 18 -48 42q0 7 6 13l114 110h27q21 0 35 -14z" />
    <glyph glyph-name="gcircumflex" unicode="&#x11d;" horiz-adv-x="640" 
d="M468 493v41h59q28 0 28 -23v-501q0 -106 -78 -182q-77 -76 -214 -76q-86 0 -138.5 38t-52.5 98q0 80 93 130l4 -2q-55 30 -85.5 90t-30.5 140q0 129 77 215q76 85 188 85q91 0 150 -53zM300 62q52 0 97 36t71 103v216q-57 54 -137 54q-82 0 -136 -64q-54 -63 -54 -159
q0 -87 43 -136.5t116 -49.5zM265 -174q85 0 144 50t59 131v83q-27 -47 -77 -74.5t-110 -27.5q-29 0 -63 8q-59 -41 -59 -98q0 -33 28 -52.5t78 -19.5zM369 732l116 -111l-28 -30q-10 -10 -19 -10q-11 0 -25 14l-82 82l-96 -96q-48 18 -48 42q0 7 6 13l114 110h27
q21 0 35 -14z" />
    <glyph glyph-name="Gbreve" unicode="&#x11e;" horiz-adv-x="749" 
d="M579 508q-24 60 -75 92.5t-120 32.5q-99 0 -166 -70q-68 -71 -68 -189q0 -141 82 -224q82 -84 200 -84q71 0 108.5 24t37.5 67v118h-142q-21 0 -21 25q0 28 7 52h224q23 0 23 -28v-166q0 -78 -64.5 -124t-174.5 -46q-160 0 -266 106t-106 277q0 157 93 248q95 93 232 93
q90 0 161 -37.5t108 -102.5q5 -12 5 -17q0 -23 -27 -34q-20 -10 -51 -13zM230 895q26 15 50 15q20 0 25 -20q12 -65 67 -65q63 0 72 85h44q30 0 27 -20q-9 -56 -45.5 -90t-97.5 -34q-57 0 -95 34t-47 95z" />
    <glyph glyph-name="gbreve" unicode="&#x11f;" horiz-adv-x="640" 
d="M468 493v41h59q28 0 28 -23v-501q0 -106 -78 -182q-77 -76 -214 -76q-86 0 -138.5 38t-52.5 98q0 80 93 130l4 -2q-55 30 -85.5 90t-30.5 140q0 129 77 215q76 85 188 85q91 0 150 -53zM300 62q52 0 97 36t71 103v216q-57 54 -137 54q-82 0 -136 -64q-54 -63 -54 -159
q0 -87 43 -136.5t116 -49.5zM265 -174q85 0 144 50t59 131v83q-27 -47 -77 -74.5t-110 -27.5q-29 0 -63 8q-59 -41 -59 -98q0 -33 28 -52.5t78 -19.5zM189 720q25 15 50 15q20 0 25 -20q12 -65 67 -65q63 0 72 85h44q30 0 27 -20q-9 -56 -45.5 -90t-97.5 -34q-57 0 -95 34
t-47 95z" />
    <glyph glyph-name="Gdotaccent" unicode="&#x120;" horiz-adv-x="749" 
d="M579 508q-24 60 -75 92.5t-120 32.5q-99 0 -166 -70q-68 -71 -68 -189q0 -141 82 -224q82 -84 200 -84q71 0 108.5 24t37.5 67v118h-142q-21 0 -21 25q0 28 7 52h224q23 0 23 -28v-166q0 -78 -64.5 -124t-174.5 -46q-160 0 -266 106t-106 277q0 157 93 248q95 93 232 93
q90 0 161 -37.5t108 -102.5q5 -12 5 -17q0 -23 -27 -34q-20 -10 -51 -13zM423 837q0 -23 -14 -37t-35 -14q-22 0 -37.5 15.5t-15.5 39.5q0 23 14 37t36 14t37 -15.5t15 -39.5z" />
    <glyph glyph-name="gdotaccent" unicode="&#x121;" horiz-adv-x="640" 
d="M468 493v41h59q28 0 28 -23v-501q0 -106 -78 -182q-77 -76 -214 -76q-86 0 -138.5 38t-52.5 98q0 80 93 130l4 -2q-55 30 -85.5 90t-30.5 140q0 129 77 215q76 85 188 85q91 0 150 -53zM300 62q52 0 97 36t71 103v216q-57 54 -137 54q-82 0 -136 -64q-54 -63 -54 -159
q0 -87 43 -136.5t116 -49.5zM265 -174q85 0 144 50t59 131v83q-27 -47 -77 -74.5t-110 -27.5q-29 0 -63 8q-59 -41 -59 -98q0 -33 28 -52.5t78 -19.5zM382 663q0 -23 -14 -37t-35 -14q-22 0 -37.5 15.5t-15.5 39.5q0 23 14 37t36 14t37 -15.5t15 -39.5z" />
    <glyph glyph-name="Gcommaaccent" unicode="&#x122;" horiz-adv-x="749" 
d="M579 508q-24 60 -75 92.5t-120 32.5q-99 0 -166 -70q-68 -71 -68 -189q0 -141 82 -224q82 -84 200 -84q71 0 108.5 24t37.5 67v118h-142q-21 0 -21 25q0 28 7 52h224q23 0 23 -28v-166q0 -78 -64.5 -124t-174.5 -46q-160 0 -266 106t-106 277q0 157 93 248q95 93 232 93
q90 0 161 -37.5t108 -102.5q5 -12 5 -17q0 -23 -27 -34q-20 -10 -51 -13zM413 -39q24 0 39.5 -15t15.5 -41q0 -62 -40 -111q-17 -20 -34.5 -32.5t-23.5 -9.5q-13 4 -18 23q41 38 48 80q-39 11 -39 54q0 23 15 37.5t37 14.5z" />
    <glyph glyph-name="gcommaaccent" unicode="&#x123;" horiz-adv-x="640" 
d="M468 493v41h59q28 0 28 -23v-501q0 -106 -78 -182q-77 -76 -214 -76q-86 0 -138.5 38t-52.5 98q0 80 93 130l4 -2q-55 30 -85.5 90t-30.5 140q0 129 77 215q76 85 188 85q91 0 150 -53zM300 62q52 0 97 36t71 103v216q-57 54 -137 54q-82 0 -136 -64q-54 -63 -54 -159
q0 -87 43 -136.5t116 -49.5zM265 -174q85 0 144 50t59 131v83q-27 -47 -77 -74.5t-110 -27.5q-29 0 -63 8q-59 -41 -59 -98q0 -33 28 -52.5t78 -19.5zM332 576q-24 0 -39.5 15t-15.5 41q0 62 40 111q17 20 34.5 32.5t23.5 9.5q13 -4 18 -23q-41 -38 -48 -80q39 -10 39 -54
q0 -23 -15 -37.5t-37 -14.5z" />
    <glyph glyph-name="Hcircumflex" unicode="&#x124;" horiz-adv-x="722" 
d="M186 312v-312h-63q-28 0 -28 22v674q30 10 64 10q27 0 27 -21v-296h349v311h63q28 0 28 -23v-677h-63q-28 0 -28 22v290h-349zM398 906l116 -111l-28 -30q-10 -10 -19 -10q-11 0 -25 14l-82 82l-96 -96q-48 18 -48 42q0 7 6 13l114 110h27q21 0 35 -14z" />
    <glyph glyph-name="hcircumflex" unicode="&#x125;" horiz-adv-x="641" 
d="M172 407v-407h-59q-28 0 -28 22v685q30 9 60 9q27 0 27 -21v-219q76 70 182 70q92 0 141 -60t49 -171v-199q0 -53 35 -53h22q5 -12 5 -31q0 -16 -18 -27.5t-45 -11.5q-86 0 -86 116v212q0 150 -126 150q-92 0 -159 -64zM249 906l116 -111l-28 -30q-10 -10 -19 -10
q-11 0 -25 14l-82 82l-96 -96q-48 18 -48 42q0 7 6 13l114 110h27q21 0 35 -14z" />
    <glyph glyph-name="Hbar" unicode="&#x126;" horiz-adv-x="722" 
d="M186 312v-312h-63q-28 0 -28 22v493h-48q-21 0 -21 19q0 25 4 38h65v124q30 10 64 10q27 0 27 -21v-113h349v128h63q28 0 28 -23v-105h47q22 0 22 -28v-29h-69v-515h-63q-28 0 -28 22v290h-349zM535 515h-349v-126h349v126z" />
    <glyph glyph-name="hbar" unicode="&#x127;" horiz-adv-x="641" 
d="M350 635v-30h-178v-129q76 70 182 70q92 0 141 -60t49 -171v-199q0 -53 35 -53h22q5 -12 5 -31q0 -16 -18 -27.5t-45 -11.5q-86 0 -86 116v212q0 150 -126 150q-92 0 -159 -64v-407h-59q-28 0 -28 22v583h-40q-21 0 -21 19q0 26 4 39h57v64q30 9 60 9q27 0 27 -21v-52
h155q23 0 23 -28z" />
    <glyph glyph-name="Itilde" unicode="&#x128;" horiz-adv-x="293" 
d="M192 685v-685h-63q-28 0 -28 22v674q30 10 63 10q28 0 28 -21zM9 838q20 59 77 59q36 0 68 -27q26 -22 42 -22q26 0 33 51l45 -12q22 -6 17 -29q-17 -77 -83 -77q-36 0 -67 27q-26 22 -42 22q-13 0 -20.5 -10.5t-12.5 -37.5q-27 0 -46 8q-26 11 -11 48z" />
    <glyph glyph-name="itilde" unicode="&#x129;" horiz-adv-x="270" 
d="M85 109v422q30 9 60 9q27 0 27 -21v-403q0 -53 35 -53h22q5 -12 5 -31q0 -16 -18 -27.5t-45 -11.5q-86 0 -86 116zM-10 663q20 59 77 59q37 0 68 -27q26 -22 42 -22q26 0 33 51l45 -12q22 -6 17 -29q-17 -77 -83 -77q-35 0 -67 27q-26 22 -42 22q-13 0 -20.5 -10.5
t-12.5 -37.5q-27 0 -46 8q-26 11 -11 48z" />
    <glyph glyph-name="Imacron" unicode="&#x12a;" horiz-adv-x="293" 
d="M192 685v-685h-63q-28 0 -28 22v674q30 10 63 10q28 0 28 -21zM19 872h243q19 0 19 -25v-39h-250q-18 0 -18 23q0 19 6 41z" />
    <glyph glyph-name="imacron" unicode="&#x12b;" horiz-adv-x="270" 
d="M85 109v422q30 9 60 9q27 0 27 -21v-403q0 -53 35 -53h22q5 -12 5 -31q0 -16 -18 -27.5t-45 -11.5q-86 0 -86 116zM1 697h243q19 0 19 -25v-39h-250q-18 0 -18 23q0 18 6 41z" />
    <glyph glyph-name="Ibreve" unicode="&#x12c;" horiz-adv-x="293" 
d="M192 685v-685h-63q-28 0 -28 22v674q30 10 63 10q28 0 28 -21zM5 895q25 15 50 15q20 0 25 -20q12 -65 67 -65q63 0 72 85h44q30 0 27 -20q-9 -56 -45.5 -90t-97.5 -34q-57 0 -95 34t-47 95z" />
    <glyph glyph-name="ibreve" unicode="&#x12d;" horiz-adv-x="270" 
d="M85 109v422q30 9 60 9q27 0 27 -21v-403q0 -53 35 -53h22q5 -12 5 -31q0 -16 -18 -27.5t-45 -11.5q-86 0 -86 116zM-13 720q26 15 50 15q20 0 25 -20q12 -65 67 -65q63 0 72 85h44q30 0 27 -20q-9 -56 -45.5 -90t-97.5 -34q-57 0 -95 34t-47 95z" />
    <glyph glyph-name="Iogonek" unicode="&#x12e;" horiz-adv-x="293" 
d="M192 685v-685q-73 -51 -73 -113q0 -21 14 -33.5t40 -12.5q19 0 33 6q24 11 24 -17v-35q-28 -15 -70 -15q-55 0 -85 27t-30 71q0 33 20 67t53 56q-17 2 -17 21v674q30 10 63 10q28 0 28 -21z" />
    <glyph glyph-name="iogonek" unicode="&#x12f;" horiz-adv-x="270" 
d="M220 -153q24 11 24 -17v-35q-29 -15 -70 -15q-55 0 -85 27t-30 71q0 33 20 66.5t53 56.5q-47 23 -47 108v422q30 9 60 9q27 0 27 -21v-403q0 -53 35 -53h22q5 -12 5 -31q0 -22 -30 -33q-71 -50 -71 -112q0 -21 14 -33.5t40 -12.5q19 0 33 6zM128 628q-22 0 -38 16t-16 40
t14.5 38.5t36.5 14.5q24 0 39 -15.5t15 -41.5q0 -24 -14 -38t-37 -14z" />
    <glyph glyph-name="Idot" unicode="&#x130;" horiz-adv-x="293" 
d="M192 685v-685h-63q-28 0 -28 22v674q30 10 63 10q28 0 28 -21zM198 837q0 -23 -14 -37t-35 -14q-22 0 -37.5 15.5t-15.5 39.5q0 23 14 37t36 14t37 -15.5t15 -39.5z" />
    <glyph glyph-name="dotlessi" unicode="&#x131;" horiz-adv-x="270" 
d="M85 109v422q30 9 60 9q27 0 27 -21v-403q0 -53 35 -53h22q5 -12 5 -31q0 -16 -18 -27.5t-45 -11.5q-86 0 -86 116z" />
    <glyph glyph-name="IJ" unicode="&#x132;" horiz-adv-x="680" 
d="M189 685v-685h-63q-28 0 -28 22v674q30 10 63 10q28 0 28 -21zM419 -12q-49 0 -89 18t-40 37t12 42q47 -18 97 -18q114 0 114 122v508q29 9 63 9q28 0 28 -21v-498q0 -96 -47.5 -147.5t-137.5 -51.5z" />
    <glyph glyph-name="ij" unicode="&#x133;" horiz-adv-x="526" 
d="M128 628q-22 0 -38 16t-16 40t14.5 38.5t36.5 14.5q24 0 39 -15.5t15 -41.5q0 -24 -14 -38t-37 -14zM85 109v422q30 9 60 9q27 0 27 -21v-403q0 -53 35 -53h22q5 -12 5 -31q0 -16 -18 -27.5t-45 -11.5q-86 0 -86 116zM386 -146q-49 -58 -85 -58q-10 0 -20 11t-14 24
q86 84 86 184v516q30 9 60 9q27 0 27 -21v-510q0 -91 -54 -155zM396 628q-22 0 -38 16t-16 40t14.5 38.5t36.5 14.5q24 0 39 -15.5t15 -41.5q0 -24 -14 -38t-37 -14z" />
    <glyph glyph-name="Jcircumflex" unicode="&#x134;" horiz-adv-x="422" 
d="M145 -12q-49 0 -89 18t-40 37t12 42q46 -18 97 -18q114 0 114 122v508q29 9 63 9q28 0 28 -21v-498q0 -96 -47.5 -147.5t-137.5 -51.5zM317 906l116 -111l-28 -30q-10 -10 -19 -10q-11 0 -25 14l-82 82l-96 -96q-48 18 -48 42q0 7 6 13l114 110h27q21 0 35 -14z" />
    <glyph glyph-name="jcircumflex" unicode="&#x135;" horiz-adv-x="273" 
d="M123 -146q-49 -58 -85 -58q-10 0 -20 11t-14 24q86 84 86 184v516q30 9 60 9q27 0 27 -21v-510q0 -91 -54 -155zM168 732l116 -111l-28 -30q-10 -10 -19 -10q-11 0 -25 14l-82 82l-96 -96q-48 18 -48 42q0 7 6 13l114 110h27q21 0 35 -14z" />
    <glyph glyph-name="Kcommaaccent" unicode="&#x136;" horiz-adv-x="660" 
d="M588 630q-80 -128 -224 -249q112 -205 203 -290q25 -25 53 -25h19q5 -18 5 -36q0 -16 -18.5 -29t-45.5 -13q-47 0 -90 46q-89 92 -194 295q-61 -47 -110 -76v-253h-63q-28 0 -28 22v674q30 10 64 10q27 0 27 -21v-331q93 64 183 154q89 89 161 198q37 -12 51.5 -23
t14.5 -27q0 -13 -8 -26zM340 -39q24 0 39.5 -15t15.5 -41q0 -62 -40 -111q-17 -20 -34.5 -32.5t-23.5 -9.5q-13 4 -18 23q41 38 48 80q-39 11 -39 54q0 23 15 37.5t37 14.5z" />
    <glyph glyph-name="kcommaaccent" unicode="&#x137;" horiz-adv-x="579" 
d="M172 193v-193h-59q-28 0 -28 22v705q30 9 60 9q27 0 27 -21v-436q83 50 154 116q76 69 129 145q33 -12 46 -23t13 -26q0 -31 -59 -90q-57 -57 -134 -114q77 -119 156 -195q31 -29 50 -29h20q5 -17 5 -31q0 -15 -18.5 -27t-43.5 -12q-35 0 -73 35q-85 77 -163 214
q-39 -25 -82 -49zM295 -39q24 0 39.5 -15t15.5 -41q0 -62 -40 -111q-17 -20 -34.5 -32.5t-23.5 -9.5q-13 4 -18 23q41 38 48 80q-39 11 -39 54q0 23 15 37.5t37 14.5z" />
    <glyph glyph-name="kgreenlandic" unicode="&#x138;" horiz-adv-x="579" 
d="M172 193v-193h-59q-28 0 -28 22v509q30 9 60 9q27 0 27 -21v-240q83 50 154 116q76 69 129 145q33 -12 46 -23t13 -26q0 -31 -59 -90q-57 -57 -134 -114q77 -119 156 -195q31 -29 50 -29h20q5 -17 5 -31q0 -15 -18.5 -27t-43.5 -12q-35 0 -73 35q-85 77 -163 214
q-39 -25 -82 -49z" />
    <glyph glyph-name="Lacute" unicode="&#x139;" horiz-adv-x="546" 
d="M519 49v-49h-274q-78 0 -115 41t-37 133v522q30 10 64 10q27 0 27 -21v-503q0 -57 16.5 -81t55.5 -24h241q22 0 22 -28zM272 872l-128 -105q-21 -16 -36 -1l-27 29l117 116q11 11 21 11q11 0 22 -9q18 -15 31 -41z" />
    <glyph glyph-name="lacute" unicode="&#x13a;" horiz-adv-x="313" 
d="M302 40q0 -17 -27 -32t-65 -15q-61 0 -93 38.5t-32 110.5v566q34 8 60 8q27 0 27 -21v-556q0 -75 61 -75q31 0 58 11q11 -17 11 -35zM260 872l-128 -105q-21 -16 -36 -1l-27 29l117 116q11 11 21 11q11 0 22 -9q18 -15 31 -41z" />
    <glyph glyph-name="Lcommaaccent" unicode="&#x13b;" horiz-adv-x="546" 
d="M519 49v-49h-274q-78 0 -115 41t-37 133v522q30 10 64 10q27 0 27 -21v-503q0 -57 16.5 -81t55.5 -24h241q22 0 22 -28zM330 -39q24 0 39.5 -15t15.5 -41q0 -62 -40 -111q-17 -20 -34.5 -32.5t-23.5 -9.5q-13 4 -18 23q41 38 48 80q-39 11 -39 54q0 23 15 37.5t37 14.5z
" />
    <glyph glyph-name="lcommaaccent" unicode="&#x13c;" horiz-adv-x="313" 
d="M302 40q0 -17 -27 -32t-65 -15q-61 0 -93 38.5t-32 110.5v586q34 8 60 8q27 0 27 -21v-576q0 -75 61 -75q31 0 58 11q11 -17 11 -35zM198 -39q24 0 39.5 -15t15.5 -41q0 -62 -40 -111q-17 -20 -34.5 -32.5t-23.5 -9.5q-13 4 -18 23q41 38 48 80q-39 11 -39 54
q0 23 15 37.5t37 14.5z" />
    <glyph glyph-name="Lcaron" unicode="&#x13d;" horiz-adv-x="546" 
d="M519 49v-49h-274q-78 0 -115 41t-37 133v522q30 10 64 10q27 0 27 -21v-503q0 -57 16.5 -81t55.5 -24h241q22 0 22 -28zM376 674q0 -72 -51 -134q-15 -20 -33 -31.5t-25 -8.5q-14 8 -17 24q48 45 56 100q-43 13 -43 59q-4 38 33 51q36 14 62 -11q19 -18 18 -49z" />
    <glyph glyph-name="lcaron" unicode="&#x13e;" horiz-adv-x="373" 
d="M302 40q0 -17 -27 -32t-65 -15q-61 0 -93 38.5t-32 110.5v586q34 8 60 8q27 0 27 -21v-576q0 -75 61 -75q31 0 58 11q11 -17 11 -35zM363 674q0 -72 -51 -134q-15 -20 -33 -31.5t-25 -8.5q-14 8 -17 24q48 45 56 100q-43 13 -43 59q-4 38 33 51q36 14 62 -11
q19 -18 18 -49z" />
    <glyph glyph-name="Ldot" unicode="&#x13f;" horiz-adv-x="546" 
d="M519 49v-49h-274q-78 0 -115 41t-37 133v522q30 10 64 10q27 0 27 -21v-503q0 -57 16.5 -81t55.5 -24h241q22 0 22 -28zM441 373q0 -23 -14 -37t-35 -14q-22 0 -37.5 15.5t-15.5 39.5q0 23 14 37t36 14t37 -15.5t15 -39.5z" />
    <glyph glyph-name="ldot" unicode="&#x140;" horiz-adv-x="390" 
d="M302 40q0 -17 -27 -32t-65 -15q-61 0 -93 38.5t-32 110.5v586q34 8 60 8q27 0 27 -21v-576q0 -75 61 -75q31 0 58 11q11 -17 11 -35zM378 377q0 -23 -14 -37t-35 -14q-22 0 -37.5 15.5t-15.5 39.5q0 23 14 37t36 14t37 -15.5t15 -39.5z" />
    <glyph glyph-name="Lslash" unicode="&#x141;" horiz-adv-x="546" 
d="M392 425l-208 -99v-144q0 -60 15.5 -82.5t56.5 -22.5h241q22 0 22 -28v-49h-261q-90 0 -127 39q-38 41 -38 148v96l-48 -23q-7 -4 -14 -4q-11 0 -19 18q-6 15 -9 31l90 43v348q30 10 64 10q27 0 27 -21v-294l166 79q7 4 14 4q12 0 19 -18q6 -15 9 -31z" />
    <glyph glyph-name="lslash" unicode="&#x142;" horiz-adv-x="313" 
d="M288 398l-116 -55v-204q0 -75 60 -75q32 0 59 11q11 -17 11 -35q0 -17 -27.5 -32t-65.5 -15q-65 0 -94.5 42t-29.5 129v137l-49 -23q-7 -4 -14 -4q-12 0 -19 18q-6 15 -9 31l91 43v361q30 9 60 9q27 0 27 -21v-307l74 35q7 4 14 4q12 0 19 -18q6 -15 9 -31z" />
    <glyph glyph-name="Nacute" unicode="&#x143;" horiz-adv-x="718" 
d="M528 9l-341 539v-548h-63q-28 0 -28 22v656q37 28 67 28q17 0 27 -15l341 -539v548h63q28 0 28 -22v-656q-37 -28 -67 -28q-17 0 -27 15zM469 872l-128 -105q-21 -16 -36 -1l-27 29l117 116q11 11 21 11q12 0 22 -9q18 -15 31 -41z" />
    <glyph glyph-name="nacute" unicode="&#x144;" horiz-adv-x="641" 
d="M172 407v-407h-59q-28 0 -28 22v509q30 9 60 9q27 0 27 -21v-43q76 70 182 70q92 0 141 -60t49 -171v-199q0 -53 35 -53h22q5 -12 5 -31q0 -16 -18 -27.5t-45 -11.5q-86 0 -86 116v212q0 150 -126 150q-92 0 -159 -64zM425 698l-128 -105q-21 -16 -36 -1l-27 29l117 116
q11 11 21 11q12 0 22 -9q18 -15 31 -41z" />
    <glyph glyph-name="Ncommaaccent" unicode="&#x145;" horiz-adv-x="718" 
d="M528 9l-341 539v-548h-63q-28 0 -28 22v656q37 28 67 28q17 0 27 -15l341 -539v548h63q28 0 28 -22v-656q-37 -28 -67 -28q-17 0 -27 15zM363 -39q24 0 39.5 -15t15.5 -41q0 -62 -40 -111q-17 -20 -34.5 -32.5t-23.5 -9.5q-13 4 -18 23q41 38 48 80q-39 11 -39 54
q0 23 15 37.5t37 14.5z" />
    <glyph glyph-name="ncommaaccent" unicode="&#x146;" horiz-adv-x="641" 
d="M172 407v-407h-59q-28 0 -28 22v509q30 9 60 9q27 0 27 -21v-43q76 70 182 70q92 0 141 -60t49 -171v-199q0 -53 35 -53h22q5 -12 5 -31q0 -16 -18 -27.5t-45 -11.5q-86 0 -86 116v212q0 150 -126 150q-92 0 -159 -64zM327 -39q24 0 39.5 -15t15.5 -41q0 -62 -40 -111
q-17 -20 -34.5 -32.5t-23.5 -9.5q-13 4 -18 23q41 38 48 80q-39 11 -39 54q0 23 15 37.5t37 14.5z" />
    <glyph glyph-name="Ncaron" unicode="&#x147;" horiz-adv-x="718" 
d="M528 9l-341 539v-548h-63q-28 0 -28 22v656q37 28 67 28q17 0 27 -15l341 -539v548h63q28 0 28 -22v-656q-37 -28 -67 -28q-17 0 -27 15zM325 767l-117 112q27 41 46 41q12 0 25 -13l83 -83l100 100l36 -33q7 -6 7 -13q0 -8 -9 -17l-109 -105q-44 -4 -62 11z" />
    <glyph glyph-name="ncaron" unicode="&#x148;" horiz-adv-x="641" 
d="M172 407v-407h-59q-28 0 -28 22v509q30 9 60 9q27 0 27 -21v-43q76 70 182 70q92 0 141 -60t49 -171v-199q0 -53 35 -53h22q5 -12 5 -31q0 -16 -18 -27.5t-45 -11.5q-86 0 -86 116v212q0 150 -126 150q-92 0 -159 -64zM281 593l-117 112q27 41 46 41q12 0 25 -13l83 -83
l100 100l36 -33q7 -6 7 -13q0 -8 -9 -17l-109 -105q-44 -4 -62 11z" />
    <glyph glyph-name="napostrophe" unicode="&#x149;" horiz-adv-x="679" 
d="M210 407v-407h-59q-28 0 -28 22v509q30 9 60 9q27 0 27 -21v-43q76 70 182 70q92 0 141 -60t49 -171v-199q0 -53 35 -53h22q5 -12 5 -31q0 -16 -18 -27.5t-45 -11.5q-86 0 -86 116v212q0 150 -126 150q-92 0 -159 -64zM128 674q0 -72 -51 -134q-15 -20 -33 -31.5
t-25 -8.5q-14 8 -17 24q48 45 56 100q-43 13 -43 59q-4 38 33 51q36 14 62 -11q19 -18 18 -49z" />
    <glyph glyph-name="Eng" unicode="&#x14a;" horiz-adv-x="718" 
d="M531 -15v19l-344 542v-546h-63q-28 0 -28 22v656q37 28 67 28q17 0 27 -15l341 -537v546h63q28 0 28 -22v-699q0 -90 -53 -155q-26 -31 -54 -46.5t-40 -9.5q-19 9 -26 34q82 79 82 183z" />
    <glyph glyph-name="eng" unicode="&#x14b;" horiz-adv-x="631" 
d="M544 315v-335q0 -90 -54 -155q-49 -58 -85 -58q-10 0 -20 11t-14 24q86 84 86 184v335q0 150 -126 150q-92 0 -159 -64v-407h-59q-28 0 -28 22v509q30 9 60 9q27 0 27 -21v-43q76 70 182 70q92 0 141 -60t49 -171z" />
    <glyph glyph-name="Omacron" unicode="&#x14c;" horiz-adv-x="773" 
d="M386 712q141 0 234 -95q94 -94 94 -267t-94 -267q-93 -95 -234 -95q-139 0 -234 95q-93 95 -93 267t93 267q95 95 234 95zM152 359q0 -137 69 -215q69 -77 172 -77q95 0 161 70q67 70 67 204q0 137 -69 214q-69 78 -172 78q-95 0 -162 -70q-66 -71 -66 -204zM257 872h243
q19 0 19 -25v-39h-250q-18 0 -18 23q0 19 6 41z" />
    <glyph glyph-name="omacron" unicode="&#x14d;" horiz-adv-x="628" 
d="M128 470q76 76 186 76t185 -76q76 -75 76 -203t-76 -204q-75 -75 -185 -75t-186 75q-75 77 -75 204q0 128 75 203zM319 63q71 0 119 50q48 51 48 148q0 99 -52 154q-51 56 -125 56q-71 0 -119 -51q-48 -50 -48 -147q0 -99 51 -155q52 -55 126 -55zM185 697h243
q19 0 19 -25v-39h-250q-18 0 -18 23q0 18 6 41z" />
    <glyph glyph-name="Obreve" unicode="&#x14e;" horiz-adv-x="773" 
d="M386 712q141 0 234 -95q94 -94 94 -267t-94 -267q-93 -95 -234 -95q-139 0 -234 95q-93 95 -93 267t93 267q95 95 234 95zM152 359q0 -137 69 -215q69 -77 172 -77q95 0 161 70q67 70 67 204q0 137 -69 214q-69 78 -172 78q-95 0 -162 -70q-66 -71 -66 -204zM243 895
q25 15 50 15q20 0 25 -20q12 -65 67 -65q63 0 72 85h44q30 0 27 -20q-9 -56 -45.5 -90t-97.5 -34q-57 0 -95 34t-47 95z" />
    <glyph glyph-name="obreve" unicode="&#x14f;" horiz-adv-x="628" 
d="M128 470q76 76 186 76t185 -76q76 -75 76 -203t-76 -204q-75 -75 -185 -75t-186 75q-75 77 -75 204q0 128 75 203zM319 63q71 0 119 50q48 51 48 148q0 99 -52 154q-51 56 -125 56q-71 0 -119 -51q-48 -50 -48 -147q0 -99 51 -155q52 -55 126 -55zM171 720q26 15 50 15
q20 0 25 -20q12 -65 67 -65q63 0 72 85h44q30 0 27 -20q-9 -56 -45.5 -90t-97.5 -34q-57 0 -95 34t-47 95z" />
    <glyph glyph-name="Ohungarumlaut" unicode="&#x150;" horiz-adv-x="773" 
d="M386 712q141 0 234 -95q94 -94 94 -267t-94 -267q-93 -95 -234 -95q-139 0 -234 95q-93 95 -93 267t93 267q95 95 234 95zM152 359q0 -137 69 -215q69 -77 172 -77q95 0 161 70q67 70 67 204q0 137 -69 214q-69 78 -172 78q-95 0 -162 -70q-66 -71 -66 -204zM410 872
l-128 -105q-21 -16 -36 -1l-27 29l117 116q11 11 21 11q11 0 22 -9q18 -15 31 -41zM572 872l-128 -105q-21 -16 -36 -1l-27 29l117 116q11 11 21 11q11 0 22 -9q18 -15 31 -41z" />
    <glyph glyph-name="ohungarumlaut" unicode="&#x151;" horiz-adv-x="628" 
d="M128 470q76 76 186 76t185 -76q76 -75 76 -203t-76 -204q-75 -75 -185 -75t-186 75q-75 77 -75 204q0 128 75 203zM319 63q71 0 119 50q48 51 48 148q0 99 -52 154q-51 56 -125 56q-71 0 -119 -51q-48 -50 -48 -147q0 -99 51 -155q52 -55 126 -55zM338 698l-128 -105
q-21 -16 -36 -1l-27 29l117 116q11 11 21 11q11 0 22 -9q18 -15 31 -41zM500 698l-128 -105q-21 -16 -36 -1l-27 29l117 116q11 11 21 11q11 0 22 -9q18 -15 31 -41z" />
    <glyph glyph-name="OE" unicode="&#x152;" horiz-adv-x="982" 
d="M925 49v-49h-274q-74 0 -110 36q-67 -48 -162 -48q-136 0 -229 95q-92 95 -92 267q0 167 92 265q91 97 222 97q78 0 128 -36v24h397q20 0 20 -26q0 -28 -6 -52h-320v-236h250q22 0 22 -28v-50h-272v-126q0 -57 16.5 -81t54.5 -24h241q22 0 22 -28zM509 96q-9 33 -9 78
v427q-53 32 -121 32q-94 0 -162 -71q-66 -70 -66 -204q0 -137 69 -215q69 -77 173 -77q69 0 116 30z" />
    <glyph glyph-name="oe" unicode="&#x153;" horiz-adv-x="1009" 
d="M897 93q13 -14 13 -38q0 -23 -46 -45q-45 -22 -113 -22q-73 0 -131.5 34t-88.5 96q-30 -62 -88 -96t-129 -34q-110 0 -186 75q-75 75 -75 204q0 128 75 203q76 76 186 76q69 0 128 -34.5t89 -95.5q30 60 88.5 95t128.5 35q94 0 153 -56t59 -140q0 -119 -84 -119h-301
q9 -79 60.5 -124t129.5 -45q74 0 132 31zM743 471q-67 0 -113.5 -46t-53.5 -121h290q9 20 9 42q0 57 -35.5 91t-96.5 34zM319 63q71 0 119 50q48 51 48 148q0 99 -52 154q-51 56 -125 56q-71 0 -119 -51q-48 -50 -48 -147q0 -99 51 -155q52 -55 126 -55z" />
    <glyph glyph-name="Racute" unicode="&#x154;" horiz-adv-x="653" 
d="M541 -12q-39 0 -76 31q-74 62 -147 197q-76 0 -132 17v-233h-63q-28 0 -28 22v678h205q126 0 200 -65t74 -177q0 -86 -44.5 -145t-121.5 -83q63 -100 122 -147q27 -21 52 -21h18q5 -18 5 -32q0 -16 -18.5 -29t-45.5 -13zM294 622h-108v-316q50 -12 108 -12q86 0 136 43
t50 121t-49.5 121t-136.5 43zM403 872l-128 -105q-21 -16 -36 -1l-27 29l117 116q11 11 21 11q12 0 22 -9q18 -15 31 -41z" />
    <glyph glyph-name="racute" unicode="&#x155;" horiz-adv-x="454" 
d="M419 525q24 -15 24 -31q0 -12 -9 -22q-14 -18 -35 -30q-38 29 -95 29q-99 0 -132 -119v-352h-59q-28 0 -28 22v509q30 9 60 9q27 0 27 -21v-64q52 91 156 91q56 0 91 -21zM355 698l-128 -105q-21 -16 -36 -1l-27 29l117 116q11 11 21 11q12 0 22 -9q18 -15 31 -41z" />
    <glyph glyph-name="Rcommaaccent" unicode="&#x156;" horiz-adv-x="653" 
d="M541 -12q-39 0 -76 31q-74 62 -147 197q-76 0 -132 17v-233h-63q-28 0 -28 22v678h205q126 0 200 -65t74 -177q0 -86 -44.5 -145t-121.5 -83q63 -100 122 -147q27 -21 52 -21h18q5 -18 5 -32q0 -16 -18.5 -29t-45.5 -13zM294 622h-108v-316q50 -12 108 -12q86 0 136 43
t50 121t-49.5 121t-136.5 43zM325 -39q24 0 39.5 -15t15.5 -41q0 -62 -40 -111q-17 -20 -34.5 -32.5t-23.5 -9.5q-13 4 -18 23q41 38 48 80q-39 11 -39 54q0 23 15 37.5t37 14.5z" />
    <glyph glyph-name="rcommaaccent" unicode="&#x157;" horiz-adv-x="454" 
d="M419 525q24 -15 24 -31q0 -12 -9 -22q-14 -18 -35 -30q-38 29 -95 29q-99 0 -132 -119v-352h-59q-28 0 -28 22v509q30 9 60 9q27 0 27 -21v-64q52 91 156 91q56 0 91 -21zM129 -39q24 0 39.5 -15t15.5 -41q0 -62 -40 -111q-17 -20 -34.5 -32.5t-23.5 -9.5q-13 4 -18 23
q41 38 48 80q-39 11 -39 54q0 23 15 37.5t37 14.5z" />
    <glyph glyph-name="Rcaron" unicode="&#x158;" horiz-adv-x="653" 
d="M541 -12q-39 0 -76 31q-74 62 -147 197q-76 0 -132 17v-233h-63q-28 0 -28 22v678h205q126 0 200 -65t74 -177q0 -86 -44.5 -145t-121.5 -83q63 -100 122 -147q27 -21 52 -21h18q5 -18 5 -32q0 -16 -18.5 -29t-45.5 -13zM294 622h-108v-316q50 -12 108 -12q86 0 136 43
t50 121t-49.5 121t-136.5 43zM272 767l-117 112q27 41 46 41q12 0 25 -13l83 -83l100 100l36 -33q7 -6 7 -13q0 -8 -9 -17l-109 -105q-44 -4 -62 11z" />
    <glyph glyph-name="rcaron" unicode="&#x159;" horiz-adv-x="454" 
d="M419 525q24 -15 24 -31q0 -12 -9 -22q-14 -18 -35 -30q-38 29 -95 29q-99 0 -132 -119v-352h-59q-28 0 -28 22v509q30 9 60 9q27 0 27 -21v-64q52 91 156 91q56 0 91 -21zM216 593l-117 112q27 41 46 41q12 0 25 -13l83 -83l100 100l36 -33q7 -6 7 -13q0 -8 -9 -17
l-109 -105q-44 -4 -62 11z" />
    <glyph glyph-name="Sacute" unicode="&#x15a;" horiz-adv-x="594" 
d="M291 712q77 0 138 -32t92 -87q17 -30 -12 -47q-30 -16 -61 -17q-44 104 -157 104q-60 0 -97.5 -30.5t-37.5 -80.5q0 -47 38.5 -78.5t131.5 -61.5q110 -36 159.5 -85t49.5 -121q0 -84 -66 -137q-65 -51 -175 -51q-84 0 -143 25q-60 25 -60 52q0 25 12 41q81 -40 180 -40
q77 0 118.5 28.5t41.5 77.5q0 47 -36 78t-117 53q-227 62 -227 217q0 86 63 138q64 54 165 54zM392 872l-128 -105q-21 -16 -36 -1l-27 29l117 116q11 11 21 11q12 0 22 -9q18 -15 31 -41z" />
    <glyph glyph-name="sacute" unicode="&#x15b;" horiz-adv-x="499" 
d="M366 393q-13 37 -44 57.5t-73 20.5q-44 0 -71.5 -22t-27.5 -56q0 -36 29.5 -58t99.5 -40q87 -22 126.5 -59.5t39.5 -97.5q0 -70 -51 -110t-143 -40q-67 0 -121 23q-52 24 -52 46q0 25 13 39q69 -34 149 -34q118 0 118 72q0 33 -24.5 52.5t-84.5 33.5q-96 22 -141 64
t-45 109q0 68 52 110q52 43 136 43q62 0 111 -24t72 -66q6 -12 6 -18q0 -13 -14 -24q-21 -16 -60 -21zM345 698l-128 -105q-21 -16 -36 -1l-27 29l117 116q11 11 21 11q12 0 22 -9q18 -15 31 -41z" />
    <glyph glyph-name="Scircumflex" unicode="&#x15c;" horiz-adv-x="594" 
d="M291 712q77 0 138 -32t92 -87q17 -30 -12 -47q-30 -16 -61 -17q-44 104 -157 104q-60 0 -97.5 -30.5t-37.5 -80.5q0 -47 38.5 -78.5t131.5 -61.5q110 -36 159.5 -85t49.5 -121q0 -84 -66 -137q-65 -51 -175 -51q-84 0 -143 25q-60 25 -60 52q0 25 12 41q81 -40 180 -40
q77 0 118.5 28.5t41.5 77.5q0 47 -36 78t-117 53q-227 62 -227 217q0 86 63 138q64 54 165 54zM324 906l116 -111l-28 -30q-10 -10 -19 -10q-11 0 -25 14l-82 82l-96 -96q-48 18 -48 42q0 7 6 13l114 110h27q21 0 35 -14z" />
    <glyph glyph-name="scircumflex" unicode="&#x15d;" horiz-adv-x="499" 
d="M366 393q-13 37 -44 57.5t-73 20.5q-44 0 -71.5 -22t-27.5 -56q0 -36 29.5 -58t99.5 -40q87 -22 126.5 -59.5t39.5 -97.5q0 -70 -51 -110t-143 -40q-67 0 -121 23q-52 24 -52 46q0 25 13 39q69 -34 149 -34q118 0 118 72q0 33 -24.5 52.5t-84.5 33.5q-96 22 -141 64
t-45 109q0 68 52 110q52 43 136 43q62 0 111 -24t72 -66q6 -12 6 -18q0 -13 -14 -24q-21 -16 -60 -21zM282 732l116 -111l-28 -30q-10 -10 -19 -10q-11 0 -25 14l-82 82l-96 -96q-48 18 -48 42q0 7 6 13l114 110h27q21 0 35 -14z" />
    <glyph glyph-name="Scedilla" unicode="&#x15e;" horiz-adv-x="594" 
d="M291 712q77 0 138 -32t92 -87q17 -30 -12 -47q-30 -16 -61 -17q-44 104 -157 104q-60 0 -97.5 -30.5t-37.5 -80.5q0 -47 38.5 -78.5t131.5 -61.5q110 -36 159.5 -85t49.5 -121q0 -68 -43.5 -115.5t-121.5 -64.5l-30 -55q42 -7 65.5 -29.5t23.5 -56.5q0 -43 -32 -68
t-86 -25q-43 0 -70 10v35q0 18 15 18q3 0 21 -3t25 -3q53 0 53 38q0 47 -87 53q-12 6 -12 12l2 6l31 60q-84 2 -140 26q-58 25 -58 51q0 25 12 41q81 -40 180 -40q77 0 118.5 28.5t41.5 77.5q0 47 -36 78t-117 53q-227 62 -227 217q0 86 63 138q64 54 165 54z" />
    <glyph glyph-name="scedilla" unicode="&#x15f;" horiz-adv-x="499" 
d="M366 393q-13 37 -44 57.5t-73 20.5q-44 0 -71.5 -22t-27.5 -56q0 -36 29.5 -58t99.5 -40q87 -22 126.5 -59.5t39.5 -97.5q0 -57 -34.5 -95t-99.5 -49l-29 -53q42 -7 65.5 -29.5t23.5 -56.5q0 -43 -32 -68t-86 -25q-43 0 -70 10v35q0 18 15 18q3 0 21 -3t25 -3q53 0 53 38
q0 47 -87 53q-12 6 -12 12l2 6l32 61q-65 5 -109 26q-45 23 -45 42q0 25 13 39q69 -34 149 -34q118 0 118 72q0 33 -24.5 52.5t-84.5 33.5q-96 22 -141 64t-45 109q0 68 52 110q52 43 136 43q62 0 111 -24t72 -66q6 -12 6 -18q0 -13 -14 -24q-21 -16 -60 -21z" />
    <glyph glyph-name="Scaron" unicode="&#x160;" horiz-adv-x="594" 
d="M291 712q77 0 138 -32t92 -87q17 -30 -12 -47q-30 -16 -61 -17q-44 104 -157 104q-60 0 -97.5 -30.5t-37.5 -80.5q0 -47 38.5 -78.5t131.5 -61.5q110 -36 159.5 -85t49.5 -121q0 -84 -66 -137q-65 -51 -175 -51q-84 0 -143 25q-60 25 -60 52q0 25 12 41q81 -40 180 -40
q77 0 118.5 28.5t41.5 77.5q0 47 -36 78t-117 53q-227 62 -227 217q0 86 63 138q64 54 165 54zM255 767l-117 112q27 41 46 41q12 0 25 -13l83 -83l100 100l36 -33q7 -6 7 -13q0 -8 -9 -17l-109 -105q-44 -4 -62 11z" />
    <glyph glyph-name="scaron" unicode="&#x161;" horiz-adv-x="499" 
d="M366 393q-13 37 -44 57.5t-73 20.5q-44 0 -71.5 -22t-27.5 -56q0 -36 29.5 -58t99.5 -40q87 -22 126.5 -59.5t39.5 -97.5q0 -70 -51 -110t-143 -40q-67 0 -121 23q-52 24 -52 46q0 25 13 39q69 -34 149 -34q118 0 118 72q0 33 -24.5 52.5t-84.5 33.5q-96 22 -141 64
t-45 109q0 68 52 110q52 43 136 43q62 0 111 -24t72 -66q6 -12 6 -18q0 -13 -14 -24q-21 -16 -60 -21zM213 593l-117 112q27 41 46 41q12 0 25 -13l83 -83l100 100l36 -33q7 -6 7 -13q0 -8 -9 -17l-109 -105q-44 -4 -62 11z" />
    <glyph glyph-name="Tcommaaccent" unicode="&#x162;" horiz-adv-x="611" 
d="M350 622v-622l-33 -59q42 -7 65.5 -29.5t23.5 -56.5q0 -43 -32 -68t-86 -25q-43 0 -70 10v35q0 18 15 18q3 0 21 -3t25 -3q53 0 53 38q0 47 -87 53q-12 6 -12 12l2 6l39 74q-15 2 -15 20v600h-196q-21 0 -21 26q0 25 7 52h496q23 0 23 -29v-49h-218z" />
    <glyph glyph-name="tcommaaccent" unicode="&#x163;" horiz-adv-x="453" 
d="M313 63q51 0 84 16q13 -14 13 -38q0 -19 -29.5 -34.5t-73.5 -18.5l-26 -47q42 -7 65.5 -29.5t23.5 -56.5q0 -43 -32 -68t-86 -25q-43 0 -70 10v35q0 18 15 18q3 0 21 -3t25 -3q53 0 53 38q0 47 -87 53q-12 6 -12 12l2 6l36 69q-51 16 -79 61t-28 113v289h-75
q-21 0 -21 26q0 27 6 48h90v151q34 8 60 8q27 0 27 -21v-138h170q22 0 22 -28v-46h-192v-295q0 -51 26 -76.5t72 -25.5z" />
    <glyph glyph-name="Tcaron" unicode="&#x164;" horiz-adv-x="611" 
d="M350 622v-622h-63q-28 0 -28 22v600h-196q-21 0 -21 26q0 25 7 52h496q23 0 23 -29v-49h-218zM268 767l-117 112q27 41 46 41q12 0 25 -13l83 -83l100 100l36 -33q7 -6 7 -13q0 -8 -9 -17l-109 -105q-44 -4 -62 11z" />
    <glyph glyph-name="tcaron" unicode="&#x165;" horiz-adv-x="575" 
d="M313 63q51 0 84 16q13 -14 13 -38q0 -20 -34 -36.5t-83 -16.5q-77 0 -121 47.5t-44 135.5v289h-75q-21 0 -21 26q0 27 6 48h90v151q34 8 60 8q27 0 27 -21v-138h170q22 0 22 -28v-46h-192v-295q0 -51 26 -76.5t72 -25.5zM565 674q0 -72 -51 -134q-15 -20 -33 -31.5
t-25 -8.5q-14 8 -17 24q48 45 56 100q-43 13 -43 59q-4 38 33 51q36 14 62 -11q19 -18 18 -49z" />
    <glyph glyph-name="Tbar" unicode="&#x166;" horiz-adv-x="611" 
d="M350 321v-321h-63q-28 0 -28 22v299h-104q-20 0 -20 19q0 26 4 39h120v243h-196q-21 0 -21 26q0 25 7 52h496q23 0 23 -29v-49h-218v-243h103q22 0 22 -28v-30h-125z" />
    <glyph glyph-name="tbar" unicode="&#x167;" horiz-adv-x="453" 
d="M313 63q51 0 84 16q13 -14 13 -38q0 -20 -34 -36.5t-83 -16.5q-77 0 -121 47.5t-44 135.5v70h-49q-20 0 -20 19q0 26 4 39h65v161h-75q-21 0 -21 26q0 27 6 48h90v151q34 8 60 8q27 0 27 -21v-138h170q22 0 22 -28v-46h-192v-161h127q22 0 22 -28v-30h-149v-76
q0 -51 26 -76.5t72 -25.5z" />
    <glyph glyph-name="Utilde" unicode="&#x168;" horiz-adv-x="719" 
d="M90 294v402q30 10 64 10q27 0 27 -21v-398q0 -100 48.5 -160.5t129.5 -60.5t129.5 60.5t48.5 160.5v413h63q28 0 28 -23v-383q0 -142 -72 -224t-197 -82t-197 82t-72 224zM220 838q20 59 77 59q37 0 68 -27q26 -22 42 -22q26 0 33 51l45 -12q22 -6 17 -29
q-17 -77 -83 -77q-35 0 -67 27q-26 22 -42 22q-13 0 -20.5 -10.5t-12.5 -37.5q-27 0 -46 8q-26 11 -11 48z" />
    <glyph glyph-name="utilde" unicode="&#x169;" horiz-adv-x="614" 
d="M537 511v-286q0 -110 -64 -174q-63 -63 -166 -63t-168 63q-63 65 -63 174v306q30 9 60 9q27 0 27 -21v-300q0 -70 41 -114q42 -43 103 -43q63 0 103 43t40 114v315h59q28 0 28 -23zM168 663q20 59 77 59q37 0 68 -27q26 -22 42 -22q26 0 33 51l45 -12q23 -6 17 -29
q-17 -77 -83 -77q-35 0 -67 27q-26 22 -42 22q-13 0 -20.5 -10.5t-12.5 -37.5q-27 0 -46 8q-26 11 -11 48z" />
    <glyph glyph-name="Umacron" unicode="&#x16a;" horiz-adv-x="719" 
d="M90 294v402q30 10 64 10q27 0 27 -21v-398q0 -100 48.5 -160.5t129.5 -60.5t129.5 60.5t48.5 160.5v413h63q28 0 28 -23v-383q0 -142 -72 -224t-197 -82t-197 82t-72 224zM230 872h243q19 0 19 -25v-39h-250q-18 0 -18 23q0 19 6 41z" />
    <glyph glyph-name="umacron" unicode="&#x16b;" horiz-adv-x="614" 
d="M537 511v-286q0 -110 -64 -174q-63 -63 -166 -63t-168 63q-63 65 -63 174v306q30 9 60 9q27 0 27 -21v-300q0 -70 41 -114q42 -43 103 -43q63 0 103 43t40 114v315h59q28 0 28 -23zM178 697h243q19 0 19 -25v-39h-250q-18 0 -18 23q0 18 6 41z" />
    <glyph glyph-name="Ubreve" unicode="&#x16c;" horiz-adv-x="719" 
d="M90 294v402q30 10 64 10q27 0 27 -21v-398q0 -100 48.5 -160.5t129.5 -60.5t129.5 60.5t48.5 160.5v413h63q28 0 28 -23v-383q0 -142 -72 -224t-197 -82t-197 82t-72 224zM216 895q26 15 50 15q20 0 25 -20q12 -65 67 -65q63 0 72 85h44q30 0 27 -20q-9 -56 -45.5 -90
t-97.5 -34q-57 0 -95 34t-47 95z" />
    <glyph glyph-name="ubreve" unicode="&#x16d;" horiz-adv-x="614" 
d="M537 511v-286q0 -110 -64 -174q-63 -63 -166 -63t-168 63q-63 65 -63 174v306q30 9 60 9q27 0 27 -21v-300q0 -70 41 -114q42 -43 103 -43q63 0 103 43t40 114v315h59q28 0 28 -23zM164 720q25 15 50 15q20 0 25 -20q12 -65 67 -65q63 0 72 85h44q30 0 27 -20
q-9 -56 -45.5 -90t-97.5 -34q-57 0 -95 34t-47 95z" />
    <glyph glyph-name="Uring" unicode="&#x16e;" horiz-adv-x="719" 
d="M90 294v402q30 10 64 10q27 0 27 -21v-398q0 -100 48.5 -160.5t129.5 -60.5t129.5 60.5t48.5 160.5v413h63q28 0 28 -23v-383q0 -142 -72 -224t-197 -82t-197 82t-72 224zM291 902q28 26 67 26q40 0 66 -26q27 -26 27 -63q0 -39 -27 -64q-25 -25 -66 -25t-67 25
q-26 26 -26 64q0 37 26 63zM361 795q17 0 28.5 11.5t11.5 30.5q0 21 -12.5 33.5t-32.5 12.5q-18 0 -29.5 -11.5t-11.5 -30.5q0 -21 13 -33.5t33 -12.5z" />
    <glyph glyph-name="uring" unicode="&#x16f;" horiz-adv-x="614" 
d="M537 511v-286q0 -110 -64 -174q-63 -63 -166 -63t-168 63q-63 65 -63 174v306q30 9 60 9q27 0 27 -21v-300q0 -70 41 -114q42 -43 103 -43q63 0 103 43t40 114v315h59q28 0 28 -23zM239 728q28 26 67 26q40 0 66 -26q27 -26 27 -63q0 -39 -27 -64q-25 -25 -66 -25t-67 25
q-26 26 -26 64q0 37 26 63zM309 621q17 0 28.5 11.5t11.5 30.5q0 21 -12.5 33.5t-32.5 12.5q-18 0 -29.5 -11.5t-11.5 -30.5q0 -21 13 -33.5t33 -12.5z" />
    <glyph glyph-name="Uhungarumlaut" unicode="&#x170;" horiz-adv-x="719" 
d="M90 294v402q30 10 64 10q27 0 27 -21v-398q0 -100 48.5 -160.5t129.5 -60.5t129.5 60.5t48.5 160.5v413h63q28 0 28 -23v-383q0 -142 -72 -224t-197 -82t-197 82t-72 224zM402 872l-128 -105q-21 -16 -36 -1l-27 29l117 116q11 11 21 11q11 0 22 -9q18 -15 31 -41z
M564 872l-128 -105q-21 -16 -36 -1l-27 29l117 116q11 11 21 11q11 0 22 -9q18 -15 31 -41z" />
    <glyph glyph-name="uhungarumlaut" unicode="&#x171;" horiz-adv-x="614" 
d="M537 511v-286q0 -110 -64 -174q-63 -63 -166 -63t-168 63q-63 65 -63 174v306q30 9 60 9q27 0 27 -21v-300q0 -70 41 -114q42 -43 103 -43q63 0 103 43t40 114v315h59q28 0 28 -23zM337 698l-128 -105q-21 -16 -36 -1l-27 29l117 116q11 11 21 11q12 0 22 -9
q18 -15 31 -41zM499 698l-128 -105q-21 -16 -36 -1l-27 29l117 116q11 11 21 11q12 0 22 -9q18 -15 31 -41z" />
    <glyph glyph-name="Uogonek" unicode="&#x172;" horiz-adv-x="719" 
d="M90 294v402q30 10 64 10q27 0 27 -21v-398q0 -100 48.5 -160.5t129.5 -60.5t129.5 60.5t48.5 160.5v413h63q28 0 28 -23v-383q0 -118 -50.5 -196t-142.5 -101q-69 -50 -69 -110q0 -21 14 -33.5t40 -12.5q20 0 33 6q24 11 24 -17v-35q-29 -15 -70 -15q-55 0 -85 27t-30 71
q0 63 56 110q-122 5 -190 86q-68 83 -68 220z" />
    <glyph glyph-name="uogonek" unicode="&#x173;" horiz-adv-x="614" 
d="M537 511v-286q0 -86 -40.5 -145.5t-112.5 -80.5q-71 -50 -71 -112q0 -21 14 -33.5t40 -12.5q19 0 33 6q24 11 24 -17v-35q-28 -15 -70 -15q-55 0 -85 27t-30 71q0 63 56 110q-100 4 -160 67q-59 64 -59 170v306q30 9 60 9q27 0 27 -21v-300q0 -70 41 -114q42 -43 103 -43
q63 0 103 43t40 114v315h59q28 0 28 -23z" />
    <glyph glyph-name="Wcircumflex" unicode="&#x174;" horiz-adv-x="1113" 
d="M1058 675q-64 -331 -213 -652q-11 -23 -41 -23h-79l-167 586q-65 -304 -186 -563q-11 -23 -41 -23h-75l-208 679q41 26 70 26q21 0 27 -18l170 -580q112 249 180 593h83q32 0 40 -24l164 -569q122 260 183 593h66q16 0 22.5 -6t4.5 -19zM595 906l116 -111l-28 -30
q-10 -10 -19 -10q-11 0 -25 14l-82 82l-96 -96q-48 18 -48 42q0 7 6 13l114 110h27q21 0 35 -14z" />
    <glyph glyph-name="wcircumflex" unicode="&#x175;" horiz-adv-x="874" 
d="M739 534h60q29 0 25 -25q-44 -260 -149 -489q-9 -20 -33 -20h-82l-120 429q-38 -211 -124 -411q-8 -18 -32 -18h-80l-159 513q40 28 69 28q16 0 21 -17l125 -436q82 184 124 446h75q28 0 35 -25l123 -421q85 193 122 446zM478 732l116 -111l-28 -30q-10 -10 -19 -10
q-11 0 -25 14l-82 82l-96 -96q-48 18 -48 42q0 7 6 13l114 110h27q21 0 35 -14z" />
    <glyph glyph-name="Ycircumflex" unicode="&#x176;" horiz-adv-x="662" 
d="M282 22v213l-244 430q39 40 68 40q15 0 24 -16l200 -366q134 183 203 377h65q15 0 22 -8t2 -19q-86 -230 -249 -434v-239h-63q-28 0 -28 22zM370 906l116 -111l-28 -30q-10 -10 -19 -10q-11 0 -25 14l-82 82l-96 -96q-48 18 -48 42q0 7 6 13l114 110h27q21 0 35 -14z" />
    <glyph glyph-name="ycircumflex" unicode="&#x177;" horiz-adv-x="627" 
d="M83 219v313q34 8 60 8q27 0 27 -21v-306q0 -150 126 -150q92 0 159 64v408h59q28 0 28 -22v-510q0 -108 -70 -179q-70 -72 -198 -72q-83 0 -134 37.5t-51 97.5q0 77 84 126q-90 53 -90 206zM455 58q-76 -70 -182 -70q-19 0 -44 4q-53 -38 -53 -95q0 -32 27 -52t73 -20
q81 0 130 46t49 123v64zM349 732l116 -111l-28 -30q-10 -10 -19 -10q-11 0 -25 14l-82 82l-96 -96q-48 18 -48 42q0 7 6 13l114 110h27q21 0 35 -14z" />
    <glyph glyph-name="Ydieresis" unicode="&#x178;" horiz-adv-x="661" 
d="M282 22v213l-244 430q39 40 68 40q15 0 24 -16l200 -366q134 183 203 377h65q15 0 22 -8t2 -19q-86 -230 -249 -434v-239h-63q-28 0 -28 22zM292 837q0 -23 -14 -37t-35 -14q-22 0 -37.5 15.5t-15.5 39.5q0 23 14 37t36 14t37 -15.5t15 -39.5zM470 837q0 -23 -14 -37
t-35 -14q-22 0 -37.5 15.5t-15.5 39.5q0 23 14 37t36 14t37 -15.5t15 -39.5z" />
    <glyph glyph-name="Zacute" unicode="&#x179;" horiz-adv-x="610" 
d="M82 700h417q23 0 33 -16q13 -20 17 -47l-376 -560h361q23 0 23 -28v-49h-449q-23 0 -33 16q-13 20 -17 47l376 559h-338q-21 0 -21 26q0 25 7 52zM420 872l-128 -105q-21 -16 -36 -1l-27 29l117 116q11 11 21 11q12 0 22 -9q18 -15 31 -41z" />
    <glyph glyph-name="zacute" unicode="&#x17a;" horiz-adv-x="505" 
d="M454 473l-290 -400h276q22 0 22 -28v-45h-361q-22 0 -31 14q-13 19 -17 47l289 399h-260q-21 0 -21 26t6 48h339q22 0 31 -14q13 -19 17 -47zM363 698l-128 -105q-21 -16 -36 -1l-27 29l117 116q11 11 21 11q12 0 22 -9q18 -15 31 -41z" />
    <glyph glyph-name="Zdotaccent" unicode="&#x17b;" horiz-adv-x="610" 
d="M82 700h417q23 0 33 -16q13 -20 17 -47l-376 -560h361q23 0 23 -28v-49h-449q-23 0 -33 16q-13 20 -17 47l376 559h-338q-21 0 -21 26q0 25 7 52zM352 837q0 -23 -14 -37t-35 -14q-22 0 -37.5 15.5t-15.5 39.5q0 23 14 37t36 14t37 -15.5t15 -39.5z" />
    <glyph glyph-name="zdotaccent" unicode="&#x17c;" horiz-adv-x="505" 
d="M454 473l-290 -400h276q22 0 22 -28v-45h-361q-22 0 -31 14q-13 19 -17 47l289 399h-260q-21 0 -21 26t6 48h339q22 0 31 -14q13 -19 17 -47zM300 663q0 -23 -14 -37t-35 -14q-22 0 -37.5 15.5t-15.5 39.5q0 23 14 37t36 14t37 -15.5t15 -39.5z" />
    <glyph glyph-name="Zcaron" unicode="&#x17d;" horiz-adv-x="610" 
d="M82 700h417q23 0 33 -16q13 -20 17 -47l-376 -560h361q23 0 23 -28v-49h-449q-23 0 -33 16q-13 20 -17 47l376 559h-338q-21 0 -21 26q0 25 7 52zM273 767l-117 112q27 41 46 41q12 0 25 -13l83 -83l100 100l36 -33q7 -6 7 -13q0 -8 -9 -17l-109 -105q-44 -4 -62 11z" />
    <glyph glyph-name="zcaron" unicode="&#x17e;" horiz-adv-x="505" 
d="M454 473l-290 -400h276q22 0 22 -28v-45h-361q-22 0 -31 14q-13 19 -17 47l289 399h-260q-21 0 -21 26t6 48h339q22 0 31 -14q13 -19 17 -47zM222 593l-117 112q27 41 46 41q12 0 25 -13l83 -83l100 100l36 -33q7 -6 7 -13q0 -8 -9 -17l-109 -105q-44 -4 -62 11z" />
    <glyph glyph-name="longs" unicode="&#x17f;" horiz-adv-x="428" 
d="M225 568v-568h-59q-28 0 -28 22v438h-86q-21 0 -21 26t6 48h101v30q0 86 42.5 132t119.5 46q46 0 85 -17q38 -17 38 -33q0 -24 -13 -40q-38 15 -90 15q-50 0 -72.5 -24t-22.5 -75z" />
    <glyph glyph-name="uni0191" unicode="&#x191;" horiz-adv-x="549" 
d="M95 -15v715h396q20 0 20 -26q0 -28 -6 -52h-319v-240h249q22 0 22 -28v-49h-271v-326q0 -90 -53 -155q-26 -31 -54 -46.5t-40 -9.5q-19 9 -26 34q82 79 82 183z" />
    <glyph glyph-name="florin" unicode="&#x192;" horiz-adv-x="428" 
d="M-59 -197q0 22 12 40q37 -15 89 -15q51 0 73.5 23t22.5 76v533h-86q-21 0 -21 26t6 48h101v30q0 85 43 131.5t119 46.5q46 0 85 -17q38 -17 38 -33q0 -24 -13 -40q-38 15 -90 15q-50 0 -72.5 -23t-22.5 -76v-34h159q23 0 23 -29v-45h-182v-529q0 -84 -44 -131t-119 -47
q-44 0 -83 17q-38 17 -38 33z" />
    <glyph glyph-name="Aringacute" unicode="&#x1fa;" horiz-adv-x="671" 
d="M428 751q0 -43 -32 -69l3 -6l254 -676h-69q-28 0 -36 20l-58 162h-310l-65 -182h-62q-27 0 -27 19q0 2 2 10l245 653q-31 25 -31 69q0 38 26.5 63.5t66.5 25.5t66.5 -25.5t26.5 -63.5zM207 259h256l-128 355zM415 938l-94 -76q-19 -14 -32 -1l-26 27l86 85q10 10 18 10
q9 0 20 -8q18 -15 28 -37zM337 706q17 0 29 12t12 30q0 21 -13 34t-32 13q-18 0 -29.5 -11.5t-11.5 -30.5q0 -21 13 -34t32 -13z" />
    <glyph glyph-name="aringacute" unicode="&#x1fb;" horiz-adv-x="593" 
d="M252 62q49 0 92 25.5t67 71.5v73q-51 22 -135 22q-65 0 -100.5 -25.5t-35.5 -70.5t31 -70.5t81 -25.5zM536 63h20q5 -17 5 -31q0 -16 -18.5 -27.5t-46.5 -11.5q-32 0 -54.5 23.5t-27.5 63.5q-27 -43 -74 -67.5t-106 -24.5q-82 0 -131 46q-50 47 -50 121q0 81 56.5 127.5
t155.5 46.5q85 0 146 -31v44q0 129 -158 129q-81 0 -143 -32q-12 13 -12 38q0 24 52 46q54 23 124 23q106 0 165 -53.5t59 -154.5v-220q0 -55 38 -55zM220 728q28 26 67 26q40 0 66 -26q27 -26 27 -63q0 -39 -27 -64q-25 -25 -66 -25t-67 25q-26 26 -26 64q0 37 26 63z
M289 620q17 0 29 12t12 30q0 21 -13 34t-32 13q-18 0 -29.5 -11.5t-11.5 -30.5q0 -21 13 -34t32 -13zM367 852l-94 -76q-19 -14 -32 -1l-26 27l86 85q10 10 18 10q9 0 20 -8q18 -15 28 -37z" />
    <glyph glyph-name="AEacute" unicode="&#x1fc;" horiz-adv-x="891" 
d="M436 700h370q21 0 21 -26q0 -25 -7 -52h-320v-236h251q22 0 22 -28v-50h-273v-126q0 -60 15.5 -82.5t56.5 -22.5h241q22 0 22 -28v-49h-274q-79 0 -115 42t-36 140h-215l-88 -182h-64q-28 0 -28 19q0 4 3 10l324 651q42 20 94 20zM232 259h178v364zM670 872l-128 -105
q-21 -16 -36 -1l-27 29l117 116q11 11 21 11q11 0 22 -9q18 -15 31 -41z" />
    <glyph glyph-name="aeacute" unicode="&#x1fd;" horiz-adv-x="932" 
d="M821 93q12 -13 12 -38q0 -23 -46 -45q-45 -22 -112 -22q-68 0 -125.5 30.5t-93.5 84.5q-69 -115 -207 -115q-92 0 -144 46t-52 121q0 81 57.5 127.5t154.5 46.5q84 0 146 -32v45q0 129 -158 129q-81 0 -143 -32q-12 13 -12 38q0 24 52 46q54 23 124 23q72 0 123.5 -27.5
t72.5 -77.5q30 48 84.5 76.5t117.5 28.5q94 0 153 -56t59 -140q0 -119 -84 -119h-301q8 -79 60 -124t130 -45q71 0 132 31zM252 62q52 0 95.5 29t64.5 83q0 43 -1 57q-52 23 -135 23q-65 0 -100.5 -26t-35.5 -71q0 -44 31 -69.5t81 -25.5zM667 471q-67 0 -113.5 -46
t-54.5 -121h291q8 18 8 42q0 57 -35 91t-96 34zM572 698l-128 -105q-21 -16 -36 -1l-27 29l117 116q11 11 21 11q11 0 22 -9q18 -15 31 -41z" />
    <glyph glyph-name="Oslashacute" unicode="&#x1fe;" horiz-adv-x="773" 
d="M62 350q0 172 93 267q95 95 234 95q131 0 220 -81l63 69h38q15 0 18.5 -7.5t-5.5 -16.5l-78 -85q72 -94 72 -241q0 -173 -94 -267q-93 -95 -234 -95q-132 0 -219 81l-63 -69h-38q-15 0 -18.5 7.5t5.5 16.5l77 85q-71 95 -71 241zM155 359q0 -106 43 -179l349 383
q-64 70 -164 70q-95 0 -162 -70q-66 -71 -66 -204zM624 341q0 102 -44 178l-349 -383q66 -69 165 -69q95 0 161 70q67 70 67 204zM492 872l-128 -105q-21 -16 -36 -1l-27 29l117 116q11 11 21 11q11 0 22 -9q18 -15 31 -41z" />
    <glyph glyph-name="oslashacute" unicode="&#x1ff;" horiz-adv-x="628" 
d="M318 546q97 0 167 -58l42 46h32q16 0 20.5 -7t-5.5 -17l-54 -59q59 -74 59 -184q0 -128 -76 -204q-75 -75 -185 -75q-99 0 -167 58l-42 -46h-32q-16 0 -20.5 7t5.5 17l53 58q-58 73 -58 185q0 128 75 203q76 76 186 76zM146 273q0 -73 30 -124l252 276q-49 46 -115 46
q-71 0 -119 -51q-48 -50 -48 -147zM323 63q71 0 119 50q48 51 48 148q0 69 -30 124l-253 -277q48 -45 116 -45zM419 698l-128 -105q-21 -16 -36 -1l-27 29l117 116q11 11 21 11q12 0 22 -9q18 -15 31 -41z" />
    <glyph glyph-name="Scommaaccent" unicode="&#x218;" horiz-adv-x="594" 
d="M291 712q77 0 138 -32t92 -87q17 -30 -12 -47q-30 -16 -61 -17q-44 104 -157 104q-60 0 -97.5 -30.5t-37.5 -80.5q0 -47 38.5 -78.5t131.5 -61.5q110 -36 159.5 -85t49.5 -121q0 -84 -66 -137q-65 -51 -175 -51q-84 0 -143 25q-60 25 -60 52q0 25 12 41q81 -40 180 -40
q77 0 118.5 28.5t41.5 77.5q0 47 -36 78t-117 53q-227 62 -227 217q0 86 63 138q64 54 165 54zM327 -39q24 0 39.5 -15t15.5 -41q0 -62 -40 -111q-17 -20 -34.5 -32.5t-23.5 -9.5q-13 4 -18 23q41 38 48 80q-39 11 -39 54q0 23 15 37.5t37 14.5z" />
    <glyph glyph-name="scommaaccent" unicode="&#x219;" horiz-adv-x="499" 
d="M366 393q-13 37 -44 57.5t-73 20.5q-44 0 -71.5 -22t-27.5 -56q0 -36 29.5 -58t99.5 -40q87 -22 126.5 -59.5t39.5 -97.5q0 -70 -51 -110t-143 -40q-67 0 -121 23q-52 24 -52 46q0 25 13 39q69 -34 149 -34q118 0 118 72q0 33 -24.5 52.5t-84.5 33.5q-96 22 -141 64
t-45 109q0 68 52 110q52 43 136 43q62 0 111 -24t72 -66q6 -12 6 -18q0 -13 -14 -24q-21 -16 -60 -21zM272 -39q24 0 39.5 -15t15.5 -41q0 -62 -40 -111q-17 -20 -34.5 -32.5t-23.5 -9.5q-13 4 -18 23q41 38 48 80q-39 11 -39 54q0 23 15 37.5t37 14.5z" />
    <glyph glyph-name="uni021A" unicode="&#x21a;" horiz-adv-x="611" 
d="M350 622v-622h-63q-28 0 -28 22v600h-196q-21 0 -21 26q0 25 7 52h496q23 0 23 -29v-49h-218zM304 -39q24 0 39.5 -15t15.5 -41q0 -62 -40 -111q-17 -20 -34.5 -32.5t-23.5 -9.5q-13 4 -18 23q41 38 48 80q-39 11 -39 54q0 23 15 37.5t37 14.5z" />
    <glyph glyph-name="uni021B" unicode="&#x21b;" horiz-adv-x="453" 
d="M313 63q51 0 84 16q13 -14 13 -38q0 -20 -34 -36.5t-83 -16.5q-77 0 -121 47.5t-44 135.5v289h-75q-21 0 -21 26q0 27 6 48h90v151q34 8 60 8q27 0 27 -21v-138h170q22 0 22 -28v-46h-192v-295q0 -51 26 -76.5t72 -25.5zM272 -39q24 0 39.5 -15t15.5 -41q0 -62 -40 -111
q-17 -20 -34.5 -32.5t-23.5 -9.5q-13 4 -18 23q41 38 48 80q-39 11 -39 54q0 23 15 37.5t37 14.5z" />
    <glyph glyph-name="dotlessj" unicode="&#x237;" horiz-adv-x="263" 
d="M123 -146q-49 -58 -85 -58q-10 0 -20 11t-14 24q86 84 86 184v516q30 9 60 9q27 0 27 -21v-510q0 -91 -54 -155z" />
    <glyph glyph-name="apostrophe" unicode="&#x2bc;" horiz-adv-x="417" 
d="M271 674q0 -72 -51 -134q-15 -20 -33 -31.5t-25 -8.5q-14 8 -17 24q48 45 56 100q-43 13 -43 59q-4 38 33 51q36 14 62 -11q19 -18 18 -49z" />
    <glyph glyph-name="circumflex" unicode="&#x2c6;" horiz-adv-x="417" 
d="M246 712l116 -111l-28 -30q-10 -10 -19 -10q-11 0 -25 14l-82 82l-96 -96q-48 18 -48 42q0 7 6 13l114 110h27q21 0 35 -14z" />
    <glyph glyph-name="caron" unicode="&#x2c7;" horiz-adv-x="417" 
d="M172 573l-117 112q27 41 46 41q12 0 25 -13l83 -83l100 100l36 -33q7 -6 7 -13q0 -8 -9 -17l-109 -105q-44 -4 -62 11z" />
    <glyph glyph-name="uni02C9" unicode="&#x2c9;" horiz-adv-x="417" 
d="M80 678h243q19 0 19 -25v-39h-250q-18 0 -18 23q0 19 6 41z" />
    <glyph glyph-name="breve" unicode="&#x2d8;" horiz-adv-x="417" 
d="M66 700q26 15 50 15q20 0 25 -20q12 -65 67 -65q63 0 72 85h44q30 0 27 -20q-9 -56 -45.5 -90t-97.5 -34q-57 0 -95 34t-47 95z" />
    <glyph glyph-name="dotaccent" unicode="&#x2d9;" horiz-adv-x="417" 
d="M259 643q0 -23 -14 -37t-35 -14q-22 0 -37.5 15.5t-15.5 39.5q0 23 14 37t36 14t37 -15.5t15 -39.5z" />
    <glyph glyph-name="ring" unicode="&#x2da;" horiz-adv-x="417" 
d="M141 708q28 26 67 26q40 0 66 -26q27 -26 27 -63q0 -39 -27 -64q-25 -25 -66 -25t-67 25q-26 26 -26 64q0 37 26 63zM211 601q17 0 28.5 11.5t11.5 30.5q0 21 -12.5 33.5t-32.5 12.5q-18 0 -29.5 -11.5t-11.5 -30.5q0 -21 13 -33.5t33 -12.5z" />
    <glyph glyph-name="ogonek" unicode="&#x2db;" horiz-adv-x="417" 
d="M274 -153q24 11 24 -17v-35q-29 -15 -70 -15q-55 0 -85 27t-30 71q0 33 19.5 67t52.5 55h75q-73 -51 -73 -113q0 -21 14 -33.5t40 -12.5q19 0 33 6z" />
    <glyph glyph-name="tilde" unicode="&#x2dc;" horiz-adv-x="417" 
d="M69 644q20 59 77 59q36 0 68 -27q26 -22 42 -22q26 0 33 51l45 -12q22 -6 17 -29q-17 -77 -83 -77q-36 0 -67 27q-26 22 -42 22q-13 0 -20.5 -10.5t-12.5 -37.5q-27 0 -46 8q-26 11 -11 48z" />
    <glyph glyph-name="hungarumlaut" unicode="&#x2dd;" horiz-adv-x="417" 
d="M223 678l-128 -105q-21 -16 -36 -1l-27 29l117 116q11 11 21 11q12 0 22 -9q18 -15 31 -41zM385 678l-128 -105q-21 -16 -36 -1l-27 29l117 116q11 11 21 11q12 0 22 -9q18 -15 31 -41z" />
    <glyph glyph-name="gravecomb" unicode="&#x300;" horiz-adv-x="0" 
d="M-220 573l-128 105q13 26 31 41q11 9 22 9q10 0 21 -11l117 -116l-27 -29q-15 -15 -36 1z" />
    <glyph glyph-name="acutecomb" unicode="&#x301;" horiz-adv-x="0" 
d="M-158 678l-128 -105q-21 -16 -36 -1l-27 29l117 116q11 11 21 11q11 0 22 -9q18 -15 31 -41z" />
    <glyph glyph-name="uni0302" unicode="&#x302;" horiz-adv-x="0" 
d="M-212 712l116 -111l-28 -30q-10 -10 -19 -10q-11 0 -25 14l-82 82l-96 -96q-48 18 -48 42q0 7 6 13l114 110h27q21 0 35 -14z" />
    <glyph glyph-name="tildecomb" unicode="&#x303;" horiz-adv-x="0" 
d="M-393 644q20 59 77 59q36 0 68 -27q26 -22 42 -22q26 0 33 51l45 -12q22 -6 17 -29q-17 -77 -83 -77q-36 0 -67 27q-26 22 -42 22q-13 0 -20.5 -10.5t-12.5 -37.5q-27 0 -46 8q-26 11 -11 48z" />
    <glyph glyph-name="uni0304" unicode="&#x304;" horiz-adv-x="0" 
d="M-381 678h243q19 0 19 -25v-39h-250q-18 0 -18 23q0 19 6 41z" />
    <glyph glyph-name="uni0306" unicode="&#x306;" horiz-adv-x="0" 
d="M-396 700q26 15 50 15q20 0 25 -20q12 -65 67 -65q63 0 72 85h44q30 0 27 -20q-9 -56 -45.5 -90t-97.5 -34q-57 0 -95 34t-47 95z" />
    <glyph glyph-name="uni0307" unicode="&#x307;" horiz-adv-x="0" 
d="M-202 643q0 -23 -14 -37t-35 -14q-22 0 -37.5 15.5t-15.5 39.5q0 23 14 37t36 14t37 -15.5t15 -39.5z" />
    <glyph glyph-name="uni0308" unicode="&#x308;" horiz-adv-x="0" 
d="M-291 643q0 -23 -14 -37t-35 -14q-22 0 -37.5 15.5t-15.5 39.5q0 23 14 37t36 14t37 -15.5t15 -39.5zM-113 643q0 -23 -14 -37t-35 -14q-22 0 -37.5 15.5t-15.5 39.5q0 23 14 37t36 14t37 -15.5t15 -39.5z" />
    <glyph glyph-name="uni030A" unicode="&#x30a;" horiz-adv-x="0" 
d="M-319 708q26 26 66 26q39 0 67 -26q26 -26 26 -63q0 -38 -26 -64q-26 -25 -67 -25t-66 25q-27 25 -27 64q0 37 27 63zM-250 601q17 0 28.5 11.5t11.5 30.5q0 21 -12.5 33.5t-32.5 12.5q-17 0 -29 -11.5t-12 -30.5q0 -21 13 -33.5t33 -12.5z" />
    <glyph glyph-name="uni030C" unicode="&#x30c;" horiz-adv-x="0" 
d="M-293 573l-117 112q27 41 46 41q12 0 25 -13l83 -83l100 100l36 -33q7 -6 7 -13q0 -8 -9 -17l-109 -105q-44 -4 -62 11z" />
    <glyph glyph-name="uni0327" unicode="&#x327;" horiz-adv-x="0" 
d="M-321 -90q-12 6 -12 12l2 6l38 72h77l-33 -59q42 -7 65.5 -29.5t23.5 -56.5q0 -43 -32 -68t-86 -25q-43 0 -70 10v35q0 18 15 18q3 0 21 -3t25 -3q53 0 53 38q0 47 -87 53z" />
    <glyph glyph-name="uni03A9" unicode="&#x3a9;" horiz-adv-x="783" 
d="M709 49v-49h-266v49q0 19 18 29q78 44 121.5 118t43.5 163q0 131 -68 202q-68 72 -167 72q-101 0 -168 -72q-67 -70 -67 -202q0 -89 43.5 -162.5t121.5 -118.5q18 -10 18 -29v-49h-244q-21 0 -21 25q0 28 6 52h130q-69 49 -108 122t-39 162q0 158 92 255q91 96 236 96
q143 0 235 -96q93 -96 93 -255q0 -89 -39 -162.5t-108 -121.5h114q23 0 23 -28z" />
    <glyph glyph-name="uni0400" unicode="&#x400;" horiz-adv-x="574" 
d="M517 49v-49h-272q-78 0 -115 41t-37 133v526h396q20 0 20 -26q0 -28 -6 -52h-319v-236h249q22 0 22 -28v-50h-271v-126q0 -57 16.5 -81t55.5 -24h239q22 0 22 -28zM320 767l-128 105q13 26 31 41q10 9 22 9q10 0 21 -11l117 -116l-27 -29q-15 -15 -36 1z" />
    <glyph glyph-name="afii10023" unicode="&#x401;" horiz-adv-x="574" 
d="M517 49v-49h-272q-78 0 -115 41t-37 133v526h396q20 0 20 -26q0 -28 -6 -52h-319v-236h249q22 0 22 -28v-50h-271v-126q0 -57 16.5 -81t55.5 -24h239q22 0 22 -28zM259 837q0 -23 -14 -37t-35 -14q-22 0 -37.5 15.5t-15.5 39.5q0 23 14 37t36 14t37 -15.5t15 -39.5z
M437 837q0 -23 -14 -37t-35 -14q-22 0 -37.5 15.5t-15.5 39.5q0 23 14 37t36 14t37 -15.5t15 -39.5z" />
    <glyph glyph-name="afii10051" unicode="&#x402;" horiz-adv-x="771" 
d="M701 215v-206q0 -90 -53 -155q-26 -31 -54 -46.5t-40 -9.5q-19 9 -26 34q82 79 82 183v203q0 150 -122 150q-76 0 -138 -55v-313h-63q-28 0 -28 22v600h-196q-21 0 -21 26q0 25 7 52h496q23 0 23 -29v-49h-218v-235q74 59 161 59q90 0 140 -61t50 -170z" />
    <glyph glyph-name="afii10052" unicode="&#x403;" horiz-adv-x="551" 
d="M95 22v678h396q22 0 22 -29v-49h-327v-622h-63q-28 0 -28 22zM406 872l-128 -105q-21 -16 -36 -1l-27 29l117 116q11 11 21 11q12 0 22 -9q18 -15 31 -41z" />
    <glyph glyph-name="afii10053" unicode="&#x404;" horiz-adv-x="687" 
d="M638 565q5 -12 5 -17q0 -24 -27 -34q-20 -10 -51 -13q-25 63 -75.5 97.5t-119.5 34.5q-88 0 -152 -66q-63 -65 -68 -181h316q22 0 22 -28v-49h-333q20 -116 98 -179q79 -64 193 -64q92 0 162 38q12 -20 12 -42q0 -24 -57 -49q-56 -25 -131 -25q-161 0 -268 104
q-106 105 -106 279q0 157 92 249t225 92q91 0 160.5 -39.5t102.5 -107.5z" />
    <glyph glyph-name="afii10054" unicode="&#x405;" horiz-adv-x="594" 
d="M291 712q77 0 138 -32t92 -87q17 -30 -12 -47q-30 -16 -61 -17q-44 104 -157 104q-60 0 -97.5 -30.5t-37.5 -80.5q0 -47 38.5 -78.5t131.5 -61.5q110 -36 159.5 -85t49.5 -121q0 -84 -66 -137q-65 -51 -175 -51q-84 0 -143 25q-60 25 -60 52q0 25 12 41q81 -40 180 -40
q77 0 118.5 28.5t41.5 77.5q0 47 -36 78t-117 53q-227 62 -227 217q0 86 63 138q64 54 165 54z" />
    <glyph glyph-name="afii10055" unicode="&#x406;" horiz-adv-x="293" 
d="M192 685v-685h-63q-28 0 -28 22v674q30 10 63 10q28 0 28 -21z" />
    <glyph glyph-name="afii10056" unicode="&#x407;" horiz-adv-x="293" 
d="M192 685v-685h-63q-28 0 -28 22v674q30 10 63 10q28 0 28 -21zM109 837q0 -23 -14 -37t-35 -14q-22 0 -37.5 15.5t-15.5 39.5q0 23 14 37t36 14t37 -15.5t15 -39.5zM287 837q0 -23 -14 -37t-35 -14q-22 0 -37.5 15.5t-15.5 39.5q0 23 14 37t36 14t37 -15.5t15 -39.5z" />
    <glyph glyph-name="afii10057" unicode="&#x408;" horiz-adv-x="422" 
d="M145 -12q-49 0 -89 18t-40 37t12 42q46 -18 97 -18q114 0 114 122v508q29 9 63 9q28 0 28 -21v-498q0 -96 -47.5 -147.5t-137.5 -51.5z" />
    <glyph glyph-name="afii10058" unicode="&#x409;" horiz-adv-x="1114" 
d="M553 174v448h-247q-7 -253 -39 -445q-17 -102 -54.5 -145.5t-102.5 -43.5q-38 0 -69 16t-31 32q0 24 13 43q25 -13 64 -13q36 0 56.5 28t32.5 93q40 222 40 513h400q28 0 28 -23v-243q68 30 164 30q118 0 188 -60t70 -167q0 -113 -76.5 -175t-211.5 -62h-81
q-75 0 -109.5 39.5t-34.5 134.5zM709 77h58q205 0 205 155q0 153 -184 153q-77 0 -144 -23v-180q0 -62 14 -83.5t51 -21.5z" />
    <glyph glyph-name="afii10059" unicode="&#x40a;" horiz-adv-x="1077" 
d="M186 312v-312h-63q-28 0 -28 22v674q30 10 64 10q27 0 27 -21v-296h330v311h63q28 0 28 -23v-243q67 30 164 30q118 0 188 -60t70 -167q0 -113 -77 -175t-212 -62h-80q-76 0 -111 42q-33 42 -33 153v117h-330zM751 385q-77 0 -144 -23v-180q0 -62 13.5 -83.5t50.5 -21.5
h59q205 0 205 155q0 153 -184 153z" />
    <glyph glyph-name="afii10060" unicode="&#x40b;" horiz-adv-x="788" 
d="M701 215v-99q0 -53 35 -53h22q5 -12 5 -31q0 -16 -18 -27.5t-45 -11.5q-90 0 -90 118v107q0 150 -122 150q-76 0 -138 -55v-313h-63q-28 0 -28 22v600h-196q-21 0 -21 26q0 25 7 52h496q23 0 23 -29v-49h-218v-235q76 59 161 59q90 0 140 -61t50 -170z" />
    <glyph glyph-name="afii10061" unicode="&#x40c;" horiz-adv-x="660" 
d="M588 630q-80 -128 -224 -249q112 -205 203 -290q25 -25 53 -25h19q5 -18 5 -36q0 -16 -18.5 -29t-45.5 -13q-47 0 -90 46q-89 92 -194 295q-61 -47 -110 -76v-253h-63q-28 0 -28 22v674q30 10 64 10q27 0 27 -21v-331q93 64 183 154q89 89 161 198q37 -12 51.5 -23
t14.5 -27q0 -13 -8 -26zM433 872l-128 -105q-21 -16 -36 -1l-27 29l117 116q11 11 21 11q12 0 22 -9q18 -15 31 -41z" />
    <glyph glyph-name="uni040D" unicode="&#x40d;" horiz-adv-x="718" 
d="M95 22v674q30 10 64 10q27 0 27 -21v-533l342 538q10 16 26 16q30 0 68 -29v-677h-63q-28 0 -28 22v525l-342 -538q-9 -15 -26 -15q-31 0 -68 28zM378 767l-128 105q13 26 31 41q11 9 22 9q10 0 21 -11l117 -116l-27 -29q-15 -15 -36 1z" />
    <glyph glyph-name="afii10062" unicode="&#x40e;" horiz-adv-x="651" 
d="M236 0h-62q-21 0 -21 14q0 8 9 21q71 97 124 181l-231 449q36 40 66 40q17 0 27 -18l189 -385q115 202 183 398h62q28 0 28 -17q0 -2 -2 -10q-58 -162 -159 -345q-100 -181 -213 -328zM191 895q26 15 50 15q20 0 25 -20q12 -65 67 -65q63 0 72 85h44q30 0 27 -20
q-9 -56 -45.5 -90t-97.5 -34q-57 0 -95 34t-47 95z" />
    <glyph glyph-name="afii10145" unicode="&#x40f;" horiz-adv-x="724" 
d="M324 -124v124h-86q-77 0 -111 44t-34 153v499q30 10 64 10q27 0 27 -21v-503q0 -60 15 -82.5t50 -22.5h288v623h63q28 0 28 -23v-677h-213v-147h-63q-28 0 -28 23z" />
    <glyph glyph-name="afii10017" unicode="&#x410;" horiz-adv-x="671" 
d="M180 182l-65 -182h-62q-27 0 -27 19q0 2 2 10l248 660q39 17 80 17q19 0 27.5 -6.5t15.5 -23.5l254 -676h-69q-28 0 -36 20l-58 162h-310zM207 259h256l-128 355z" />
    <glyph glyph-name="afii10018" unicode="&#x411;" horiz-adv-x="660" 
d="M329 385q-78 0 -145 -23v-180q0 -62 14 -83.5t51 -21.5h59q205 0 205 155q0 153 -184 153zM519 672v-50h-335v-188q70 30 165 30q118 0 188 -60t70 -167q0 -113 -77 -175t-212 -62h-80q-76 0 -110.5 39.5t-34.5 134.5v526h403q23 0 23 -28z" />
    <glyph glyph-name="afii10019" unicode="&#x412;" horiz-adv-x="655" 
d="M256 77h99q150 0 150 122q0 118 -164 118h-157v-135q0 -60 15.5 -82.5t56.5 -22.5zM334 622h-150v-228h150q148 0 148 114q0 54 -38.5 84t-109.5 30zM93 174v526h248q110 0 172 -53t62 -133q0 -54 -27.5 -94t-75.5 -59q59 -17 92.5 -61t33.5 -105q0 -91 -64 -143
t-181 -52h-108q-77 0 -114.5 41.5t-37.5 132.5z" />
    <glyph glyph-name="afii10020" unicode="&#x413;" horiz-adv-x="551" 
d="M95 22v678h396q22 0 22 -29v-49h-327v-622h-63q-28 0 -28 22z" />
    <glyph glyph-name="afii10021" unicode="&#x414;" horiz-adv-x="657" 
d="M456 77v545h-196q-13 -284 -82 -545h278zM614 55v-202h-63q-28 0 -28 23v124h-401v-147h-62q-29 0 -29 23v201h53q81 280 89 623h346q28 0 28 -23v-600h39q28 0 28 -22z" />
    <glyph glyph-name="afii10022" unicode="&#x415;" horiz-adv-x="574" 
d="M517 49v-49h-272q-78 0 -115 41t-37 133v526h396q20 0 20 -26q0 -28 -6 -52h-319v-236h249q22 0 22 -28v-50h-271v-126q0 -57 16.5 -81t55.5 -24h239q22 0 22 -28z" />
    <glyph glyph-name="afii10024" unicode="&#x416;" horiz-adv-x="983" 
d="M445 382v314q30 10 64 10q27 0 27 -21v-303q184 130 309 324q39 -13 50 -23q15 -10 15 -28q0 -8 -4 -15q-58 -110 -204 -237q92 -222 177 -307q30 -30 59 -30h18q5 -18 5 -36q0 -16 -19 -29t-46 -13q-40 0 -78 36q-96 93 -187 322q-29 -23 -95 -68v-278h-63q-28 0 -28 22
v256q-66 45 -95 68q-91 -229 -187 -322q-37 -36 -78 -36q-27 0 -46 13t-19 29q0 18 5 36h18q29 0 59 30q85 85 177 307q-145 127 -204 237q-4 7 -4 15q0 17 15 28q11 10 50 23q124 -194 309 -324z" />
    <glyph glyph-name="afii10025" unicode="&#x417;" horiz-adv-x="598" 
d="M137 524q-31 3 -51 13q-27 13 -27 32q0 7 5 20q28 56 88.5 89.5t140.5 33.5q99 0 163 -52t64 -134q0 -59 -36.5 -103t-98.5 -62q71 -18 113 -65t42 -111q0 -91 -72 -144q-73 -53 -191 -53q-84 0 -147 28q-65 29 -65 55q0 23 12 42q83 -46 192 -46q85 0 132.5 31t47.5 88
q0 63 -55.5 99t-159.5 36h-11q-20 0 -20 25q0 28 6 52h22q93 0 145.5 33t52.5 90q0 53 -35.5 82.5t-100.5 29.5q-119 0 -156 -109z" />
    <glyph glyph-name="afii10026" unicode="&#x418;" horiz-adv-x="718" 
d="M95 22v674q30 10 64 10q27 0 27 -21v-533l342 538q10 16 26 16q30 0 68 -29v-677h-63q-28 0 -28 22v525l-342 -538q-9 -15 -26 -15q-31 0 -68 28z" />
    <glyph glyph-name="afii10027" unicode="&#x419;" horiz-adv-x="718" 
d="M95 22v674q30 10 64 10q27 0 27 -21v-533l342 538q10 16 26 16q30 0 68 -29v-677h-63q-28 0 -28 22v525l-342 -538q-9 -15 -26 -15q-31 0 -68 28zM216 895q26 15 50 15q20 0 25 -20q12 -65 67 -65q63 0 72 85h44q30 0 27 -20q-9 -56 -45.5 -90t-97.5 -34q-57 0 -95 34
t-47 95z" />
    <glyph glyph-name="afii10028" unicode="&#x41a;" horiz-adv-x="660" 
d="M588 630q-80 -128 -224 -249q112 -205 203 -290q25 -25 53 -25h19q5 -18 5 -36q0 -16 -18.5 -29t-45.5 -13q-47 0 -90 46q-89 92 -194 295q-61 -47 -110 -76v-253h-63q-28 0 -28 22v674q30 10 64 10q27 0 27 -21v-331q93 64 183 154q89 89 161 198q37 -12 51.5 -23
t14.5 -27q0 -13 -8 -26z" />
    <glyph glyph-name="afii10029" unicode="&#x41b;" horiz-adv-x="760" 
d="M216 700h420q28 0 28 -23v-677h-63q-28 0 -28 22v600h-267q-7 -253 -39 -445q-17 -102 -54.5 -145.5t-102.5 -43.5q-38 0 -69 16t-31 32q0 24 13 43q25 -13 64 -13q36 0 56.5 28t32.5 93q40 222 40 513z" />
    <glyph glyph-name="afii10030" unicode="&#x41c;" horiz-adv-x="896" 
d="M732 23l-54 539l-180 -324q-9 -16 -35 -16h-52l-188 340l-58 -562h-64q-31 0 -28 24l72 658q39 24 70 24q19 0 29 -18l206 -373l213 385h64q15 0 21 -5t8 -18l74 -677h-67q-28 0 -31 23z" />
    <glyph glyph-name="afii10031" unicode="&#x41d;" horiz-adv-x="722" 
d="M186 312v-312h-63q-28 0 -28 22v674q30 10 64 10q27 0 27 -21v-296h349v311h63q28 0 28 -23v-677h-63q-28 0 -28 22v290h-349z" />
    <glyph glyph-name="afii10032" unicode="&#x41e;" horiz-adv-x="773" 
d="M386 712q141 0 234 -95q94 -94 94 -267t-94 -267q-93 -95 -234 -95q-139 0 -234 95q-93 95 -93 267t93 267q95 95 234 95zM152 359q0 -137 69 -215q69 -77 172 -77q95 0 161 70q67 70 67 204q0 137 -69 214q-69 78 -172 78q-95 0 -162 -70q-66 -71 -66 -204z" />
    <glyph glyph-name="afii10033" unicode="&#x41f;" horiz-adv-x="723" 
d="M627 677v-677h-63q-28 0 -28 22v600h-350v-622h-63q-28 0 -28 22v678h504q28 0 28 -23z" />
    <glyph glyph-name="afii10034" unicode="&#x420;" horiz-adv-x="638" 
d="M187 215v-215h-63q-28 0 -28 22v678h220q126 0 200 -68t74 -187q0 -115 -75 -183q-75 -66 -191 -66q-79 0 -137 19zM311 622h-124v-334q49 -13 123 -13q87 0 137 45.5t50 127.5q0 84 -49.5 129t-136.5 45z" />
    <glyph glyph-name="afii10035" unicode="&#x421;" horiz-adv-x="687" 
d="M638 565q5 -12 5 -17q0 -24 -27 -34q-20 -10 -51 -13q-25 63 -75.5 97.5t-119.5 34.5q-91 0 -155 -70q-65 -70 -65 -189q0 -143 83 -226q83 -82 213 -82q92 0 162 38q12 -20 12 -42q0 -24 -57 -49q-56 -25 -131 -25q-161 0 -268 104q-106 105 -106 279q0 157 92 249
t225 92q91 0 160.5 -39.5t102.5 -107.5z" />
    <glyph glyph-name="afii10036" unicode="&#x422;" horiz-adv-x="611" 
d="M350 622v-622h-63q-28 0 -28 22v600h-196q-21 0 -21 26q0 25 7 52h496q23 0 23 -29v-49h-218z" />
    <glyph glyph-name="afii10037" unicode="&#x423;" horiz-adv-x="651" 
d="M236 0h-62q-21 0 -21 14q0 8 9 21q71 97 124 181l-231 449q36 40 66 40q17 0 27 -18l189 -385q115 202 183 398h62q28 0 28 -17q0 -2 -2 -10q-58 -162 -159 -345q-100 -181 -213 -328z" />
    <glyph glyph-name="afii10038" unicode="&#x424;" horiz-adv-x="756" 
d="M423 83v-83h-63q-28 0 -28 22v61q-75 7 -138 38q-64 32 -103.5 93.5t-39.5 138.5q0 117 81 187q83 71 200 81v75q30 10 64 10q27 0 27 -21v-64q118 -10 199 -81q82 -69 82 -187q0 -119 -82 -189q-81 -71 -199 -81zM612 344q0 79 -51.5 132t-137.5 65v-380
q86 9 137.5 56.5t51.5 126.5zM143 362q0 -80 51 -133t138 -65v379q-87 -9 -138 -56t-51 -125z" />
    <glyph glyph-name="afii10039" unicode="&#x425;" horiz-adv-x="685" 
d="M405 354l236 -311q-38 -50 -66 -50q-13 0 -24 14l-214 284q-125 -125 -192 -291h-69q-25 0 -25 17q0 9 4 17q77 182 230 326l-222 295q38 50 66 50q13 0 24 -14l201 -267q122 128 180 276h69q24 0 24 -18q0 -9 -4 -17q-72 -170 -218 -311z" />
    <glyph glyph-name="afii10040" unicode="&#x426;" horiz-adv-x="738" 
d="M604 0h-366q-75 0 -109.5 39.5t-34.5 135.5v522q28 9 63 9q28 0 28 -21v-503q0 -61 14 -82.5t51 -21.5h288v622h62q28 0 28 -22v-600h39q28 0 28 -23v-202h-63q-28 0 -28 22v125z" />
    <glyph glyph-name="afii10041" unicode="&#x427;" horiz-adv-x="687" 
d="M174 685v-240q0 -83 47 -127t131 -44q90 0 148 30v396h63q28 0 28 -23v-677h-63q-28 0 -28 22v210q-63 -36 -163 -36q-113 0 -184 65q-70 66 -70 179v256q30 10 63 10q28 0 28 -21z" />
    <glyph glyph-name="afii10042" unicode="&#x428;" horiz-adv-x="909" 
d="M813 677v-677h-575q-76 0 -110.5 39.5t-34.5 134.5v522q30 10 64 10q27 0 27 -21v-503q0 -62 14 -83.5t51 -21.5h159v623h63q28 0 28 -23v-600h223v623h63q28 0 28 -23z" />
    <glyph glyph-name="afii10043" unicode="&#x429;" horiz-adv-x="923" 
d="M789 0h-551q-75 0 -109.5 39.5t-34.5 135.5v522q28 9 63 9q28 0 28 -21v-503q0 -61 14 -82.5t51 -21.5h158v622h63q28 0 28 -22v-600h223v622h63q28 0 28 -22v-600h39q28 0 28 -23v-202h-63q-28 0 -28 22v125z" />
    <glyph glyph-name="afii10044" unicode="&#x42a;" horiz-adv-x="821" 
d="M259 195v427h-196q-21 0 -21 26q0 25 7 52h278q23 0 23 -28v-238q70 30 165 30q118 0 187.5 -60t69.5 -167q0 -113 -76.5 -175t-211.5 -62h-80q-76 0 -111 42q-34 43 -34 153zM495 385q-78 0 -145 -23v-180q0 -62 14 -83.5t51 -21.5h59q205 0 205 155q0 153 -184 153z
" />
    <glyph glyph-name="afii10045" unicode="&#x42b;" horiz-adv-x="902" 
d="M806 685v-685h-63q-28 0 -28 22v674q30 10 63 10q28 0 28 -21zM329 385q-78 0 -145 -23v-180q0 -62 14 -83.5t51 -21.5h59q205 0 205 155q0 153 -184 153zM184 685v-251q70 30 165 30q118 0 188 -60t70 -167q0 -113 -77 -175t-212 -62h-80q-74 0 -109.5 41t-35.5 133v522
q30 10 64 10q27 0 27 -21z" />
    <glyph glyph-name="afii10046" unicode="&#x42c;" horiz-adv-x="655" 
d="M329 385q-78 0 -145 -23v-180q0 -62 14 -83.5t51 -21.5h59q205 0 205 155q0 153 -184 153zM184 685v-251q70 30 165 30q118 0 188 -60t70 -167q0 -113 -77 -175t-212 -62h-80q-74 0 -109.5 41t-35.5 133v522q30 10 64 10q27 0 27 -21z" />
    <glyph glyph-name="afii10047" unicode="&#x42d;" horiz-adv-x="698" 
d="M215 386h332q-5 116 -68 181q-65 66 -152 66q-69 0 -119.5 -34.5t-75.5 -97.5q-31 3 -51 13q-27 10 -27 34q0 5 5 17q33 68 102.5 107.5t160.5 39.5q133 0 225 -92t92 -249q0 -174 -106 -279q-107 -104 -268 -104q-75 0 -131 25q-57 25 -57 49q0 22 12 42q70 -38 162 -38
q113 0 192 64t99 179h-313q-20 0 -20 25q0 30 6 52z" />
    <glyph glyph-name="afii10048" unicode="&#x42e;" horiz-adv-x="1017" 
d="M186 309v-309h-63q-28 0 -28 22v674q30 10 64 10q27 0 27 -21v-299h118q10 155 102 241q91 85 224 85q139 0 234 -95q94 -94 94 -267t-94 -267q-95 -95 -234 -95q-131 0 -223 83q-91 84 -103 238h-118zM865 341q0 137 -69 214q-69 78 -173 78q-94 0 -162 -71
q-66 -70 -66 -204q0 -137 69 -215q69 -77 173 -77q95 0 161 70q67 70 67 205z" />
    <glyph glyph-name="afii10049" unicode="&#x42f;" horiz-adv-x="657" 
d="M470 306v316h-108q-87 0 -136.5 -43t-49.5 -121t50 -121t136 -43q58 0 108 12zM561 677v-677h-63q-28 0 -28 22v211q-56 -17 -132 -17q-73 -135 -147 -197q-37 -31 -76 -31q-27 0 -45.5 13t-18.5 29q0 14 5 32h18q25 0 52 21q59 47 122 147q-77 24 -121.5 83t-44.5 145
q0 112 74 177t200 65h177q28 0 28 -23z" />
    <glyph glyph-name="afii10065" unicode="&#x430;" horiz-adv-x="593" 
d="M252 62q49 0 92 25.5t67 71.5v73q-51 22 -135 22q-65 0 -100.5 -25.5t-35.5 -70.5t31 -70.5t81 -25.5zM536 63h20q5 -17 5 -31q0 -16 -18.5 -27.5t-46.5 -11.5q-32 0 -54.5 23.5t-27.5 63.5q-27 -43 -74 -67.5t-106 -24.5q-82 0 -131 46q-50 47 -50 121q0 81 56.5 127.5
t155.5 46.5q85 0 146 -31v44q0 129 -158 129q-81 0 -143 -32q-12 13 -12 38q0 24 52 46q54 23 124 23q106 0 165 -53.5t59 -154.5v-220q0 -55 38 -55z" />
    <glyph glyph-name="afii10066" unicode="&#x431;" horiz-adv-x="630" 
d="M69 298q0 135 25 214q26 82 67 116q43 37 111 50l104 22q101 21 139 42q21 -21 21 -38q0 -18 -36.5 -37t-101.5 -34l-100 -23q-72 -16 -101 -60q-28 -41 -37 -135q77 91 197 91q95 0 160 -68q64 -67 64 -171q0 -121 -71 -201q-70 -78 -183 -78q-121 0 -189.5 82.5
t-68.5 227.5zM157 338v-42q0 -113 45 -173.5t125 -60.5q70 0 118 55t48 144q0 79 -44.5 124.5t-115.5 45.5q-47 0 -93.5 -25t-82.5 -68z" />
    <glyph glyph-name="afii10067" unicode="&#x432;" horiz-adv-x="555" 
d="M290 460h-120v-150h120q105 0 105 75t-105 75zM308 0h-98q-64 0 -95.5 34.5t-31.5 111.5v388h217q84 0 133 -40.5t49 -104.5q0 -78 -71 -110q96 -33 96 -126q0 -70 -52.5 -111.5t-146.5 -41.5zM227 73h74q119 0 119 83q0 81 -131 81h-119v-78q0 -50 12 -68t45 -18z" />
    <glyph glyph-name="afii10068" unicode="&#x433;" horiz-adv-x="471" 
d="M439 460h-267v-460h-59q-28 0 -28 22v512h332q22 0 22 -29v-45z" />
    <glyph glyph-name="afii10069" unicode="&#x434;" horiz-adv-x="575" 
d="M152 534h301q28 0 28 -23v-438h34q28 0 28 -22v-169h-59q-28 0 -28 23v95h-343v-118h-59q-28 0 -28 23v168h50q66 204 76 461zM164 73h230v387h-164q-14 -210 -66 -387z" />
    <glyph glyph-name="afii10070" unicode="&#x435;" horiz-adv-x="575" 
d="M332 63q75 0 133 31q12 -15 12 -39q0 -23 -46 -45q-45 -22 -113 -22q-115 0 -190 78q-75 80 -75 201q0 126 76 202q77 77 186 77q94 0 153 -56t59 -140q0 -45 -15 -78q-10 -23 -25 -32t-44 -9h-300q8 -79 60 -123.5t129 -44.5zM311 471q-69 0 -115 -45.5t-53 -120.5h291
q8 19 8 41q0 57 -35 91t-96 34z" />
    <glyph glyph-name="afii10072" unicode="&#x436;" horiz-adv-x="801" 
d="M357 302v230q34 8 61 8q26 0 26 -21v-217q141 97 236 238q58 -19 58 -48q0 -7 -5 -20q-46 -75 -145 -157q52 -147 100 -212q28 -40 61 -40h20q5 -17 5 -31t-18.5 -26.5t-41.5 -12.5q-58 0 -102 68q-53 85 -90 205q-35 -27 -78 -53v-213h-59q-28 0 -28 22v191
q-43 26 -78 53q-37 -120 -90 -205q-44 -68 -102 -68q-23 0 -41.5 12.5t-18.5 26.5t5 31h20q33 0 61 40q48 65 100 212q-99 82 -145 157q-5 13 -5 20q0 29 58 48q95 -141 236 -238z" />
    <glyph glyph-name="afii10073" unicode="&#x437;" horiz-adv-x="521" 
d="M138 388q-38 5 -59 17q-16 9 -16 26q0 11 6 21q26 43 75.5 68.5t116.5 25.5q83 0 134 -42q52 -40 52 -107q0 -44 -25.5 -77.5t-70.5 -48.5q52 -15 81.5 -49.5t29.5 -82.5q0 -69 -56 -110t-157 -41q-67 0 -123 24q-56 26 -56 50q0 22 12 39q72 -39 157 -39q65 0 100 22
t35 60q0 41 -37.5 64t-107.5 23h-9q-21 0 -21 25q0 27 6 48h16q138 0 138 86q0 36 -28 58.5t-71 22.5q-95 0 -122 -83z" />
    <glyph glyph-name="afii10074" unicode="&#x438;" horiz-adv-x="626" 
d="M541 514v-514h-59q-28 0 -28 22v381l-278 -395q-11 -14 -29 -14q-30 0 -62 27v512q34 8 60 8q27 0 27 -21v-388l278 395q11 14 29 14q31 0 62 -27z" />
    <glyph glyph-name="afii10075" unicode="&#x439;" horiz-adv-x="626" 
d="M541 514v-514h-59q-28 0 -28 22v381l-278 -395q-11 -14 -29 -14q-30 0 -62 27v512q34 8 60 8q27 0 27 -21v-388l278 395q11 14 29 14q31 0 62 -27zM170 720q25 15 50 15q20 0 25 -20q12 -65 67 -65q63 0 72 85h44q30 0 27 -20q-9 -56 -45.5 -90t-97.5 -34q-57 0 -95 34
t-47 95z" />
    <glyph glyph-name="afii10076" unicode="&#x43a;" horiz-adv-x="579" 
d="M172 193v-193h-59q-28 0 -28 22v509q30 9 60 9q27 0 27 -21v-240q83 50 154 116q76 69 129 145q33 -12 46 -23t13 -26q0 -31 -59 -90q-57 -57 -134 -114q77 -119 156 -195q31 -29 50 -29h20q5 -17 5 -31q0 -15 -18.5 -27t-43.5 -12q-35 0 -73 35q-85 77 -163 214
q-39 -25 -82 -49z" />
    <glyph glyph-name="afii10077" unicode="&#x43b;" horiz-adv-x="653" 
d="M101 -12q-32 0 -62 14q-28 15 -28 30q0 20 12 40q26 -12 55 -12q31 0 47.5 24.5t25.5 86.5q23 167 23 363h367q27 0 27 -23v-511h-59q-28 0 -28 22v438h-221q-5 -166 -22 -301q-12 -91 -44.5 -131t-92.5 -40z" />
    <glyph glyph-name="afii10078" unicode="&#x43c;" horiz-adv-x="756" 
d="M631 511l65 -511h-62q-15 0 -20.5 4.5t-7.5 16.5l-49 393l-130 -231q-8 -14 -29 -14h-59l-138 245l-52 -414h-59q-15 0 -21.5 5.5t-4.5 16.5l64 496q35 22 66 22q19 0 28 -17l157 -276l163 287h60q26 0 29 -23z" />
    <glyph glyph-name="afii10079" unicode="&#x43d;" horiz-adv-x="612" 
d="M527 511v-511h-59q-28 0 -28 22v217h-268v-239h-59q-28 0 -28 22v509q30 9 60 9q27 0 27 -21v-207h268v222h59q28 0 28 -23z" />
    <glyph glyph-name="afii10080" unicode="&#x43e;" horiz-adv-x="628" 
d="M128 470q76 76 186 76t185 -76q76 -75 76 -203t-76 -204q-75 -75 -185 -75t-186 75q-75 77 -75 204q0 128 75 203zM319 63q71 0 119 50q48 51 48 148q0 99 -52 154q-51 56 -125 56q-71 0 -119 -51q-48 -50 -48 -147q0 -99 51 -155q52 -55 126 -55z" />
    <glyph glyph-name="afii10081" unicode="&#x43f;" horiz-adv-x="612" 
d="M527 511v-511h-59q-28 0 -28 22v438h-268v-460h-59q-28 0 -28 22v512h414q28 0 28 -23z" />
    <glyph glyph-name="afii10082" unicode="&#x440;" horiz-adv-x="640" 
d="M172 41v-254h-59q-28 0 -28 22v723q34 8 60 8q27 0 27 -21v-76q27 48 77 75.5t110 27.5q99 0 163 -70q65 -71 65 -188q0 -129 -77 -215q-76 -85 -188 -85q-91 0 -150 53zM340 472q-52 0 -97 -36t-71 -103v-216q57 -54 137 -54q82 0 136 63q54 64 54 160q0 87 -43 136.5
t-116 49.5z" />
    <glyph glyph-name="afii10083" unicode="&#x441;" horiz-adv-x="552" 
d="M509 439q5 -12 5 -18q0 -16 -16 -25q-21 -12 -59 -17q-30 92 -135 92q-70 0 -117 -51q-46 -50 -46 -135q0 -104 63 -164q65 -59 151 -59q71 0 132 31q12 -17 12 -38q0 -22 -47 -45q-45 -22 -111 -22q-116 0 -202 80t-86 215q0 121 72 191q72 72 183 72q70 0 123.5 -29
t77.5 -78z" />
    <glyph glyph-name="afii10084" unicode="&#x442;" horiz-adv-x="525" 
d="M306 460v-460h-59q-28 0 -28 22v438h-165q-21 0 -21 26t6 48h430q22 0 22 -29v-45h-185z" />
    <glyph glyph-name="afii10085" unicode="&#x443;" horiz-adv-x="627" 
d="M83 219v313q34 8 60 8q27 0 27 -21v-306q0 -150 126 -150q92 0 159 64v408h59q28 0 28 -22v-510q0 -108 -70 -179q-70 -72 -198 -72q-83 0 -134 37.5t-51 97.5q0 77 84 126q-90 53 -90 206zM455 -6v64q-76 -70 -182 -70q-19 0 -44 4q-53 -38 -53 -95q0 -32 27 -52t73 -20
q81 0 130 46t49 123z" />
    <glyph glyph-name="afii10086" unicode="&#x444;" horiz-adv-x="762" 
d="M333 543v185q30 9 60 9q27 0 27 -21v-173q132 -11 210 -83q80 -72 80 -193t-81 -195q-79 -72 -209 -81v-184h-59q-28 0 -28 23v161q-125 10 -204 83q-78 74 -78 193t78 191q77 73 204 85zM420 468v-404q94 7 148 57.5t54 138.5t-54.5 142t-147.5 66zM333 66v402
q-91 -9 -142.5 -59t-51.5 -136t52.5 -140.5t141.5 -66.5z" />
    <glyph glyph-name="afii10087" unicode="&#x445;" horiz-adv-x="567" 
d="M515 63h15q11 -21 -2.5 -46t-54.5 -24q-22 0 -41.5 14t-45.5 49l-114 151q-96 -96 -143 -207h-64q-23 0 -23 16q0 5 3 11q54 128 179 243l-170 223q31 46 59 46q13 0 20 -10l153 -202q99 105 139 207h65q22 0 22 -17q0 -5 -3 -11q-54 -128 -176 -242l126 -166
q27 -35 56 -35z" />
    <glyph glyph-name="afii10088" unicode="&#x446;" horiz-adv-x="624" 
d="M505 0h-294q-65 0 -96.5 35t-31.5 112v385q34 8 60 8q27 0 27 -21v-360q0 -50 12.5 -68t45.5 -18h215v461h59q28 0 28 -22v-439h34q28 0 28 -22v-169h-59q-28 0 -28 22v96z" />
    <glyph glyph-name="afii10089" unicode="&#x447;" horiz-adv-x="613" 
d="M528 511v-511h-59q-28 0 -28 22v185q-74 -67 -182 -67q-92 0 -141 60.5t-49 169.5v161q30 9 60 9q27 0 27 -21v-155q0 -149 125 -149q93 0 160 63v256h59q28 0 28 -23z" />
    <glyph glyph-name="afii10090" unicode="&#x448;" horiz-adv-x="799" 
d="M228 73h127v461h59q28 0 28 -22v-439h184v461h59q28 0 28 -22v-512h-502q-65 0 -96.5 35t-31.5 112v385q34 8 60 8q27 0 27 -21v-360q0 -50 12.5 -68t45.5 -18z" />
    <glyph glyph-name="afii10091" unicode="&#x449;" horiz-adv-x="807" 
d="M689 0h-478q-65 0 -96.5 35t-31.5 112v385q34 8 60 8q27 0 27 -21v-360q0 -50 12.5 -68t45.5 -18h127v461h59q28 0 28 -22v-439h184v461h59q28 0 28 -22v-439h34q28 0 28 -22v-169h-58q-28 0 -28 22v96z" />
    <glyph glyph-name="afii10092" unicode="&#x44a;" horiz-adv-x="697" 
d="M404 0h-58q-64 0 -95.5 34.5t-31.5 111.5v314h-165q-21 0 -21 26t6 48h239q28 0 28 -23v-162q60 21 136 21q97 0 153.5 -47.5t56.5 -130.5q0 -91 -63.5 -141.5t-184.5 -50.5zM423 295q-66 0 -117 -15v-121q0 -50 12 -68t45 -18h49q74 0 113 30t39 84q0 52 -36 80t-105 28
z" />
    <glyph glyph-name="afii10093" unicode="&#x44b;" horiz-adv-x="781" 
d="M83 146v385q30 9 60 9q27 0 27 -21v-170q58 21 136 21q97 0 153.5 -47.5t56.5 -130.5q0 -91 -63.5 -141.5t-184.5 -50.5h-58q-64 0 -95.5 34.5t-31.5 111.5zM287 295q-66 0 -117 -15v-121q0 -50 12 -68t45 -18h50q72 0 111.5 30t39.5 84q0 52 -36 80t-105 28zM597 109
v422q30 9 60 9q27 0 27 -21v-403q0 -53 35 -53h22q5 -12 5 -31q0 -16 -18 -27.5t-45 -11.5q-86 0 -86 116z" />
    <glyph glyph-name="afii10094" unicode="&#x44c;" horiz-adv-x="561" 
d="M83 146v385q30 9 60 9q27 0 27 -21v-170q58 21 136 21q97 0 153.5 -47.5t56.5 -130.5q0 -91 -63.5 -141.5t-184.5 -50.5h-58q-64 0 -95.5 34.5t-31.5 111.5zM287 295q-66 0 -117 -15v-121q0 -50 12 -68t45 -18h50q72 0 111.5 30t39.5 84q0 52 -36 80t-105 28z" />
    <glyph glyph-name="afii10095" unicode="&#x44d;" horiz-adv-x="568" 
d="M197 302h230q-5 76 -51 123q-45 46 -112 46q-105 0 -135 -92q-38 5 -59 17q-16 9 -16 25q0 6 5 18q24 49 77.5 78t123.5 29q111 0 183 -72q72 -71 72 -191q0 -135 -86 -215t-202 -80q-67 0 -112 22q-46 22 -46 45q0 21 12 38q61 -31 132 -31q74 0 132 43q59 44 76 124
h-210q-20 0 -20 25q0 27 6 48z" />
    <glyph glyph-name="afii10096" unicode="&#x44e;" horiz-adv-x="838" 
d="M172 234v-234h-59q-28 0 -28 22v509q30 9 60 9q27 0 27 -21v-212h93q12 110 84 175q73 64 174 64q110 0 185 -76q76 -75 76 -203q0 -129 -76 -204q-75 -75 -185 -75q-102 0 -176 65q-72 65 -83 181h-92zM351 273q0 -99 51 -155q53 -56 126 -56q74 0 121 52.5t47 146.5
q0 99 -52 154q-53 56 -125 56q-74 0 -121 -52.5t-47 -145.5z" />
    <glyph glyph-name="afii10097" unicode="&#x44f;" horiz-adv-x="575" 
d="M117 -12q-23 0 -38.5 12t-15.5 27q0 19 4 27h15q25 0 49 21q41 36 79 100q-128 41 -128 173q0 87 58.5 136.5t159.5 49.5h161q28 0 28 -23v-511h-59q-28 0 -28 22v153q-39 -13 -110 -13q-52 -99 -110 -148q-31 -26 -65 -26zM402 245v215h-82q-150 0 -150 -112
q0 -54 39 -82.5t110 -28.5q46 0 83 8z" />
    <glyph glyph-name="uni0450" unicode="&#x450;" horiz-adv-x="575" 
d="M332 63q75 0 133 31q12 -15 12 -39q0 -23 -46 -45q-45 -22 -113 -22q-115 0 -190 78q-75 80 -75 201q0 126 76 202q77 77 186 77q94 0 153 -56t59 -140q0 -45 -15 -78q-10 -23 -25 -32t-44 -9h-300q8 -79 60 -123.5t129 -44.5zM311 471q-69 0 -115 -45.5t-53 -120.5h291
q8 19 8 41q0 57 -35 91t-96 34zM325 593l-128 105q13 26 31 41q11 9 22 9q10 0 21 -11l117 -116l-27 -29q-15 -15 -36 1z" />
    <glyph glyph-name="afii10071" unicode="&#x451;" horiz-adv-x="575" 
d="M332 63q75 0 133 31q12 -15 12 -39q0 -23 -46 -45q-45 -22 -113 -22q-115 0 -190 78q-75 80 -75 201q0 126 76 202q77 77 186 77q94 0 153 -56t59 -140q0 -45 -15 -78q-10 -23 -25 -32t-44 -9h-300q8 -79 60 -123.5t129 -44.5zM311 471q-69 0 -115 -45.5t-53 -120.5h291
q8 19 8 41q0 57 -35 91t-96 34zM264 663q0 -23 -14 -37t-35 -14q-22 0 -37.5 15.5t-15.5 39.5q0 23 14 37t36 14t37 -15.5t15 -39.5zM442 663q0 -23 -14 -37t-35 -14q-22 0 -37.5 15.5t-15.5 39.5q0 23 14 37t36 14t37 -15.5t15 -39.5z" />
    <glyph glyph-name="afii10099" unicode="&#x452;" horiz-adv-x="625" 
d="M544 315v-335q0 -90 -54 -155q-49 -58 -85 -58q-10 0 -20 11t-14 24q86 84 86 184v335q0 150 -126 150q-92 0 -159 -64v-407h-59q-28 0 -28 22v583h-40q-21 0 -21 19q0 26 4 39h57v64q30 9 60 9q27 0 27 -21v-52h155q23 0 23 -28v-30h-178v-129q76 70 182 70
q92 0 141 -60t49 -171z" />
    <glyph glyph-name="afii10100" unicode="&#x453;" horiz-adv-x="472" 
d="M442 460h-268v-460h-59q-28 0 -28 22v512h332q23 0 23 -29v-45zM368 697l-50 -42q-81 -70 -97 -70q-8 0 -14 6h-2q-23 23 -28 30l59 61q63 63 80 63q24 0 52 -48z" />
    <glyph glyph-name="afii10101" unicode="&#x454;" horiz-adv-x="552" 
d="M509 439q5 -12 5 -18q0 -16 -16 -25q-21 -12 -59 -17q-30 92 -135 92q-67 0 -113 -46q-46 -47 -50 -123h213q23 0 23 -28v-45h-230q17 -81 75 -124t133 -43q71 0 132 31q12 -17 12 -38q0 -22 -47 -45q-45 -22 -111 -22q-116 0 -202 80t-86 215q0 121 72 191q72 72 183 72
q70 0 123.5 -29t77.5 -78z" />
    <glyph glyph-name="afii10102" unicode="&#x455;" horiz-adv-x="499" 
d="M366 393q-13 37 -44 57.5t-73 20.5q-44 0 -71.5 -22t-27.5 -56q0 -36 29.5 -58t99.5 -40q87 -22 126.5 -59.5t39.5 -97.5q0 -70 -51 -110t-143 -40q-67 0 -121 23q-52 24 -52 46q0 25 13 39q69 -34 149 -34q118 0 118 72q0 33 -24.5 52.5t-84.5 33.5q-96 22 -141 64
t-45 109q0 68 52 110q52 43 136 43q62 0 111 -24t72 -66q6 -12 6 -18q0 -13 -14 -24q-21 -16 -60 -21z" />
    <glyph glyph-name="afii10103" unicode="&#x456;" horiz-adv-x="270" 
d="M128 628q-22 0 -38 16t-16 40t14.5 38.5t36.5 14.5q24 0 39 -15.5t15 -41.5q0 -24 -14 -38t-37 -14zM85 109v422q30 9 60 9q27 0 27 -21v-403q0 -53 35 -53h22q5 -12 5 -31q0 -16 -18 -27.5t-45 -11.5q-86 0 -86 116z" />
    <glyph glyph-name="afii10104" unicode="&#x457;" horiz-adv-x="270" 
d="M85 109v422q30 9 60 9q27 0 27 -21v-403q0 -53 35 -53h22q5 -12 5 -31q0 -16 -18 -27.5t-45 -11.5q-86 0 -86 116zM91 663q0 -23 -14 -37t-35 -14q-22 0 -37.5 15.5t-15.5 39.5q0 23 14 37t36 14t37 -15.5t15 -39.5zM269 663q0 -23 -14 -37t-35 -14q-22 0 -37.5 15.5
t-15.5 39.5q0 23 14 37t36 14t37 -15.5t15 -39.5z" />
    <glyph glyph-name="afii10105" unicode="&#x458;" horiz-adv-x="263" 
d="M123 -146q-49 -58 -85 -58q-10 0 -20 11t-14 24q86 84 86 184v516q30 9 60 9q27 0 27 -21v-510q0 -91 -54 -155zM133 628q-22 0 -38 16t-16 40q-3 33 24 46.5t54.5 -1t26.5 -49.5q0 -24 -14 -38t-37 -14z" />
    <glyph glyph-name="afii10106" unicode="&#x459;" horiz-adv-x="946" 
d="M467 146v314h-208q-1 -120 -22 -302q-12 -91 -44 -130.5t-92 -39.5q-33 0 -63 14q-28 15 -28 30q0 23 13 39q27 -11 55 -11q31 0 47.5 24.5t25.5 86.5q22 154 22 363h354q27 0 27 -24v-161q62 21 136 21q97 0 154 -47.5t57 -130.5q0 -91 -63.5 -141.5t-184.5 -50.5h-58
q-65 0 -96.5 34.5t-31.5 111.5zM671 295q-66 0 -117 -15v-121q0 -50 12.5 -68t45.5 -18h49q74 0 112.5 29.5t38.5 84.5q0 52 -36 80t-105 28z" />
    <glyph glyph-name="afii10107" unicode="&#x45a;" horiz-adv-x="905" 
d="M172 239v-239h-59q-28 0 -28 22v509q30 9 60 9q27 0 27 -21v-207h254v222h59q28 0 28 -23v-162q61 21 136 21q97 0 153.5 -47.5t56.5 -130.5q0 -91 -63 -141.5t-184 -50.5h-58q-65 0 -96.5 34.5t-31.5 111.5v93h-254zM630 295q-66 0 -117 -15v-121q0 -50 12.5 -68
t45.5 -18h49q74 0 112.5 29.5t38.5 84.5q0 52 -36 80t-105 28z" />
    <glyph glyph-name="afii10108" unicode="&#x45b;" horiz-adv-x="641" 
d="M350 635v-30h-178v-129q76 70 182 70q92 0 141 -60t49 -171v-199q0 -53 35 -53h22q5 -12 5 -31q0 -16 -18 -27.5t-45 -11.5q-86 0 -86 116v212q0 150 -126 150q-92 0 -159 -64v-407h-59q-28 0 -28 22v583h-40q-21 0 -21 19q0 26 4 39h57v64q30 9 60 9q27 0 27 -21v-52
h155q23 0 23 -28z" />
    <glyph glyph-name="afii10109" unicode="&#x45c;" horiz-adv-x="579" 
d="M172 193v-193h-59q-28 0 -28 22v509q30 9 60 9q27 0 27 -21v-240q83 50 154 116q76 69 129 145q33 -12 46 -23t13 -26q0 -31 -59 -90q-57 -57 -134 -114q77 -119 156 -195q31 -29 50 -29h20q5 -17 5 -31q0 -15 -18.5 -27t-43.5 -12q-35 0 -73 35q-85 77 -163 214
q-39 -25 -82 -49zM397 698l-128 -105q-21 -16 -36 -1l-27 29l117 116q11 11 21 11q12 0 22 -9q18 -15 31 -41z" />
    <glyph glyph-name="uni045D" unicode="&#x45d;" horiz-adv-x="626" 
d="M541 514v-514h-59q-28 0 -28 22v381l-278 -395q-11 -14 -29 -14q-30 0 -62 27v512q34 8 60 8q27 0 27 -21v-388l278 395q11 14 29 14q31 0 62 -27zM325 593l-128 105q13 26 31 41q11 9 22 9q10 0 21 -11l117 -116l-27 -29q-15 -15 -36 1z" />
    <glyph glyph-name="afii10110" unicode="&#x45e;" horiz-adv-x="627" 
d="M83 219v313q34 8 60 8q27 0 27 -21v-306q0 -150 126 -150q92 0 159 64v408h59q28 0 28 -22v-510q0 -108 -70 -179q-70 -72 -198 -72q-83 0 -134 37.5t-51 97.5q0 77 84 126q-90 53 -90 206zM455 -6v64q-76 -70 -182 -70q-19 0 -44 4q-53 -38 -53 -95q0 -32 27 -52t73 -20
q81 0 130 46t49 123zM170 720q25 15 50 15q20 0 25 -20q12 -65 67 -65q63 0 72 85h44q30 0 27 -20q-9 -56 -45.5 -90t-97.5 -34q-57 0 -95 34t-47 95z" />
    <glyph glyph-name="afii10193" unicode="&#x45f;" horiz-adv-x="615" 
d="M359 0v-118h-59q-28 0 -28 23v95h-62q-64 0 -95.5 34.5t-31.5 111.5v385q30 9 60 9q27 0 27 -21v-360q0 -49 13 -67.5t44 -18.5h216v461h59q28 0 28 -23v-511h-171z" />
    <glyph glyph-name="afii10050" unicode="&#x490;" horiz-adv-x="551" 
d="M96 700h326v125q30 9 64 9q27 0 27 -21v-191h-326v-622h-63q-28 0 -28 22v678z" />
    <glyph glyph-name="afii10098" unicode="&#x491;" horiz-adv-x="471" 
d="M439 460h-267v-460h-59q-28 0 -28 22v512h267v113q30 9 60 9q27 0 27 -21v-175z" />
    <glyph glyph-name="Wgrave" unicode="&#x1e80;" horiz-adv-x="1113" 
d="M1058 675q-64 -331 -213 -652q-11 -23 -41 -23h-79l-167 586q-65 -304 -186 -563q-11 -23 -41 -23h-75l-208 679q41 26 70 26q21 0 27 -18l170 -580q112 249 180 593h83q32 0 40 -24l164 -569q122 260 183 593h66q16 0 22.5 -6t4.5 -19zM570 767l-128 105q13 26 31 41
q11 9 22 9q10 0 21 -11l117 -116l-27 -29q-15 -15 -36 1z" />
    <glyph glyph-name="wgrave" unicode="&#x1e81;" horiz-adv-x="874" 
d="M739 534h60q29 0 25 -25q-44 -260 -149 -489q-9 -20 -33 -20h-82l-120 429q-38 -211 -124 -411q-8 -18 -32 -18h-80l-159 513q40 28 69 28q16 0 21 -17l125 -436q82 184 124 446h75q28 0 35 -25l123 -421q85 193 122 446zM445 593l-128 105q13 26 31 41q10 9 22 9
q10 0 21 -11l117 -116l-27 -29q-15 -15 -36 1z" />
    <glyph glyph-name="Wacute" unicode="&#x1e82;" horiz-adv-x="1113" 
d="M1058 675q-64 -331 -213 -652q-11 -23 -41 -23h-79l-167 586q-65 -304 -186 -563q-11 -23 -41 -23h-75l-208 679q41 26 70 26q21 0 27 -18l170 -580q112 249 180 593h83q32 0 40 -24l164 -569q122 260 183 593h66q16 0 22.5 -6t4.5 -19zM651 872l-128 -105
q-21 -16 -36 -1l-27 29l117 116q11 11 21 11q12 0 22 -9q18 -15 31 -41z" />
    <glyph glyph-name="wacute" unicode="&#x1e83;" horiz-adv-x="874" 
d="M739 534h60q29 0 25 -25q-44 -260 -149 -489q-9 -20 -33 -20h-82l-120 429q-38 -211 -124 -411q-8 -18 -32 -18h-80l-159 513q40 28 69 28q16 0 21 -17l125 -436q82 184 124 446h75q28 0 35 -25l123 -421q85 193 122 446zM533 698l-128 -105q-21 -16 -36 -1l-27 29
l117 116q11 11 21 11q12 0 22 -9q18 -15 31 -41z" />
    <glyph glyph-name="Wdieresis" unicode="&#x1e84;" horiz-adv-x="1113" 
d="M1058 675q-64 -331 -213 -652q-11 -23 -41 -23h-79l-167 586q-65 -304 -186 -563q-11 -23 -41 -23h-75l-208 679q41 26 70 26q21 0 27 -18l170 -580q112 249 180 593h83q32 0 40 -24l164 -569q122 260 183 593h66q16 0 22.5 -6t4.5 -19zM519 837q0 -23 -14 -37t-35 -14
q-22 0 -37.5 15.5t-15.5 39.5q0 23 14 37t36 14t37 -15.5t15 -39.5zM697 837q0 -23 -14 -37t-35 -14q-22 0 -37.5 15.5t-15.5 39.5q0 23 14 37t36 14t37 -15.5t15 -39.5z" />
    <glyph glyph-name="wdieresis" unicode="&#x1e85;" horiz-adv-x="874" 
d="M739 534h60q29 0 25 -25q-44 -260 -149 -489q-9 -20 -33 -20h-82l-120 429q-38 -211 -124 -411q-8 -18 -32 -18h-80l-159 513q40 28 69 28q16 0 21 -17l125 -436q82 184 124 446h75q28 0 35 -25l123 -421q85 193 122 446zM400 663q0 -23 -14 -37t-35 -14
q-22 0 -37.5 15.5t-15.5 39.5q0 23 14 37t36 14t37 -15.5t15 -39.5zM578 663q0 -23 -14 -37t-35 -14q-22 0 -37.5 15.5t-15.5 39.5q0 23 14 37t36 14t37 -15.5t15 -39.5z" />
    <glyph glyph-name="Ygrave" unicode="&#x1ef2;" horiz-adv-x="661" 
d="M282 22v213l-244 430q39 40 68 40q15 0 24 -16l200 -366q134 183 203 377h65q15 0 22 -8t2 -19q-86 -230 -249 -434v-239h-63q-28 0 -28 22zM342 767l-128 105q13 26 31 41q11 9 22 9q10 0 21 -11l117 -116l-27 -29q-15 -15 -36 1z" />
    <glyph glyph-name="ygrave" unicode="&#x1ef3;" horiz-adv-x="627" 
d="M83 219v313q34 8 60 8q27 0 27 -21v-306q0 -150 126 -150q92 0 159 64v408h59q28 0 28 -22v-510q0 -108 -70 -179q-70 -72 -198 -72q-83 0 -134 37.5t-51 97.5q0 77 84 126q-90 53 -90 206zM455 58q-76 -70 -182 -70q-19 0 -44 4q-53 -38 -53 -95q0 -32 27 -52t73 -20
q81 0 130 46t49 123v64zM326 593l-128 105q13 26 31 41q10 9 22 9q10 0 21 -11l117 -116l-27 -29q-15 -15 -36 1z" />
    <glyph glyph-name="thinspace" unicode="&#x2009;" horiz-adv-x="200" 
 />
    <glyph glyph-name="uni2010" unicode="&#x2010;" horiz-adv-x="456" 
d="M92 371h257q23 0 23 -28v-50h-266q-20 0 -20 27t6 51z" />
    <glyph glyph-name="figuredash" unicode="&#x2012;" horiz-adv-x="680" 
d="M92 371h481q22 0 22 -28v-50h-489q-21 0 -21 27q0 24 7 51z" />
    <glyph glyph-name="endash" unicode="&#x2013;" horiz-adv-x="500" 
d="M7 371h471q22 0 22 -28v-50h-479q-21 0 -21 27q0 24 7 51z" />
    <glyph glyph-name="emdash" unicode="&#x2014;" horiz-adv-x="1000" 
d="M7 371h971q22 0 22 -28v-50h-979q-21 0 -21 27q0 24 7 51z" />
    <glyph glyph-name="afii00208" unicode="&#x2015;" horiz-adv-x="1000" 
d="M107 371h771q22 0 22 -28v-50h-779q-21 0 -21 27q0 24 7 51z" />
    <glyph glyph-name="uni2016" unicode="&#x2016;" horiz-adv-x="447" 
d="M107 -108v851q32 6 52 6q28 0 28 -21v-858h-52q-28 0 -28 22zM260 -108v851q31 6 53 6q27 0 27 -21v-858h-52q-28 0 -28 22z" />
    <glyph glyph-name="underscoredbl" unicode="&#x2017;" horiz-adv-x="600" 
d="M55 -140h473q22 0 22 -28v-38h-479q-21 0 -21 27q0 14 5 39zM55 -24h473q22 0 22 -28v-38h-479q-21 0 -21 27q0 14 5 39z" />
    <glyph glyph-name="quoteleft" unicode="&#x2018;" horiz-adv-x="329" 
d="M108 564q0 73 51 134q15 20 33 31.5t25 8.5q14 -8 17 -24q-48 -45 -56 -100q43 -13 43 -59q4 -38 -33 -51q-36 -14 -62 11q-19 18 -18 49z" />
    <glyph glyph-name="quoteright" unicode="&#x2019;" horiz-adv-x="329" 
d="M221 677q0 -73 -51 -134q-15 -20 -33 -31.5t-25 -8.5q-14 8 -17 24q48 45 56 100q-43 13 -43 59q-4 38 33 51q36 14 62 -11q19 -18 18 -49z" />
    <glyph glyph-name="quotesinglbase" unicode="&#x201a;" horiz-adv-x="329" 
d="M221 40q0 -72 -51 -134q-15 -20 -33 -31.5t-25 -8.5q-14 8 -17 24q48 45 56 100q-43 13 -43 59q-4 38 33 51q36 14 62 -11q19 -18 18 -49z" />
    <glyph glyph-name="quotereversed" unicode="&#x201b;" horiz-adv-x="329" 
d="M221 686q0 -46 -43 -59q8 -55 56 -100q-3 -16 -17 -24q-7 -3 -25 8.5t-33 31.5q-51 61 -51 134q-2 48 39 61q34 11 59 -11q17 -16 15 -41z" />
    <glyph glyph-name="quotedblleft" unicode="&#x201c;" horiz-adv-x="491" 
d="M270 564q0 73 51 134q15 20 33 31.5t25 8.5q14 -8 17 -24q-48 -45 -56 -100q43 -13 43 -59q4 -38 -33 -51q-36 -14 -62 11q-19 18 -18 49zM108 564q0 73 51 134q15 20 33 31.5t25 8.5q14 -8 17 -24q-48 -45 -56 -100q43 -13 43 -59q4 -38 -33 -51q-36 -14 -62 11
q-19 18 -18 49z" />
    <glyph glyph-name="quotedblright" unicode="&#x201d;" horiz-adv-x="491" 
d="M221 677q0 -73 -51 -134q-15 -20 -33 -31.5t-25 -8.5q-14 8 -17 24q48 45 56 100q-43 13 -43 59q-4 38 33 51q36 14 62 -11q19 -18 18 -49zM383 677q0 -73 -51 -134q-15 -20 -33 -31.5t-25 -8.5q-14 8 -17 24q48 45 56 100q-43 13 -43 59q-4 38 33 51q36 14 62 -11
q19 -18 18 -49z" />
    <glyph glyph-name="quotedblbase" unicode="&#x201e;" horiz-adv-x="491" 
d="M221 40q0 -72 -51 -134q-15 -20 -33 -31.5t-25 -8.5q-14 8 -17 24q48 45 56 100q-43 13 -43 59q-4 38 33 51q36 14 62 -11q19 -18 18 -49zM383 40q0 -72 -51 -134q-15 -20 -33 -31.5t-25 -8.5q-14 8 -17 24q48 45 56 100q-43 13 -43 59q-4 38 33 51q36 14 62 -11
q19 -18 18 -49z" />
    <glyph glyph-name="uni201F" unicode="&#x201f;" horiz-adv-x="491" 
d="M383 686q0 -46 -43 -59q8 -55 56 -100q-3 -16 -17 -24q-7 -3 -25 8.5t-33 31.5q-51 61 -51 134q-2 48 39 61q34 11 59 -11q17 -16 15 -41zM221 686q0 -46 -43 -59q8 -55 56 -100q-3 -16 -17 -24q-7 -3 -25 8.5t-33 31.5q-51 61 -51 134q-2 48 39 61q34 11 59 -11
q17 -16 15 -41z" />
    <glyph glyph-name="dagger" unicode="&#x2020;" horiz-adv-x="521" 
d="M58 576l167 -9l-8 173q30 8 59 8q30 0 28 -21l-8 -160l149 9q22 0 22 -29v-45l-169 9v-642h-47q-28 0 -28 23v619l-149 -8q-21 0 -21 26q0 22 5 47z" />
    <glyph glyph-name="daggerdbl" unicode="&#x2021;" horiz-adv-x="532" 
d="M63 576l167 -9l-7 173q29 8 58 8q14 0 21.5 -4.5t6.5 -14.5l-8 -162l149 9q23 0 23 -29v-45l-170 9v-406l147 9q23 0 23 -28v-46l-172 9l8 -159q1 -11 -6 -16t-22 -5q-29 0 -58 8l7 172l-151 -8q-21 0 -21 26q0 22 5 47l165 -9v406l-149 -8q-21 0 -21 26q0 22 5 47z" />
    <glyph glyph-name="bullet" unicode="&#x2022;" horiz-adv-x="432" 
d="M219 219q-47 0 -79.5 33t-32.5 85q0 49 29.5 78.5t76.5 29.5t80 -33t33 -85q0 -49 -29.5 -78.5t-77.5 -29.5z" />
    <glyph glyph-name="onedotenleader" unicode="&#x2024;" horiz-adv-x="329" 
d="M221 44q0 -25 -15.5 -40.5t-39.5 -15.5t-41 17t-17 44q0 25 15.5 40.5t39.5 15.5t41 -17t17 -44z" />
    <glyph glyph-name="twodotenleader" unicode="&#x2025;" horiz-adv-x="658" 
d="M221 44q0 -25 -15.5 -40.5t-39.5 -15.5t-41 17t-17 44q0 25 15.5 40.5t39.5 15.5t41 -17t17 -44zM550 44q0 -25 -15.5 -40.5t-39.5 -15.5t-41 17t-17 44q0 25 15.5 40.5t39.5 15.5t41 -17t17 -44z" />
    <glyph glyph-name="ellipsis" unicode="&#x2026;" horiz-adv-x="987" 
d="M221 44q0 -25 -15.5 -40.5t-39.5 -15.5t-41 17t-17 44q0 25 15.5 40.5t39.5 15.5t41 -17t17 -44zM879 44q0 -25 -15.5 -40.5t-39.5 -15.5t-41 17t-17 44q0 25 15.5 40.5t39.5 15.5t41 -17t17 -44zM550 44q0 -25 -15.5 -40.5t-39.5 -15.5t-41 17t-17 44q0 25 15.5 40.5
t39.5 15.5t41 -17t17 -44z" />
    <glyph glyph-name="perthousand" unicode="&#x2030;" horiz-adv-x="1258" 
d="M384 532q0 -80 -48 -128q-47 -48 -118 -48q-72 0 -118 48q-47 49 -47 128q0 78 47 127q46 49 118 49t118 -49q48 -48 48 -127zM131 536q0 -53 25 -83t67 -30q37 0 59.5 29t22.5 77q0 52 -24.5 82t-66.5 30q-38 0 -60.5 -28.5t-22.5 -76.5zM266 26l282 674h38q26 0 26 -15
q0 -5 -3 -11l-282 -674h-38q-26 0 -26 15q0 5 3 11zM822 168q0 -80 -48 -128q-46 -48 -118 -48t-118 48q-47 49 -47 128q0 78 47 127q46 49 118 49t118 -49q48 -48 48 -127zM569 172q0 -53 25 -83t67 -30q37 0 59.5 29t22.5 77q0 52 -24.5 82t-66.5 30q-38 0 -60.5 -28.5
t-22.5 -76.5zM1205 168q0 -80 -48 -128q-47 -48 -118 -48t-118 48q-47 49 -47 128q0 78 47 127q46 49 118 49t118 -49q48 -48 48 -127zM952 172q0 -53 25 -83t67 -30q37 0 59.5 29t22.5 77q0 52 -24.5 82t-66.5 30q-38 0 -60.5 -28.5t-22.5 -76.5z" />
    <glyph glyph-name="minute" unicode="&#x2032;" horiz-adv-x="314" 
d="M234 675l-82 -248h-42q-15 0 -22 5.5t-4 16.5l62 249q26 9 61 9q38 0 27 -32z" />
    <glyph glyph-name="second" unicode="&#x2033;" horiz-adv-x="481" 
d="M234 675l-82 -248h-42q-15 0 -22 5.5t-4 16.5l62 249q26 9 61 9q38 0 27 -32zM401 675l-88 -248h-42q-15 0 -22 5.5t-4 16.5l68 249q25 9 61 9q38 0 27 -32z" />
    <glyph glyph-name="guilsinglleft" unicode="&#x2039;" horiz-adv-x="369" 
d="M303 177v-64l-225 158q-15 13 -15 30v40l208 147q11 8 18 8q15 0 15 -24q0 -25 -6 -49l-163 -111l154 -106q14 -11 14 -29z" />
    <glyph glyph-name="guilsinglright" unicode="&#x203a;" horiz-adv-x="369" 
d="M289 271l-225 -158v64q0 18 14 29l154 106l-163 111q-6 24 -6 49q0 24 15 24q7 0 18 -8l208 -147v-40q0 -17 -15 -30z" />
    <glyph glyph-name="exclamdbl" unicode="&#x203c;" horiz-adv-x="506" 
d="M110 201q-13 186 -13 366v131q34 8 69 8q31 0 31 -22v-117q0 -184 -14 -388h-46q-14 0 -19.5 5t-7.5 17zM91 49q0 25 15 40.5t39 15.5q25 0 42 -17.5t17 -43.5q4 -39 -33 -51q-36 -13 -62 11q-19 17 -18 45zM321 201q-13 186 -13 366v131q34 8 69 8q31 0 31 -22v-117
q0 -184 -14 -388h-46q-14 0 -19.5 5t-7.5 17zM302 49q0 25 15 40.5t39 15.5t41.5 -17.5t17.5 -43.5q4 -39 -33 -51q-36 -13 -62 11q-19 17 -18 45z" />
    <glyph glyph-name="uni203E" unicode="&#x203e;" horiz-adv-x="417" 
d="M80 678h243q19 0 19 -25v-39h-250q-18 0 -18 23q0 19 6 41z" />
    <glyph glyph-name="fraction" unicode="&#x2044;" horiz-adv-x="171" 
d="M256 672l-281 -672h-39q-24 0 -24 16q0 6 3 12l281 672h39q24 0 24 -16q0 -6 -3 -12z" />
    <glyph glyph-name="zerosuperior" unicode="&#x2070;" 
d="M318 333q-44 -57 -119 -57q-77 0 -120 57q-44 59 -44 159t44 158q43 58 120 58q75 0 119 -57q44 -58 44 -159t-44 -159zM194 648q-87 0 -87 -150q0 -76 25 -119t71 -43q42 0 65 38.5t23 111.5q0 76 -25.5 119t-71.5 43z" />
    <glyph glyph-name="uni2071" unicode="&#x2071;" 
d="M160 355v233q27 7 45 7q24 0 24 -18v-217q0 -15 4 -20.5t15 -5.5h16q5 -13 5 -25q0 -11 -15.5 -20.5t-35.5 -9.5q-58 0 -58 76zM194 646q-16 0 -27.5 11.5t-11.5 28.5q0 27 22.5 36.5t42.5 -9.5q19 -18 9 -44.5t-35 -22.5z" />
    <glyph glyph-name="foursuperior" unicode="&#x2074;" 
d="M108 426h135v202q-42 -36 -79 -92q-35 -52 -56 -110zM368 403v-36h-54v-83h-48q-23 0 -23 19v64h-175q-19 0 -26 13q-8 14 -10 36q22 77 80 159q58 80 126 124q23 6 47 6q17 0 23 -5.5t6 -18.5v-255h36q18 0 18 -23z" />
    <glyph glyph-name="fivesuperior" unicode="&#x2075;" 
d="M331 677v-36h-174l-13 -91q19 6 46 6q68 0 112 -38.5t44 -101.5q0 -62 -43.5 -101t-117.5 -39q-50 0 -93 17q-41 18 -41 35q0 20 10 34q56 -27 116 -27q45 0 71.5 21t26.5 60q0 38 -27 59t-73 21q-33 0 -56 -6q-12 -4 -21 -4q-6 0 -14 5l-15 9l27 200h216q19 0 19 -23z
" />
    <glyph glyph-name="sixsuperior" unicode="&#x2076;" 
d="M215 649q-43 0 -71.5 -33.5t-32.5 -94.5q40 31 102 31q65 0 106 -38.5t41 -99.5t-41 -99.5t-108 -38.5q-75 0 -125 57q-48 57 -48 147v8q0 102 49 160q49 60 127 60q96 0 129 -70q5 -13 5 -19q0 -10 -16 -19q-17 -10 -43 -13q-17 62 -74 62zM201 493q-51 0 -91 -29
q3 -60 31 -94.5t73 -34.5q32 0 53 20.5t21 54.5q0 39 -24 61t-63 22z" />
    <glyph glyph-name="sevensuperior" unicode="&#x2077;" 
d="M350 656q-109 -179 -157 -372h-48q-27 0 -19 24q45 172 141 334h-201q-20 0 -20 20q0 16 6 38h259q19 0 27 -12q8 -14 12 -32z" />
    <glyph glyph-name="eightsuperior" unicode="&#x2078;" 
d="M125 597q0 -21 21 -37.5t71 -33.5q50 29 50 71q0 22 -20 36.5t-50 14.5q-32 0 -52 -14.5t-20 -36.5zM287 395q0 27 -22.5 45t-80.5 36q-75 -32 -75 -81q0 -26 25 -43t64 -17t64 17.5t25 42.5zM38 396q0 73 88 103q-73 36 -73 97q0 48 39.5 80t104.5 32q64 0 103 -32
t39 -80q0 -58 -64 -92q84 -41 84 -107q0 -54 -44 -87.5t-117 -33.5q-72 0 -116 33t-44 87z" />
    <glyph glyph-name="ninesuperior" unicode="&#x2079;" 
d="M177 276q-42 0 -79 17q-35 18 -35 34q0 22 10 35q40 -27 97 -27q49 0 80.5 32.5t36.5 95.5q-44 -31 -104 -31q-64 0 -104.5 39t-40.5 100q0 60 41 98.5t107 38.5q76 0 124 -57q49 -55 49 -146v-8q0 -106 -49 -163.5t-133 -57.5zM183 649q-33 0 -53.5 -20.5t-20.5 -54.5
q0 -39 24 -61t64 -22q50 0 90 29q-3 60 -31 94.5t-73 34.5z" />
    <glyph glyph-name="uni207A" unicode="&#x207a;" 
d="M343 498v-33h-110v-119h-46q-23 0 -23 17v102h-92q-17 0 -17 21q0 22 4 34h105v114q18 6 45 6q24 0 24 -17v-103h92q18 0 18 -22z" />
    <glyph glyph-name="uni207B" unicode="&#x207b;" 
d="M343 498v-33h-271q-17 0 -17 21q0 22 4 34h266q18 0 18 -22z" />
    <glyph glyph-name="uni207C" unicode="&#x207c;" 
d="M343 558v-33h-271q-17 0 -17 21q0 22 4 35h266q18 0 18 -23zM343 437v-32h-271q-17 0 -17 21q0 22 4 34h266q18 0 18 -23z" />
    <glyph glyph-name="uni207D" unicode="&#x207d;" 
d="M218 733q27 32 45 20q12 -8 20 -26q-76 -98 -76 -235t76 -234q-8 -19 -20 -27q-18 -12 -45 20q-81 93 -81 241t81 241z" />
    <glyph glyph-name="uni207E" unicode="&#x207e;" 
d="M179 251q-27 -32 -45 -20q-12 8 -20 27q77 100 77 234t-77 235q8 18 20 26q18 12 45 -20q81 -91 81 -241t-81 -241z" />
    <glyph glyph-name="uni207F" unicode="&#x207f;" 
d="M125 520v-237h-45q-24 0 -24 18v300q27 8 45 8q24 0 24 -19v-21q46 43 101 43q115 0 115 -138v-115q0 -25 18 -25h16q10 -20 -1 -37t-42 -18q-60 0 -60 84v112q0 80 -63 80q-46 0 -84 -35z" />
    <glyph glyph-name="zeroinferior" unicode="&#x2080;" 
d="M319 -78q-43 -57 -119 -57q-77 0 -120 58q-44 58 -44 158t44 158q43 58 120 58q76 0 119 -57q44 -58 44 -159t-44 -159zM195 237q-87 0 -87 -150q0 -76 25 -119t71 -43q42 0 65 38.5t23 111.5q0 76 -25.5 119t-71.5 43z" />
    <glyph glyph-name="oneinferior" unicode="&#x2081;" 
d="M264 269v-396h-49q-23 0 -23 19v316l-89 -56q-16 9 -28 24q-7 10 -7 17q0 10 11 18l124 78h38q23 0 23 -20z" />
    <glyph glyph-name="twoinferior" unicode="&#x2082;" 
d="M344 157q0 -122 -160 -225h143q19 0 19 -23v-36h-252q-30 0 -37 52q95 50 154 109q61 61 61 124q0 38 -21 59t-56 21q-61 0 -84 -77q-28 1 -49 13q-13 7 -13 19q0 9 4 17q18 40 55.5 63.5t87.5 23.5q66 0 107 -38.5t41 -101.5z" />
    <glyph glyph-name="threeinferior" unicode="&#x2083;" 
d="M168 71q-22 3 -29 19q-5 11 -7 25l104 115h-163q-19 0 -19 21q0 16 5 38h230q21 0 30 -15q7 -11 10 -30l-114 -127q127 -25 127 -126q0 -57 -45 -91.5t-119 -34.5q-53 0 -92 19q-40 18 -40 36t9 33q61 -29 117 -29q47 0 73 18t26 48q0 69 -103 81z" />
    <glyph glyph-name="fourinferior" unicode="&#x2084;" 
d="M109 15h135v202q-42 -36 -79 -92q-35 -52 -56 -110zM369 -8v-36h-54v-83h-48q-23 0 -23 19v64h-175q-19 0 -26 13q-8 14 -10 36q22 77 80 159q58 80 126 124q23 6 47 6q17 0 23 -5.5t6 -18.5v-255h36q18 0 18 -23z" />
    <glyph glyph-name="fiveinferior" unicode="&#x2085;" 
d="M332 266v-36h-174l-13 -91q19 6 46 6q68 0 112 -38.5t44 -101.5q0 -62 -43.5 -101t-117.5 -39q-51 0 -93 18q-41 17 -41 34q0 20 10 34q56 -27 116 -27q45 0 71.5 21t26.5 60q0 38 -27 59t-73 21q-34 0 -56 -6q-12 -4 -21 -4q-6 0 -14 5l-15 9l27 200h216q19 0 19 -23z
" />
    <glyph glyph-name="sixinferior" unicode="&#x2086;" 
d="M216 238q-43 0 -71.5 -33.5t-32.5 -94.5q40 31 102 31q65 0 106 -38.5t41 -99.5t-41 -99.5t-108 -38.5q-75 0 -125 57q-48 57 -48 147v8q0 102 49 160q50 60 127 60q96 0 129 -70q5 -13 5 -19q0 -10 -16 -19q-17 -10 -43 -13q-17 62 -74 62zM202 82q-51 0 -91 -29
q3 -60 31 -94.5t73 -34.5q33 0 53.5 21t20.5 54q0 39 -24 61t-63 22z" />
    <glyph glyph-name="seveninferior" unicode="&#x2087;" 
d="M350 245q-109 -179 -157 -372h-48q-27 0 -19 24q45 172 141 334h-201q-20 0 -20 20q0 15 6 38h259q19 0 27 -12q8 -14 12 -32z" />
    <glyph glyph-name="eightinferior" unicode="&#x2088;" 
d="M126 186q0 -21 21 -37.5t71 -33.5q50 29 50 71q0 22 -20 36.5t-50 14.5q-32 0 -52 -14.5t-20 -36.5zM288 -16q0 27 -22.5 45t-80.5 36q-75 -31 -75 -81q0 -26 25 -43t64 -17t64 17.5t25 42.5zM39 -15q0 73 88 103q-73 36 -73 97q0 48 39.5 80t104.5 32q64 0 103 -32
t39 -80q0 -58 -64 -92q84 -41 84 -107q0 -54 -44 -87.5t-117 -33.5q-72 0 -116 33t-44 87z" />
    <glyph glyph-name="nineinferior" unicode="&#x2089;" 
d="M178 -135q-43 0 -79 18q-35 17 -35 33q0 22 10 35q40 -27 97 -27q49 0 80.5 32.5t36.5 95.5q-44 -31 -104 -31q-64 0 -104.5 39t-40.5 100q0 60 41 98.5t107 38.5q76 0 124 -57q49 -55 49 -146v-8q0 -106 -49 -163.5t-133 -57.5zM184 238q-32 0 -53 -21t-21 -54
q0 -39 24 -61t64 -22q50 0 90 29q-3 60 -31 94.5t-73 34.5z" />
    <glyph glyph-name="uni208A" unicode="&#x208a;" 
d="M347 87v-33h-110v-119h-46q-23 0 -23 17v102h-92q-17 0 -17 21q0 22 4 34h105v114q18 6 45 6q24 0 24 -17v-103h92q18 0 18 -22z" />
    <glyph glyph-name="uni208B" unicode="&#x208b;" 
d="M347 87v-33h-271q-17 0 -17 21q0 22 4 34h266q18 0 18 -22z" />
    <glyph glyph-name="uni208C" unicode="&#x208c;" 
d="M347 147v-33h-271q-17 0 -17 21q0 22 4 35h266q18 0 18 -23zM347 26v-32h-271q-17 0 -17 21q0 22 4 34h266q18 0 18 -23z" />
    <glyph glyph-name="uni208D" unicode="&#x208d;" 
d="M231 322q27 32 45 20q12 -8 20 -26q-76 -98 -76 -235t76 -234q-8 -19 -20 -27q-18 -12 -45 20q-81 93 -81 241t81 241z" />
    <glyph glyph-name="uni208E" unicode="&#x208e;" 
d="M177 -160q-27 -32 -45 -20q-12 8 -20 27q77 100 77 234t-77 235q8 18 20 26q18 12 45 -20q81 -91 81 -241q0 -149 -81 -241z" />
    <glyph glyph-name="uni2090" unicode="&#x2090;" 
d="M167 144q-45 0 -88 -20q-11 14 -11 29q0 14 35 31q37 17 77 17q67 0 104 -33t37 -95v-124q0 -25 17 -25h16q5 -12 5 -25q0 -12 -13.5 -21.5t-33.5 -9.5q-46 0 -56 48q-36 -51 -99 -51q-50 0 -83 29.5t-33 75.5q0 49 36.5 78t96.5 29q45 0 78 -13v9q0 71 -85 71zM168 -77
q54 0 84 53v36q-27 8 -72 8q-69 0 -69 -49q0 -23 16 -35.5t41 -12.5z" />
    <glyph glyph-name="uni2091" unicode="&#x2091;" 
d="M232 -78q43 0 79 17q8 -14 8 -28q0 -18 -30 -32t-70 -14q-71 0 -118 47t-47 121q0 75 47 122q46 46 115 46q58 0 95 -33.5t37 -84.5q0 -29 -9 -51q-11 -26 -48 -26h-166q6 -39 35 -61.5t72 -22.5zM214 145q-36 0 -59.5 -22.5t-28.5 -59.5h152q4 9 4 21q0 29 -18.5 45
t-49.5 16z" />
    <glyph glyph-name="uni2092" unicode="&#x2092;" 
d="M39 34q0 76 46 121q46 46 114 46q67 0 113 -46q46 -45 46 -122t-46 -122q-46 -46 -113 -46q-68 0 -114 46t-46 123zM203 -78q39 0 63 28t24 79q0 52 -27 83.5t-67 31.5q-39 0 -63 -28t-24 -79q0 -52 27 -83.5t67 -31.5z" />
    <glyph glyph-name="uni2093" unicode="&#x2093;" 
d="M118 189l83 -110q48 51 74 115h43q22 0 22 -14q0 -4 -3 -10q-30 -73 -100 -138l72 -91q14 -17 24 -17h15q5 -13 5 -25t-11.5 -21.5t-29.5 -9.5q-26 0 -49 30l-74 93q-46 -49 -75 -118h-42q-22 0 -22 15q0 1 2 9q32 79 101 140l-101 132q26 29 46 29q12 0 20 -9z" />
    <glyph glyph-name="uni2094" unicode="&#x2094;" 
d="M165 145q-43 0 -78 -18q-8 14 -8 28q0 18 29.5 32t68.5 14q72 0 119 -47t47 -120q0 -76 -47 -123q-46 -46 -115 -46q-58 0 -95 33.5t-37 84.5q0 29 9 51q11 26 48 26h166q-6 40 -34.5 62.5t-72.5 22.5zM184 -78q35 0 58.5 22.5t29.5 59.5h-153q-3 -18 -3 -22
q0 -28 18.5 -44t49.5 -16z" />
    <glyph glyph-name="uni20A0" unicode="&#x20a0;" horiz-adv-x="777" 
d="M734 46v-46h-186q-80 0 -115.5 42.5t-35.5 143.5v35q-39 -17 -99 -17q-110 0 -183 73t-73 196q0 110 64 174q65 65 161 65q119 0 173 -87q10 -16 10 -29q0 -15 -16 -22q-23 -12 -51 -14q-29 77 -116 77q-58 0 -97 -46q-39 -45 -39 -117q0 -94 52 -146t132 -52q49 0 82 11
v204h306q20 0 20 -26q0 -27 -6 -49h-231v-130h178q22 0 22 -28v-46h-200v-33q0 -60 15.5 -82.5t56.5 -22.5h154q22 0 22 -28z" />
    <glyph glyph-name="colonmonetary" unicode="&#x20a1;" horiz-adv-x="687" 
d="M245 32l-27 -120h-25q-14 0 -18.5 5t-1.5 19l28 124q-143 107 -143 311q0 148 83 240q84 91 208 100l18 77h25q14 0 18.5 -5t1.5 -19l-12 -53q26 -3 56 -9l20 86h25q14 0 18.5 -5t1.5 -19l-18 -77q94 -37 135 -122q5 -12 5 -17q0 -24 -27 -34q-20 -10 -51 -13
q-26 66 -81 101l-120 -527q39 -9 82 -9q92 0 162 38q12 -20 12 -42q0 -24 -57 -49q-56 -25 -131 -25q-45 0 -86 9l-19 -85h-25q-14 0 -18.5 5t-1.5 19l16 73q-35 13 -53 23zM150 374q0 -132 74 -215l107 470q-77 -13 -130 -82q-51 -67 -51 -173zM382 632l-117 -511
q26 -19 52 -30l121 532q-26 8 -56 9z" />
    <glyph glyph-name="uni20A2" unicode="&#x20a2;" horiz-adv-x="687" 
d="M375 712q91 0 160.5 -39.5t102.5 -107.5q5 -12 5 -17q0 -24 -27 -34q-20 -10 -51 -13q-25 63 -75.5 97.5t-119.5 34.5q-91 0 -155 -70q-65 -70 -65 -189q0 -97 42 -168.5t115 -107.5v329q20 7 67 7q20 0 20 -17v-60q15 34 49 55.5t75 21.5q35 0 59 -12q20 -9 20 -26
q0 -11 -8 -22q-12 -15 -33 -32q-29 16 -62 17t-62.5 -23t-37.5 -66v-200q28 -4 52 -4q92 0 162 38q12 -20 12 -42q0 -24 -57 -49q-56 -25 -131 -25q-161 0 -268 104q-106 105 -106 279q0 157 92 249t225 92z" />
    <glyph glyph-name="franc" unicode="&#x20a3;" horiz-adv-x="549" 
d="M25 421h69v279h397q20 0 20 -26q0 -28 -6 -52h-320v-201h251q18 0 18 -24v-26h-269v-74h251q10 0 14 -5t4 -19v-25h-269v-248h-63q-28 0 -28 22v226h-60q-14 0 -14 17q0 14 5 32h69v74h-60q-14 0 -14 17q0 15 5 33z" />
    <glyph glyph-name="lira" unicode="&#x20a4;" horiz-adv-x="596" 
d="M64 28v42q35 29 45 61q12 35 12 97h-55q-14 0 -14 17q0 15 5 33h64v73h-55q-14 0 -14 18q0 14 5 32h64v82q0 105 57.5 167t151.5 62q72 0 126.5 -38t79.5 -102q6 -14 6 -24q0 -14 -21 -24q-26 -13 -59 -16q-15 62 -50 93.5t-82 31.5q-55 0 -86.5 -38.5t-31.5 -107.5v-86
h199q19 0 19 -24v-26h-218v-73h199q19 0 19 -25v-25h-218q-1 -109 -48 -151h367q22 0 22 -28v-49h-466q-23 0 -23 28z" />
    <glyph glyph-name="uni20A6" unicode="&#x20a6;" horiz-adv-x="718" 
d="M32 430h62v248q37 28 67 28q18 0 27 -15l167 -261h178v270h63q28 0 28 -22v-248h48q10 0 14 -5t4 -19v-25h-66v-61h48q10 0 14 -5t4 -19v-25h-66v-249q-37 -28 -67 -28q-17 0 -27 15l-168 262h-177v-271h-63q-28 0 -28 22v249h-52q-14 0 -14 17q0 15 4 32h62v61h-52
q-14 0 -14 17q0 15 4 32zM533 381h-146l39 -61h107v61zM291 381h-106v-61h146zM533 271h-76l76 -117v117zM260 430l-75 116v-116h75z" />
    <glyph glyph-name="peseta" unicode="&#x20a7;" horiz-adv-x="1157" 
d="M251 196q-33 0 -65 8v-204h-63q-28 0 -28 22v678h118q212 0 264 -166h80v150q30 9 60 9q27 0 27 -21v-138h149q19 0 20 -21q47 33 113 33q116 0 167 -89q6 -11 6 -19q0 -13 -14 -24q-24 -18 -61 -21q-28 78 -100 78q-36 0 -59 -21t-23 -54q0 -36 25.5 -56.5t86.5 -36.5
q150 -41 150 -156q0 -69 -49 -108t-140 -39h-191q-80 0 -123.5 51.5t-43.5 146.5v262h-69v-14q0 -116 -70 -183q-68 -67 -167 -67zM742 74h163q112 0 112 70q0 33 -21.5 52.5t-71.5 32.5q-87 21 -128 61t-41 105q0 37 15 65h-126v-283q0 -103 98 -103zM236 622h-50v-343
q22 -5 51 -5q68 0 114 46t46 128q0 81 -45 127.5t-116 46.5z" />
    <glyph glyph-name="uni20A8" unicode="&#x20a8;" horiz-adv-x="977" 
d="M482 -12q-46 0 -82 43q-58 70 -102 187q-18 -2 -43 -2q-44 0 -69 7v-223h-63q-28 0 -28 22v678h152q126 0 200 -65t74 -177q0 -78 -36.5 -134.5t-101.5 -83.5q39 -96 88 -151q24 -27 56 -27h18q4 -11 4 -29q0 -19 -18 -32t-49 -13zM776 296q147 -48 147 -158
q0 -67 -47 -108.5t-127 -41.5q-66 0 -109 22q-44 23 -44 46q0 26 12 39q68 -33 131 -33q46 0 71.5 19t25.5 53q0 60 -90 87q-165 49 -165 173q0 68 46 110t121 42q54 0 97 -24t66 -66q13 -26 -8 -43q-21 -15 -60 -20q-29 78 -97 78q-36 0 -57.5 -21.5t-21.5 -54.5
q0 -36 25.5 -58t83.5 -41zM241 622h-55v-323q25 -5 55 -5q86 0 136 43t50 121t-49.5 121t-136.5 43z" />
    <glyph glyph-name="uni20A9" unicode="&#x20a9;" horiz-adv-x="1113" 
d="M32 305h131l-19 60h-103q-14 0 -14 17q0 15 5 33h97l-81 264q41 26 70 26q21 0 27 -18l79 -272h203q39 140 68 285h83q32 0 40 -24l75 -261h204q35 114 68 285h66q16 0 22.5 -6t4.5 -19q-25 -128 -64 -260h77q19 0 19 -24v-26h-112l-20 -60h113q19 0 19 -24v-26h-149
q-42 -117 -96 -232q-11 -23 -41 -23h-79l-73 255h-187q-46 -126 -93 -232q-11 -23 -41 -23h-75l-78 255h-137q-14 0 -14 17q0 15 5 33zM725 305h137l19 60h-174zM256 305h136q14 37 20 60h-173zM621 365h-120l-11 -35l-4 -12.5t-3 -9.5l-1 -3h156zM739 255l43 -148
q40 89 61 148h-104zM271 255l44 -148q29 65 60 148h-104zM606 415l-48 171q-23 -101 -43 -171h91z" />
    <glyph glyph-name="afii57636" unicode="&#x20aa;" horiz-adv-x="897" 
d="M596 414v-162h-63q-28 0 -28 22v135q0 116 -39.5 164.5t-123.5 48.5h-156v-622h-63q-28 0 -28 22v678h246q131 0 193 -70.5t62 -215.5zM300 286v152q30 10 64 10q27 0 27 -21v-137q0 -117 38.5 -165t124.5 -48h156v623h63q28 0 28 -23v-677h-246q-131 0 -193 70.5
t-62 215.5z" />
    <glyph glyph-name="dong" unicode="&#x20ab;" horiz-adv-x="652" 
d="M300 62q54 0 98 35.5t70 103.5v176q-57 54 -137 54q-81 0 -136 -58q-54 -58 -54 -145q0 -75 43.5 -120.5t115.5 -45.5zM565 -117v-41h-403q-20 0 -20 26q0 27 6 43h394q23 0 23 -28zM469 92q-68 -104 -188 -104q-96 0 -163 65q-65 65 -65 173q0 120 77 200q78 80 188 80
q88 0 150 -53v122h-161q-20 0 -20 19q0 26 4 39h177v67h59q28 0 28 -23v-44h38q22 0 22 -28v-30h-60v-457q0 -55 38 -55h20q5 -17 5 -31q0 -16 -18.5 -27.5t-46.5 -11.5q-35 0 -57.5 26t-26.5 73z" />
    <glyph glyph-name="Euro" unicode="&#x20ac;" horiz-adv-x="687" 
d="M58 371v10h-38q-14 0 -14 17q0 15 5 33h51q17 131 105 206t208 75q91 0 160.5 -39.5t102.5 -107.5q5 -12 5 -17q0 -24 -27 -34q-20 -10 -51 -13q-25 63 -75.5 97.5t-119.5 34.5q-77 0 -139 -54q-60 -51 -77 -148h246q18 0 18 -24v-26h-268v-7q0 -29 5 -67h245q10 0 14 -5
t4 -19v-25h-251q30 -90 104.5 -141t174.5 -51q92 0 162 38q12 -20 12 -42q0 -24 -57 -49q-56 -25 -131 -25q-134 0 -231 72t-129 198h-52q-14 0 -14 17q0 14 5 32h51q-4 24 -4 64z" />
    <glyph glyph-name="afii61248" unicode="&#x2105;" horiz-adv-x="1037" 
d="M397 624q3 -8 3 -12q0 -10 -11 -19q-16 -14 -49 -19q-26 71 -104 71q-49 0 -81.5 -37t-32.5 -98q0 -75 45 -120q47 -44 112 -44q56 0 97 25q12 -15 12 -35q0 -17 -38 -37q-37 -19 -86 -19q-92 0 -157 64q-65 65 -65 164q0 94 57 149q56 55 140 55q53 0 96 -24t62 -64z
M789 424q87 0 145 -58q60 -58 60 -158t-60 -159q-58 -57 -145 -57q-86 0 -145 58q-59 59 -59 158t59 158q59 58 145 58zM913 202q0 69 -36.5 112t-91.5 43q-52 0 -86 -38.5t-34 -105.5q0 -69 36.5 -112t91.5 -43q53 0 86.5 38.5t33.5 105.5zM325 26l282 674h38q26 0 26 -15
q0 -5 -3 -11l-282 -674h-38q-26 0 -26 15q0 5 3 11z" />
    <glyph glyph-name="uni2109" unicode="&#x2109;" horiz-adv-x="865" 
d="M200 478q35 0 57.5 24t22.5 63t-24 65t-60 26q-35 0 -57.5 -24t-22.5 -63t24 -65t60 -26zM305 463q-43 -41 -107 -41t-108 41q-42 42 -42 104q0 63 42 103q44 42 108 42q65 0 107 -42q43 -40 43 -103q0 -62 -43 -104zM502 305v-305h-63q-28 0 -28 22v678h396q20 0 20 -26
q0 -28 -6 -52h-319v-240h249q22 0 22 -28v-49h-271z" />
    <glyph glyph-name="afii61289" unicode="&#x2113;" horiz-adv-x="532" 
d="M395 122l34 -14q19 -7 19 -19q0 -7 -6 -15q-65 -86 -156 -86q-142 0 -153 179q-17 -8 -69 -28q-38 29 -38 55q0 13 13 17q36 12 94 38v216q0 122 48 184.5t136 62.5q67 0 111 -47q45 -47 45 -126q0 -197 -254 -332v-27q0 -122 75 -122q56 0 101 64zM219 465v-170
q169 102 169 247q0 46 -19.5 71.5t-52.5 25.5q-97 0 -97 -174z" />
    <glyph glyph-name="afii61352" unicode="&#x2116;" horiz-adv-x="948" 
d="M398 9l-215 514v-523h-60q-28 0 -28 22v655q38 29 68 29q19 0 26 -16l216 -514v524h59q28 0 28 -23v-655q-37 -28 -67 -28q-18 0 -27 15zM865 474q51 -54 51 -144t-51 -144t-131 -54t-131 54q-50 55 -50 144t50 144q51 54 131 54t131 -54zM639 334q0 -61 27 -94.5
t74 -33.5q42 0 65.5 32t23.5 89q0 62 -26.5 95t-72.5 33q-43 0 -67 -31.5t-24 -89.5zM900 46v-46h-310q-21 0 -21 25q0 28 7 49h302q22 0 22 -28z" />
    <glyph glyph-name="uni2117" unicode="&#x2117;" horiz-adv-x="824" 
d="M156 94q-106 106 -106 256t106 256t256 106t256 -106t106 -256t-106 -256t-256 -106t-256 106zM100 350q0 -133 91 -224q92 -92 221 -92q128 0 220 92q91 91 91 224q0 131 -91 222q-92 93 -220 93q-129 0 -221 -93q-91 -91 -91 -222zM357 273v-115h-55q-17 0 -17 13v367
h142q70 0 111 -37t41 -102q0 -62 -40 -98.5t-106 -36.5q-46 0 -76 9zM410 481h-53v-154q24 -6 55 -6q43 0 69 21t26 59q0 80 -97 80z" />
    <glyph glyph-name="uni2120" unicode="&#x2120;" horiz-adv-x="748" 
d="M191 553q103 -31 103 -105q0 -42 -33.5 -68t-90.5 -26q-39 0 -73 14q-33 15 -33 31q0 18 10 31q44 -25 91 -25q63 0 63 42q0 35 -59 52q-60 17 -88 44.5t-28 68.5q0 42 32 69t83 27q82 0 116 -58q5 -8 5 -16q0 -7 -10 -14q-16 -11 -45 -14q-18 49 -66 49q-49 0 -49 -43
q0 -36 72 -59zM639 375l-25 229l-64 -131q-8 -12 -25 -12h-35l-71 143l-26 -247h-38q-24 0 -24 19l34 312q26 17 45 17q15 0 23 -14l84 -163l88 172h40q24 0 25 -19l35 -324h-42q-13 0 -18 3.5t-6 14.5z" />
    <glyph glyph-name="uni2121" unicode="&#x2121;" horiz-adv-x="1012" 
d="M269 625v-625h-60q-28 0 -28 22v603h-113q-21 0 -21 25q0 23 7 50h327q22 0 22 -29v-46h-134zM670 45v-45h-125q-78 0 -114.5 41t-36.5 133v346h247q21 0 21 -26q0 -21 -7 -48h-174v-151h118q23 0 23 -28v-45h-141v-44q0 -60 15.5 -82.5t56.5 -22.5h94q23 0 23 -28z
M820 504v-326q0 -60 15.5 -82.5t56.5 -22.5h65q22 0 22 -28v-45h-82q-89 0 -126 40t-37 150v326q28 9 59 9q27 0 27 -21z" />
    <glyph glyph-name="trademark" unicode="&#x2122;" horiz-adv-x="737" 
d="M196 647v-290h-40q-24 0 -24 18v272h-81q-20 0 -20 19q0 14 5 34h240q22 0 22 -23v-30h-102zM628 375l-25 229l-64 -131q-7 -12 -25 -12h-35l-71 143l-26 -247h-38q-24 0 -24 19l34 312q26 17 45 17q15 0 23 -14l84 -163l88 172h40q24 0 25 -19l35 -324h-42
q-13 0 -18 3.5t-6 14.5z" />
    <glyph glyph-name="Omega" unicode="&#x2126;" horiz-adv-x="783" 
d="M709 49v-49h-266v49q0 19 18 29q78 44 121.5 118t43.5 163q0 131 -68 202q-68 72 -167 72q-101 0 -168 -72q-67 -70 -67 -202q0 -89 43.5 -162.5t121.5 -118.5q18 -10 18 -29v-49h-244q-21 0 -21 25q0 28 6 52h130q-69 49 -108 122t-39 162q0 158 92 255q91 96 236 96
q143 0 235 -96q93 -96 93 -255q0 -89 -39 -162.5t-108 -121.5h114q23 0 23 -28z" />
    <glyph glyph-name="estimated" unicode="&#x212e;" horiz-adv-x="782" 
d="M391 657q-133 0 -198 -78v-206h396v205q-67 79 -198 79zM658 97q0 -14 -32 -40q-33 -25 -94 -47q-62 -22 -133 -22q-145 0 -243 99q-96 99 -96 263q0 154 89 258q90 104 246 104q149 0 238 -104t89 -262v-27h-529v-180q29 -45 85.5 -71t123.5 -26q144 0 238 85
q18 -17 18 -30z" />
    <glyph glyph-name="onethird" unicode="&#x2153;" horiz-adv-x="947" 
d="M263 680v-396h-49q-23 0 -23 19v316l-89 -56q-16 9 -28 24q-7 10 -7 17q0 10 11 18l124 78h38q23 0 23 -20zM638 672l-281 -672h-39q-24 0 -24 16q0 6 3 12l281 672h39q24 0 24 -16q0 -6 -3 -12zM717 198q-22 3 -29 19q-5 11 -7 25l104 115h-163q-19 0 -19 21q0 16 5 38
h230q21 0 30 -15q7 -11 10 -30l-114 -127q127 -25 127 -126q0 -57 -45 -91.5t-119 -34.5q-51 0 -92 18q-40 19 -40 37t9 33q61 -29 117 -29q47 0 73 18t26 48q0 69 -103 81z" />
    <glyph glyph-name="twothirds" unicode="&#x2154;" horiz-adv-x="947" 
d="M343 568q0 -122 -160 -225h143q19 0 19 -23v-36h-252q-31 0 -37 52q94 50 154 109q61 61 61 124q0 37 -21.5 58.5t-55.5 21.5q-61 0 -84 -77q-28 1 -49 13q-13 7 -13 19q0 9 4 17q18 40 55.5 63.5t87.5 23.5q66 0 107 -38.5t41 -101.5zM638 672l-281 -672h-39
q-24 0 -24 16q0 6 3 12l281 672h39q24 0 24 -16q0 -6 -3 -12zM717 198q-22 3 -29 19q-5 11 -7 25l104 115h-163q-19 0 -19 21q0 16 5 38h230q21 0 30 -15q7 -11 10 -30l-114 -127q127 -25 127 -126q0 -57 -45 -91.5t-119 -34.5q-51 0 -92 18q-40 19 -40 37t9 33
q61 -29 117 -29q47 0 73 18t26 48q0 69 -103 81z" />
    <glyph glyph-name="onefifth" unicode="&#x2155;" horiz-adv-x="947" 
d="M263 680v-396h-49q-23 0 -23 19v316l-89 -56q-16 9 -28 24q-7 10 -7 17q0 10 11 18l124 78h38q23 0 23 -20zM638 672l-281 -672h-39q-24 0 -24 16q0 6 3 12l281 672h39q24 0 24 -16q0 -6 -3 -12zM880 394v-36h-174l-13 -91q19 6 46 6q68 0 112 -38.5t44 -101.5
q0 -62 -43.5 -101t-117.5 -39q-50 0 -93 17q-41 18 -41 35q0 20 10 34q56 -27 116 -27q45 0 71.5 21t26.5 60q0 38 -27 59t-73 21q-34 0 -56 -6q-12 -4 -21 -4q-6 0 -14 5l-15 9l27 200h216q19 0 19 -23z" />
    <glyph glyph-name="twofifths" unicode="&#x2156;" horiz-adv-x="947" 
d="M343 568q0 -122 -160 -225h143q19 0 19 -23v-36h-252q-31 0 -37 52q94 50 154 109q61 61 61 124q0 37 -21.5 58.5t-55.5 21.5q-61 0 -84 -77q-28 1 -49 13q-13 7 -13 19q0 9 4 17q18 40 55.5 63.5t87.5 23.5q66 0 107 -38.5t41 -101.5zM638 672l-281 -672h-39
q-24 0 -24 16q0 6 3 12l281 672h39q24 0 24 -16q0 -6 -3 -12zM880 394v-36h-174l-13 -91q19 6 46 6q68 0 112 -38.5t44 -101.5q0 -62 -43.5 -101t-117.5 -39q-50 0 -93 17q-41 18 -41 35q0 20 10 34q56 -27 116 -27q45 0 71.5 21t26.5 60q0 38 -27 59t-73 21q-34 0 -56 -6
q-12 -4 -21 -4q-6 0 -14 5l-15 9l27 200h216q19 0 19 -23z" />
    <glyph glyph-name="threefifths" unicode="&#x2157;" horiz-adv-x="947" 
d="M167 482q-22 3 -29 19q-5 11 -7 25l104 115h-163q-19 0 -19 21q0 16 5 38h230q21 0 30 -15q7 -11 10 -30l-114 -127q127 -25 127 -126q0 -57 -45 -91.5t-119 -34.5q-51 0 -92 18q-40 19 -40 37t9 33q61 -29 117 -29q47 0 73 18t26 48q0 69 -103 81zM638 672l-281 -672
h-39q-24 0 -24 16q0 6 3 12l281 672h39q24 0 24 -16q0 -6 -3 -12zM880 394v-36h-174l-13 -91q19 6 46 6q68 0 112 -38.5t44 -101.5q0 -62 -43.5 -101t-117.5 -39q-50 0 -93 17q-41 18 -41 35q0 20 10 34q56 -27 116 -27q45 0 71.5 21t26.5 60q0 38 -27 59t-73 21
q-34 0 -56 -6q-12 -4 -21 -4q-6 0 -14 5l-15 9l27 200h216q19 0 19 -23z" />
    <glyph glyph-name="fourfifths" unicode="&#x2158;" horiz-adv-x="947" 
d="M108 426h135v202q-42 -36 -79 -92q-35 -52 -56 -110zM368 403v-36h-54v-83h-48q-23 0 -23 19v64h-175q-19 0 -26 13q-8 14 -10 36q22 77 80 159q58 80 126 124q23 6 47 6q17 0 23 -5.5t6 -18.5v-255h36q18 0 18 -23zM638 672l-281 -672h-39q-24 0 -24 16q0 6 3 12
l281 672h39q24 0 24 -16q0 -6 -3 -12zM880 394v-36h-174l-13 -91q19 6 46 6q68 0 112 -38.5t44 -101.5q0 -62 -43.5 -101t-117.5 -39q-50 0 -93 17q-41 18 -41 35q0 20 10 34q56 -27 116 -27q45 0 71.5 21t26.5 60q0 38 -27 59t-73 21q-34 0 -56 -6q-12 -4 -21 -4
q-6 0 -14 5l-15 9l27 200h216q19 0 19 -23z" />
    <glyph glyph-name="onesixth" unicode="&#x2159;" horiz-adv-x="947" 
d="M263 680v-396h-49q-23 0 -23 19v316l-89 -56q-16 9 -28 24q-7 10 -7 17q0 10 11 18l124 78h38q23 0 23 -20zM638 672l-281 -672h-39q-24 0 -24 16q0 6 3 12l281 672h39q24 0 24 -16q0 -6 -3 -12zM764 365q-43 0 -71.5 -33.5t-32.5 -94.5q40 31 102 31q65 0 106 -38.5
t41 -99.5t-41 -99.5t-108 -38.5q-76 0 -125 57q-48 57 -48 147v8q0 102 49 160q50 60 127 60q96 0 129 -70q5 -15 5 -19q0 -10 -16 -19q-17 -10 -43 -13q-17 62 -74 62zM750 209q-51 0 -91 -29q3 -60 31 -94.5t73 -34.5q33 0 53.5 20.5t20.5 54.5q0 39 -24 61t-63 22z" />
    <glyph glyph-name="fivesixths" unicode="&#x215a;" horiz-adv-x="947" 
d="M331 677v-36h-174l-13 -91q19 6 46 6q68 0 112 -38.5t44 -101.5q0 -62 -43.5 -101t-117.5 -39q-50 0 -93 17q-41 18 -41 35q0 20 10 34q56 -27 116 -27q45 0 71.5 21t26.5 60q0 38 -27 59t-73 21q-33 0 -56 -6q-12 -4 -21 -4q-6 0 -14 5l-15 9l27 200h216q19 0 19 -23z
M638 672l-281 -672h-39q-24 0 -24 16q0 6 3 12l281 672h39q24 0 24 -16q0 -6 -3 -12zM764 365q-43 0 -71.5 -33.5t-32.5 -94.5q40 31 102 31q65 0 106 -38.5t41 -99.5t-41 -99.5t-108 -38.5q-76 0 -125 57q-48 57 -48 147v8q0 102 49 160q50 60 127 60q96 0 129 -70
q5 -15 5 -19q0 -10 -16 -19q-17 -10 -43 -13q-17 62 -74 62zM750 209q-51 0 -91 -29q3 -60 31 -94.5t73 -34.5q33 0 53.5 20.5t20.5 54.5q0 39 -24 61t-63 22z" />
    <glyph glyph-name="oneeighth" unicode="&#x215b;" horiz-adv-x="947" 
d="M263 680v-396h-49q-23 0 -23 19v316l-89 -56q-16 9 -28 24q-7 10 -7 17q0 10 11 18l124 78h38q23 0 23 -20zM638 672l-281 -672h-39q-24 0 -24 16q0 6 3 12l281 672h39q24 0 24 -16q0 -6 -3 -12zM674 313q0 -21 21 -37.5t71 -33.5q50 29 50 71q0 22 -20 36.5t-50 14.5
q-32 0 -52 -14.5t-20 -36.5zM836 111q0 27 -22.5 45t-80.5 36q-75 -32 -75 -81q0 -26 25 -43t64 -17t64 17.5t25 42.5zM587 112q0 73 88 103q-73 36 -73 97q0 48 39.5 80t104.5 32q64 0 103 -32t39 -80q0 -58 -64 -92q84 -41 84 -107q0 -54 -44 -87.5t-117 -33.5
q-72 0 -116 33t-44 87z" />
    <glyph glyph-name="threeeighths" unicode="&#x215c;" horiz-adv-x="947" 
d="M167 482q-22 3 -29 19q-5 11 -7 25l104 115h-163q-19 0 -19 21q0 16 5 38h230q21 0 30 -15q7 -11 10 -30l-114 -127q127 -25 127 -126q0 -57 -45 -91.5t-119 -34.5q-51 0 -92 18q-40 19 -40 37t9 33q61 -29 117 -29q47 0 73 18t26 48q0 69 -103 81zM638 672l-281 -672
h-39q-24 0 -24 16q0 6 3 12l281 672h39q24 0 24 -16q0 -6 -3 -12zM674 313q0 -21 21 -37.5t71 -33.5q50 29 50 71q0 22 -20 36.5t-50 14.5q-32 0 -52 -14.5t-20 -36.5zM836 111q0 27 -22.5 45t-80.5 36q-75 -32 -75 -81q0 -26 25 -43t64 -17t64 17.5t25 42.5zM587 112
q0 73 88 103q-73 36 -73 97q0 48 39.5 80t104.5 32q64 0 103 -32t39 -80q0 -58 -64 -92q84 -41 84 -107q0 -54 -44 -87.5t-117 -33.5q-72 0 -116 33t-44 87z" />
    <glyph glyph-name="fiveeighths" unicode="&#x215d;" horiz-adv-x="947" 
d="M331 677v-36h-174l-13 -91q19 6 46 6q68 0 112 -38.5t44 -101.5q0 -62 -43.5 -101t-117.5 -39q-50 0 -93 17q-41 18 -41 35q0 20 10 34q56 -27 116 -27q45 0 71.5 21t26.5 60q0 38 -27 59t-73 21q-33 0 -56 -6q-12 -4 -21 -4q-6 0 -14 5l-15 9l27 200h216q19 0 19 -23z
M638 672l-281 -672h-39q-24 0 -24 16q0 6 3 12l281 672h39q24 0 24 -16q0 -6 -3 -12zM674 313q0 -21 21 -37.5t71 -33.5q50 29 50 71q0 22 -20 36.5t-50 14.5q-32 0 -52 -14.5t-20 -36.5zM836 111q0 27 -22.5 45t-80.5 36q-75 -32 -75 -81q0 -26 25 -43t64 -17t64 17.5
t25 42.5zM587 112q0 73 88 103q-73 36 -73 97q0 48 39.5 80t104.5 32q64 0 103 -32t39 -80q0 -58 -64 -92q84 -41 84 -107q0 -54 -44 -87.5t-117 -33.5q-72 0 -116 33t-44 87z" />
    <glyph glyph-name="seveneighths" unicode="&#x215e;" horiz-adv-x="947" 
d="M640 673l-283 -673h-39q-24 0 -24 15q0 5 2 11l282 674h39q25 0 25 -17q0 -2 -2 -10zM675 313q0 -22 20.5 -38t71.5 -33q50 29 50 71q0 22 -20 36.5t-51 14.5t-51 -14t-20 -37zM837 111q0 27 -24 46.5t-80 34.5q-74 -32 -74 -81q0 -26 24.5 -43t63.5 -17t64.5 17.5
t25.5 42.5zM587 112q0 73 88 103q-72 35 -72 97q0 48 39.5 80t103.5 32t103 -32t39 -80q0 -58 -64 -92q84 -41 84 -107q0 -54 -44 -87.5t-117 -33.5q-72 0 -116 33.5t-44 86.5zM348 655q-108 -178 -157 -371h-48q-21 0 -21 15v1q1 2 1.5 4t0.5 4q45 170 141 333h-201
q-20 0 -20 21q0 14 6 38h259q35 0 39 -45z" />
    <glyph glyph-name="uni215F" unicode="&#x215f;" horiz-adv-x="947" 
d="M263 680v-396h-49q-23 0 -23 19v316l-89 -56q-16 9 -28 24q-7 10 -7 17q0 10 11 18l124 78h38q23 0 23 -20zM638 672l-281 -672h-39q-24 0 -24 16q0 6 3 12l281 672h39q24 0 24 -16q0 -6 -3 -12z" />
    <glyph glyph-name="arrowleft" unicode="&#x2190;" horiz-adv-x="800" 
d="M261 296v-93l-222 123q-5 2 -5 6q0 2 5 5l222 123v-93h482q23 0 23 -28v-43h-505z" />
    <glyph glyph-name="arrowup" unicode="&#x2191;" horiz-adv-x="800" 
d="M405 714l123 -222h-93v-505h-43q-28 0 -28 22v483h-93l123 222q3 6 6 6q2 0 5 -6z" />
    <glyph glyph-name="arrowright" unicode="&#x2192;" horiz-adv-x="800" 
d="M40 367h498v93l222 -123q6 -3 6 -5q0 -3 -6 -6l-222 -123v93h-486q-18 0 -18 23q0 27 6 48z" />
    <glyph glyph-name="arrowdown" unicode="&#x2193;" horiz-adv-x="800" 
d="M394 -7l-123 221h93v499q20 7 45 7q26 0 26 -21v-485h93l-123 -221q-3 -6 -5 -6q-3 0 -6 6z" />
    <glyph glyph-name="arrowboth" unicode="&#x2194;" horiz-adv-x="800" 
d="M261 460v-93h277v93l222 -123q6 -3 6 -5q0 -3 -6 -6l-222 -123v93h-277v-93l-222 123q-5 2 -5 6q0 2 5 5z" />
    <glyph glyph-name="arrowupdn" unicode="&#x2195;" horiz-adv-x="800" 
d="M435 214h93l-123 -221q-3 -6 -5 -6q-3 0 -6 6l-123 221h93v278h-93l123 222q3 6 6 6q2 0 5 -6l123 -222h-93v-278z" />
    <glyph glyph-name="arrowupdnbse" unicode="&#x21a8;" horiz-adv-x="800" 
d="M518 -28v-39h-219q-18 0 -18 22q0 19 6 45h103l-119 214h93v278h-93l123 222q3 6 6 6q2 0 5 -6l123 -222h-93v-278h93l-119 -214h86q23 0 23 -28z" />
    <glyph glyph-name="partialdiff" unicode="&#x2202;" horiz-adv-x="642" 
d="M282 633q-51 0 -86 -28t-47 -81q-40 4 -61 18q-28 17 -11 53q27 56 81.5 86.5t126.5 30.5q130 0 211 -100q81 -99 81 -269v-16q0 -156 -78 -248q-78 -91 -207 -91q-108 0 -175 64q-66 64 -66 160q0 104 70 167q70 64 175 64q111 0 190 -67q-6 123 -61.5 190t-142.5 67z
M311 364q-74 0 -121.5 -42t-47.5 -113q0 -64 42 -103t104 -39q86 0 140 62.5t58 170.5q-71 64 -175 64z" />
    <glyph glyph-name="increment" unicode="&#x2206;" horiz-adv-x="673" 
d="M336 614l-196 -537h392zM400 676l257 -676h-606q-27 0 -27 20q0 1 2 9l251 660q39 17 80 17q19 0 28 -6.5t15 -23.5z" />
    <glyph glyph-name="product" unicode="&#x220f;" horiz-adv-x="703" 
d="M607 717v-828h-63q-28 0 -28 23v750h-330v-773h-63q-28 0 -28 23v828h484q28 0 28 -23z" />
    <glyph glyph-name="summation" unicode="&#x2211;" horiz-adv-x="609" 
d="M95 740h459q23 0 23 -28v-50h-432l220 -312v-21q0 -15 -10 -31l-200 -331h399q23 0 23 -28v-50h-503q-23 0 -23 29v47l227 367l-236 332q4 33 20 60q9 16 33 16z" />
    <glyph glyph-name="minus" unicode="&#x2212;" horiz-adv-x="649" 
d="M563 340v-45h-458q-20 0 -20 25q0 28 6 48h449q23 0 23 -28z" />
    <glyph glyph-name="uni2215" unicode="&#x2215;" horiz-adv-x="171" 
d="M256 672l-281 -672h-39q-24 0 -24 16q0 6 3 12l281 672h39q24 0 24 -16q0 -6 -3 -12z" />
    <glyph glyph-name="uni2219" unicode="&#x2219;" horiz-adv-x="329" 
d="M221 329q0 -25 -15.5 -40.5t-39.5 -15.5t-41 17t-17 44q0 25 15.5 40.5t39.5 15.5t41 -17t17 -44z" />
    <glyph glyph-name="radical" unicode="&#x221a;" horiz-adv-x="570" 
d="M516 747l-157 -721q-6 -26 -41 -26h-68l-135 313h-52q-20 0 -20 25q0 17 4 42h91q31 0 38 -19l117 -274l151 683h49q28 0 23 -23z" />
    <glyph glyph-name="infinity" unicode="&#x221e;" horiz-adv-x="786" 
d="M232 479q86 0 161 -96q71 96 161 96q62 0 107 -42q45 -41 45 -105t-45 -105q-44 -40 -107 -40q-86 0 -161 95q-71 -95 -161 -95q-61 0 -107 41q-45 40 -45 105t45 105q46 41 107 41zM548 410q-59 0 -116 -78q33 -42 59.5 -59.5t56.5 -17.5q34 0 56 21t22 56t-22 56.5
t-56 21.5zM237 255q58 0 117 77q-33 43 -59.5 60.5t-57.5 17.5q-34 0 -56 -21t-22 -56t22 -56.5t56 -21.5z" />
    <glyph glyph-name="orthogonal" unicode="&#x221f;" horiz-adv-x="642" 
d="M620 49v-49h-373q-78 0 -115 41t-37 133v398q30 10 64 10q27 0 27 -21v-379q0 -57 16.5 -81t55.5 -24h340q22 0 22 -28z" />
    <glyph glyph-name="intersection" unicode="&#x2229;" horiz-adv-x="759" 
d="M663 285v-285h-63q-28 0 -28 22v268q0 119 -51 185t-139 66q-89 0 -142 -66.5t-53 -184.5v-290h-63q-28 0 -28 22v263q0 158 78 245t208 87q128 0 205 -87q76 -86 76 -245z" />
    <glyph glyph-name="integral" unicode="&#x222b;" horiz-adv-x="525" 
d="M21 -197q0 21 12 39q36 -14 90 -14q51 0 73.5 23t22.5 76v637q0 85 43 131.5t119 46.5q45 0 84 -17t39 -33q0 -23 -13 -39q-36 14 -90 14q-50 0 -72.5 -23t-22.5 -76v-637q0 -85 -43.5 -131.5t-119.5 -46.5q-45 0 -84 17q-38 17 -38 33z" />
    <glyph glyph-name="approxequal" unicode="&#x2248;" horiz-adv-x="649" 
d="M98 155q-19 7 -19 24q0 12 4 23q29 105 135 105q57 0 109 -37q34 -25 62 -41q18 -9 35 -9q53 0 66 88l62 -13q20 -5 17 -23q-10 -59 -46 -92.5t-94 -33.5q-57 0 -109 37q-40 29 -62 40q-17 10 -35 10q-51 0 -66 -87q-34 -1 -59 9zM98 365q-19 7 -19 24q0 12 4 23
q29 105 135 105q57 0 109 -37q34 -25 62 -41q18 -9 35 -9q53 0 66 88l62 -13q20 -5 17 -23q-10 -59 -46 -92.5t-94 -33.5q-57 0 -109 37q-40 29 -62 40q-17 10 -35 10q-51 0 -66 -87q-34 -1 -59 9z" />
    <glyph glyph-name="notequal" unicode="&#x2260;" horiz-adv-x="649" 
d="M285 184l-69 -135h-41q-26 0 -26 13q0 5 4 12l56 110h-104q-20 0 -20 26q0 27 6 48h156l76 147h-218q-20 0 -20 26q0 27 6 48h270l71 136h41q25 0 25 -14q0 -6 -3 -12l-57 -110h102q23 0 23 -28v-46h-163l-76 -147h216q23 0 23 -28v-46h-278z" />
    </font>
</defs>
</svg>
