<?xml version="1.0" encoding="iso-8859-1"?>
<!-- Generator: Adobe Illustrator 19.0.0, SVG Export Plug-In . SVG Version: 6.00 Build 0)  -->
<svg version="1.1" id="Layer_1" xmlns="http://www.w3.org/2000/svg" xmlns:xlink="http://www.w3.org/1999/xlink" x="0px" y="0px"
	 viewBox="0 0 512 512" style="enable-background:new 0 0 512 512;" xml:space="preserve">
<g>
	<g>
		<path d="M490.672,362.664v-32c-155.828-84.875-308.297-102.219-364.078-105.75l-42.359-163.5
			c-1.156-4.641-5.344-8.078-10.328-8.078H10.672C4.781,53.336,0,58.117,0,64.008s4.781,10.656,10.672,10.656h54.984L115.5,267.117
			h-13.828c-11.734,0-22.766,9.484-24.516,21.094L64.25,373.57c-1.75,11.609,6.406,21.094,18.141,21.094h24.281
			c0,35.359,28.656,64,64,64c28.25,0,52.219-18.297,60.703-43.688l174.969,0.688c4.813,24.516,26.406,43,52.328,43
			c29.453,0,53.328-23.875,53.328-53.328C512,387.883,503.625,372.398,490.672,362.664z M341.719,289.493
			c8.562,2.843,17.047,5.796,25.469,8.874c-14.484,7.172-30.531,10.969-47.188,10.969c-28.484,0-55.281-11.094-75.406-31.234
			c-5.5-5.5-10.328-11.5-14.438-17.875C267.953,267.649,305.437,277.477,341.719,289.493z M110.313,373.336H85.859l1.563-10.359
			c0.547,0.078,1.094,0.141,1.656,0.141c5.891,0,10.672-4.781,10.672-10.672c0-5.375-3.969-9.797-9.141-10.547l1.641-10.922
			c0.531,0.078,1.078,0.141,1.625,0.141c5.906,0,10.672-4.781,10.672-10.672c0-5.359-3.953-9.781-9.109-10.531l2.813-18.516
			c0.156-1.156,2.25-2.953,3.422-2.953h19.234v-0.469l5.531,21.391h0.016l8.359,32.281
			C123.594,349.258,114.922,360.336,110.313,373.336z M170.672,437.336c-23.516,0-42.672-19.141-42.672-42.672
			c0-23.516,19.156-42.656,42.672-42.656c23.531,0,42.672,19.141,42.672,42.656C213.344,418.195,194.203,437.336,170.672,437.336z
			 M406.484,394.336l-171.828-0.672c-0.531-34.891-28.969-63-63.984-63c-5.578,0-10.969,0.719-16.125,2.063l-22.297-86.016
			c17.219,1.281,41.625,3.797,71.063,8.656c20.094,44.406,64.781,75.297,116.688,75.297c26.969,0,51.953-8.328,72.578-22.563
			c26.453,10.625,52.109,22.438,76.766,35.359v9.609c-3.438-0.703-7.016-1.063-10.672-1.063
			C433,352.008,411.563,370.164,406.484,394.336z M458.672,437.336c-17.641,0-32-14.359-32-32s14.359-32,32-32s32,14.359,32,32
			S476.313,437.336,458.672,437.336z"/>
	</g>
</g>
<g>
	<g>
		<path d="M458.672,394.664c-5.891,0-10.672,4.781-10.672,10.672s4.781,10.672,10.672,10.672s10.672-4.781,10.672-10.672
			S464.563,394.664,458.672,394.664z"/>
	</g>
</g>
<g>
	<g>
		<path d="M170.672,384.008c-5.891,0-10.672,4.766-10.672,10.656s4.781,10.672,10.672,10.672s10.672-4.781,10.672-10.672
			S176.563,384.008,170.672,384.008z"/>
	</g>
</g>
<g>
</g>
<g>
</g>
<g>
</g>
<g>
</g>
<g>
</g>
<g>
</g>
<g>
</g>
<g>
</g>
<g>
</g>
<g>
</g>
<g>
</g>
<g>
</g>
<g>
</g>
<g>
</g>
<g>
</g>
</svg>
